<svg width="600" height="526" viewBox="0 0 600 526" fill="none" xmlns="http://www.w3.org/2000/svg"><path d="M96.879 137.307c.746-8.149 3.294-15.953 7.406-22.684 4.112-6.729 9.656-12.167 16.115-15.809 6.459-3.64 13.623-5.363 20.826-5.01 7.202.352 14.209 2.77 20.368 7.028 5.581-4.46 12.076-7.221 18.863-8.021 6.788-.8 13.643.387 19.912 3.45 6.269 3.063 11.744 7.899 15.903 14.046 4.161 6.149 6.868 13.404 7.864 21.076 10.16 2.684 19.096 9.52 25.104 19.206 6.011 9.688 8.677 21.549 7.491 33.325-1.187 11.776-6.142 22.646-13.925 30.541-7.78 7.891-17.844 12.254-28.275 12.258h-102.21c-9.473.007-18.654-3.728-25.968-10.567-7.316-6.841-12.312-16.357-14.132-26.921-1.822-10.565-.355-21.521 4.15-30.993 4.501-9.47 11.762-16.867 20.538-20.925h-.03Z" fill="#66C5FF"/><path opacity=".6" d="M200.996 174.19a46.718 46.718 0 0 0 0-16.774l-5.778-.93a35.786 35.786 0 0 0-2.814-7.719l3.498-5.314c-2.714-4.727-6.263-8.762-10.423-11.849l-4.661 3.943a28.211 28.211 0 0 0-6.805-3.216l-.804-6.55a32.089 32.089 0 0 0-14.786 0l-.819 6.55a28.211 28.211 0 0 0-6.805 3.216l-4.677-3.977c-4.151 3.098-7.698 7.13-10.423 11.848l3.5 5.332a35.728 35.728 0 0 0-2.815 7.718l-5.777.931a46.673 46.673 0 0 0 0 16.774l5.777.949a35.533 35.533 0 0 0 2.829 7.701l-3.514 5.348c2.724 4.718 6.272 8.75 10.423 11.848l4.677-3.994a28.115 28.115 0 0 0 6.805 3.199l.819 6.585c4.871 1.15 9.9 1.15 14.771 0l.819-6.585a28.115 28.115 0 0 0 6.805-3.199l4.676 3.994c4.152-3.098 7.699-7.13 10.424-11.848l-3.514-5.331a35.994 35.994 0 0 0 2.828-7.718l5.764-.932Zm-35.217 11.409c-2.569.001-5.106-.644-7.429-1.891-2.323-1.246-4.373-3.062-6.004-5.317-1.63-2.255-2.8-4.893-3.424-7.723a22.338 22.338 0 0 1-.189-8.645c.668-3.829 2.321-7.347 4.748-10.11 1.815-2.065 4.01-3.647 6.427-4.631a15.419 15.419 0 0 1 7.554-1.062c2.556.285 5.024 1.211 7.227 2.712 2.202 1.5 4.084 3.538 5.51 5.964 1.909 3.247 2.928 7.063 2.928 10.967.002 3.901-1.014 7.715-2.919 10.96-1.906 3.246-4.616 5.776-7.787 7.273a15.573 15.573 0 0 1-6.642 1.503Z" fill="#fff"/><path d="M329.831 91.573c.75-8.148 3.3-15.948 7.414-22.677 4.112-6.727 9.656-12.164 16.114-15.804 6.457-3.64 13.62-5.365 20.821-5.014 7.202.35 14.208 2.765 20.367 7.019 8.434-6.728 18.83-9.496 29.017-7.727 10.188 1.77 19.38 7.939 25.66 17.222 4.16 6.148 6.867 13.402 7.864 21.073 10.162 2.685 19.098 9.522 25.107 19.21 6.011 9.691 8.675 21.554 7.487 33.332-1.188 11.777-6.147 22.646-13.932 30.539-7.783 7.89-17.85 12.25-28.281 12.249H345.258c-9.471 0-18.648-3.739-25.959-10.577-7.314-6.842-12.309-16.358-14.131-26.92-1.823-10.562-.359-21.515 4.141-30.987 4.497-9.471 11.752-16.872 20.522-20.938Z" fill="#66C5FF"/><path opacity=".6" d="M378.956 132.703c0-6.516 3.067-10.155 7.177-10.155 4.11 0 7.178 3.706 7.178 10.155s-3.068 10.156-7.178 10.156c-4.11 0-7.177-3.639-7.177-10.156Zm11.838 0c0-5.077-1.921-7.684-4.661-7.684-2.739 0-4.675 2.573-4.675 7.684 0 5.113 1.92 7.685 4.675 7.685s4.646-2.572 4.646-7.685h.015Zm4.929 0c0-6.516 3.067-10.155 7.193-10.155 4.124 0 7.162 3.706 7.162 10.155s-3.068 10.156-7.162 10.156c-4.096 0-7.193-3.639-7.193-10.156Zm11.838 0c0-5.077-1.906-7.684-4.645-7.684-2.74 0-4.677 2.573-4.677 7.684 0 5.113 1.906 7.685 4.677 7.685 2.769 0 4.645-2.572 4.645-7.685Zm10.32-10.003v20.007h-2.488v-17.518h-3.974V122.7h6.462Zm3.856 10.003c0-6.516 3.068-10.155 7.192-10.155 4.126 0 7.164 3.706 7.164 10.155s-3.068 10.156-7.164 10.156c-4.094 0-7.192-3.639-7.192-10.156Zm11.839 0c0-5.077-1.906-7.684-4.647-7.684-2.739 0-4.675 2.573-4.675 7.684 0 5.113 1.906 7.685 4.675 7.685 2.771 0 4.647-2.572 4.647-7.685Zm10.319-10.003v20.007h-2.487v-17.518h-3.96V122.7h6.447Zm3.842 10.003c0-6.516 3.067-10.155 7.193-10.155 4.124 0 7.162 3.706 7.162 10.155s-3.068 10.156-7.162 10.156c-4.096 0-7.193-3.639-7.193-10.156Zm11.838 0c0-5.077-1.906-7.684-4.645-7.684-2.74 0-4.677 2.573-4.677 7.684 0 5.113 1.906 7.685 4.677 7.685 2.769 0 4.645-2.572 4.645-7.685Zm10.319-10.003v20.007h-2.487v-17.518h-3.975V122.7h6.462Z" fill="#fff"/><path d="M196.737 351.476c-.001-10.98-3.081-21.675-8.792-30.533-5.71-8.856-13.756-15.414-22.97-18.723-.917-8.219-3.666-16.036-7.985-22.711-4.318-6.673-10.065-11.983-16.695-15.426-6.631-3.443-13.926-4.905-21.194-4.248-7.267.658-14.265 3.415-20.331 8.009-9.163-6.938-20.328-9.597-31.172-7.424-10.845 2.172-20.535 9.009-27.056 19.089-4.322 6.675-7.072 14.492-7.992 22.711-10.342 3.72-19.172 11.519-24.893 21.99-5.723 10.473-7.96 22.925-6.31 35.108 1.651 12.183 7.082 23.294 15.312 31.328 8.228 8.029 18.714 12.447 29.561 12.456h106.082c11.875-.298 23.175-5.868 31.478-15.515 8.306-9.652 12.957-22.614 12.957-36.111Z" fill="#24A7FF"/><path d="M98.382 267.64c-9.175-6.792-20.294-9.33-31.068-7.09-10.773 2.24-20.38 9.087-26.843 19.131-4.282 6.653-7.008 14.432-7.92 22.608-10.344 3.718-19.174 11.519-24.894 21.989-5.723 10.473-7.96 22.925-6.31 35.108 1.651 12.183 7.082 23.294 15.312 31.328 8.228 8.029 18.714 12.447 29.561 12.455h31.852l20.31-135.529Z" fill="#3BB0FF"/><path d="M209.379 377.949H93.484v9.8h115.895v-9.8Zm0-47.513H93.484v9.801h115.895v-9.801Z" fill="#3D4959"/><path d="M214.561 385.329H87.795c-.784 0-1.561.176-2.286.517a5.986 5.986 0 0 0-1.938 1.471 6.922 6.922 0 0 0-1.294 2.202 7.594 7.594 0 0 0-.454 2.598V422.6c0 .891.154 1.774.454 2.597a6.9 6.9 0 0 0 1.294 2.202 5.975 5.975 0 0 0 1.938 1.472 5.361 5.361 0 0 0 2.286.517h126.766a5.374 5.374 0 0 0 2.286-.517 5.99 5.99 0 0 0 1.937-1.472 6.907 6.907 0 0 0 1.295-2.202 7.598 7.598 0 0 0 .453-2.597v-30.483a7.594 7.594 0 0 0-.453-2.597 6.896 6.896 0 0 0-1.295-2.202 5.962 5.962 0 0 0-1.937-1.472 5.36 5.36 0 0 0-2.286-.517Z" fill="#D6E0EA"/><path d="m139.392 385.329-6.314 44.009H87.796c-1.58-.002-3.096-.716-4.213-1.985-1.117-1.27-1.744-2.992-1.744-4.787v-30.467c0-1.795.628-3.516 1.745-4.785 1.117-1.269 2.632-1.983 4.212-1.985h51.596Z" fill="#EDEDED"/><path d="M212 419.689v-24.661H90.357v24.661H212Z" fill="#3D4959"/><path d="M202.41 407.333a4.734 4.734 0 0 1-.354 1.818 4.234 4.234 0 0 1-1.004 1.471 3.605 3.605 0 0 1-1.462.841 3.306 3.306 0 0 1-1.638.05 3.52 3.52 0 0 1-1.499-.751 4.135 4.135 0 0 1-1.073-1.407 4.762 4.762 0 0 1-.162-3.627 4.187 4.187 0 0 1 1.377-1.909 3.43 3.43 0 0 1 2.078-.717c.989-.001 1.938.444 2.639 1.238.7.793 1.095 1.87 1.098 2.993Zm-16.141 0c0 .538-.105 1.069-.308 1.556a3.603 3.603 0 0 1-.863 1.256 3.074 3.074 0 0 1-1.253.718 2.85 2.85 0 0 1-1.403.04 3.104 3.104 0 0 1-1.64-.996 3.81 3.81 0 0 1-.875-1.864 4.121 4.121 0 0 1 .012-1.51c.097-.497.285-.965.551-1.374a3.36 3.36 0 0 1 .995-1.002c.39-.251.821-.407 1.267-.457a2.84 2.84 0 0 1 1.321.167c.426.16.817.42 1.148.762.331.343.596.76.776 1.226.181.466.273.969.272 1.478Z" fill="#24A7FF"/><path d="M170.663 407.333a4.06 4.06 0 0 1-.307 1.555 3.624 3.624 0 0 1-.863 1.257 3.069 3.069 0 0 1-1.254.717 2.834 2.834 0 0 1-1.402.041 3.096 3.096 0 0 1-1.64-.996 3.811 3.811 0 0 1-.876-1.864 4.121 4.121 0 0 1 .013-1.51 3.87 3.87 0 0 1 .551-1.374c.266-.41.605-.751.994-1.002a2.95 2.95 0 0 1 1.267-.457c.446-.05.896.007 1.322.167.425.16.816.42 1.147.762.332.343.596.76.777 1.226.18.466.273.969.271 1.478Z" fill="#fff"/><path d="M155.057 407.333a4.06 4.06 0 0 1-.307 1.555 3.598 3.598 0 0 1-.863 1.257 3.072 3.072 0 0 1-1.253.717 2.838 2.838 0 0 1-1.403.041 3.104 3.104 0 0 1-1.64-.996 3.801 3.801 0 0 1-.875-1.864 4.121 4.121 0 0 1 .012-1.51c.097-.497.285-.965.551-1.374a3.36 3.36 0 0 1 .995-1.002 2.94 2.94 0 0 1 1.267-.457 2.84 2.84 0 0 1 1.321.167c.425.16.816.42 1.148.762.331.343.596.76.776 1.226.181.466.273.969.271 1.478Z" fill="#24A7FF"/><path d="M139.452 407.333c0 .538-.105 1.069-.308 1.555a3.598 3.598 0 0 1-.863 1.257 3.072 3.072 0 0 1-1.253.717 2.838 2.838 0 0 1-1.403.041 3.104 3.104 0 0 1-1.64-.996 3.81 3.81 0 0 1-.875-1.864 4.121 4.121 0 0 1 .012-1.51c.097-.497.285-.965.551-1.374a3.36 3.36 0 0 1 .995-1.002c.39-.251.821-.407 1.267-.457a2.84 2.84 0 0 1 1.321.167c.426.16.817.42 1.148.762.331.343.596.76.776 1.226.181.466.273.969.272 1.478Z" fill="#fff"/><path d="M214.561 337.071H87.795a5.361 5.361 0 0 0-2.286.518 5.984 5.984 0 0 0-1.937 1.471 6.911 6.911 0 0 0-1.295 2.202 7.591 7.591 0 0 0-.454 2.597v30.485c0 3.748 2.674 6.787 5.972 6.787h126.766c1.584-.001 3.103-.716 4.223-1.989 1.12-1.273 1.748-2.999 1.748-4.798v-30.485c0-3.748-2.674-6.788-5.971-6.788Z" fill="#D6E0EA"/><path d="m146.302 337.071-6.299 44.009H87.796a5.349 5.349 0 0 1-2.281-.515 5.962 5.962 0 0 1-1.933-1.468 6.885 6.885 0 0 1-1.291-2.196 7.574 7.574 0 0 1-.452-2.591v-30.467c0-1.795.627-3.517 1.744-4.787 1.117-1.269 2.632-1.983 4.213-1.985h58.506Z" fill="#EDEDED"/><path d="M212 371.433v-24.662H90.357v24.662H212Z" fill="#3D4959"/><path d="M214.561 289.56H87.795a5.36 5.36 0 0 0-2.286.516 6.003 6.003 0 0 0-1.938 1.472 6.91 6.91 0 0 0-1.294 2.202 7.593 7.593 0 0 0-.454 2.597v30.485c0 3.748 2.674 6.788 5.972 6.788h126.766c1.584-.001 3.103-.717 4.223-1.99 1.12-1.273 1.748-2.999 1.748-4.798v-30.485a7.602 7.602 0 0 0-.453-2.597 6.918 6.918 0 0 0-1.295-2.202 5.973 5.973 0 0 0-1.937-1.471 5.36 5.36 0 0 0-2.286-.517Z" fill="#D6E0EA"/><path d="m153.122 289.56-6.314 44.008H87.796a5.349 5.349 0 0 1-2.281-.515 5.973 5.973 0 0 1-1.933-1.467 6.9 6.9 0 0 1-1.291-2.197 7.57 7.57 0 0 1-.452-2.591V296.33c0-.889.153-1.77.452-2.591a6.9 6.9 0 0 1 1.29-2.197 5.973 5.973 0 0 1 1.934-1.467 5.349 5.349 0 0 1 2.28-.515h65.327Z" fill="#EDEDED"/><path d="M212.015 323.937v-24.661H90.371v24.661h121.644Z" fill="#3D4959"/><path d="M198.673 363.341c.491 0 .977-.11 1.43-.324a3.727 3.727 0 0 0 1.213-.921c.347-.394.622-.862.81-1.378a4.746 4.746 0 0 0 .284-1.625 4.67 4.67 0 0 0-.63-2.36c-.411-.698-.995-1.243-1.679-1.564a3.323 3.323 0 0 0-2.161-.242 3.619 3.619 0 0 0-1.914 1.164 4.45 4.45 0 0 0-1.023 2.175 4.794 4.794 0 0 0 .213 2.455 4.174 4.174 0 0 0 1.379 1.905 3.428 3.428 0 0 0 2.078.715Zm-12.404-4.248a3.999 3.999 0 0 1-.541 2.019 3.336 3.336 0 0 1-1.436 1.339 2.856 2.856 0 0 1-1.849.208 3.107 3.107 0 0 1-1.639-.992 3.814 3.814 0 0 1-.878-1.864 4.104 4.104 0 0 1 .184-2.103 3.63 3.63 0 0 1 .926-1.42c.406-.38.89-.64 1.406-.757a2.836 2.836 0 0 1 1.554.087c.504.174.962.486 1.335.91.6.682.938 1.608.938 2.573Z" fill="#24A7FF"/><path d="M170.663 359.093a4.001 4.001 0 0 1-.541 2.019 3.331 3.331 0 0 1-1.436 1.339 2.853 2.853 0 0 1-1.848.208 3.11 3.11 0 0 1-1.64-.992 3.813 3.813 0 0 1-.877-1.864 4.093 4.093 0 0 1 .183-2.103 3.63 3.63 0 0 1 .926-1.42c.407-.38.89-.64 1.406-.757a2.84 2.84 0 0 1 1.555.087c.503.174.962.486 1.334.91.6.682.938 1.607.938 2.573Z" fill="#fff"/><path d="M155.057 359.093a4 4 0 0 1-.54 2.019 3.342 3.342 0 0 1-1.436 1.339 2.856 2.856 0 0 1-1.849.208 3.113 3.113 0 0 1-1.64-.992 3.822 3.822 0 0 1-.877-1.864 4.093 4.093 0 0 1 .183-2.103 3.63 3.63 0 0 1 .926-1.42c.407-.38.89-.64 1.407-.757a2.837 2.837 0 0 1 1.554.087c.504.174.962.486 1.334.91.601.682.938 1.607.938 2.573Z" fill="#24A7FF"/><path d="M139.452 359.093a4.001 4.001 0 0 1-.541 2.019 3.342 3.342 0 0 1-1.436 1.339 2.856 2.856 0 0 1-1.849.208 3.107 3.107 0 0 1-1.639-.992 3.814 3.814 0 0 1-.878-1.864 4.104 4.104 0 0 1 .184-2.103 3.63 3.63 0 0 1 .926-1.42c.407-.38.89-.64 1.406-.757a2.836 2.836 0 0 1 1.554.087c.504.174.962.486 1.335.91.6.682.938 1.607.938 2.573Z" fill="#fff"/><path d="M202.41 311.598c.006 1.058-.336 2.08-.959 2.867-.623.786-1.483 1.28-2.41 1.383-.927.104-1.854-.19-2.601-.823-.746-.633-1.257-1.56-1.433-2.599a4.83 4.83 0 0 1 .041-1.86 4.5 4.5 0 0 1 .737-1.662c.35-.485.791-.876 1.29-1.145a3.377 3.377 0 0 1 1.598-.41c.991.001 1.942.449 2.642 1.246.701.797 1.095 1.877 1.095 3.003Z" fill="#24A7FF"/><path d="M186.269 311.598a4.001 4.001 0 0 1-.541 2.019 3.334 3.334 0 0 1-1.436 1.338 2.85 2.85 0 0 1-1.849.208 3.094 3.094 0 0 1-1.639-.992 3.807 3.807 0 0 1-.878-1.863 4.104 4.104 0 0 1 .184-2.103 3.64 3.64 0 0 1 .926-1.421c.407-.38.89-.639 1.406-.756a2.827 2.827 0 0 1 1.554.087c.504.174.962.486 1.335.909.6.684.938 1.608.938 2.574Zm-15.606 0a4.001 4.001 0 0 1-.541 2.019 3.323 3.323 0 0 1-1.436 1.338 2.846 2.846 0 0 1-1.848.208 3.097 3.097 0 0 1-1.64-.992 3.805 3.805 0 0 1-.877-1.863 4.093 4.093 0 0 1 .183-2.103 3.64 3.64 0 0 1 .926-1.421c.407-.38.89-.639 1.406-.756a2.83 2.83 0 0 1 1.555.087 3.16 3.16 0 0 1 1.334.909c.6.684.938 1.608.938 2.574Z" fill="#fff"/><path d="M155.057 311.598c0 .719-.189 1.421-.54 2.018a3.33 3.33 0 0 1-1.436 1.339 2.85 2.85 0 0 1-1.849.208 3.1 3.1 0 0 1-1.64-.992 3.805 3.805 0 0 1-.877-1.863 4.093 4.093 0 0 1 .183-2.103 3.64 3.64 0 0 1 .926-1.421 3.05 3.05 0 0 1 1.407-.756 2.827 2.827 0 0 1 1.554.087c.504.174.962.486 1.334.909.601.683.938 1.608.938 2.574Zm-15.605 0a3.995 3.995 0 0 1-.541 2.018 3.33 3.33 0 0 1-1.436 1.339 2.85 2.85 0 0 1-1.849.208 3.094 3.094 0 0 1-1.639-.992 3.807 3.807 0 0 1-.878-1.863 4.104 4.104 0 0 1 .184-2.103 3.64 3.64 0 0 1 .926-1.421c.407-.38.89-.639 1.406-.756a2.827 2.827 0 0 1 1.554.087c.504.174.962.486 1.335.909.6.683.938 1.608.938 2.574Zm242.184 50.796c.007-8.676-2.421-17.129-6.931-24.132-4.508-7-10.864-12.184-18.144-14.799-.732-6.486-2.908-12.653-6.322-17.917-3.413-5.262-7.952-9.448-13.188-12.16-5.235-2.712-10.993-3.861-16.729-3.338-5.735.525-11.257 2.705-16.043 6.333-7.227-5.481-16.035-7.587-24.593-5.88-8.558 1.706-16.208 7.095-21.359 15.044-3.413 5.265-5.587 11.432-6.315 17.918-8.179 2.924-15.165 9.08-19.692 17.351-4.53 8.273-6.303 18.115-5 27.744 1.302 9.629 5.596 18.411 12.104 24.755 6.506 6.342 14.796 9.826 23.369 9.823h83.776c9.372-.232 18.291-4.626 24.845-12.24 6.556-7.618 10.225-17.849 10.222-28.502Z" fill="#24A7FF"/><path d="M303.981 296.144c-4.796-3.553-10.308-5.663-16.019-6.131-5.71-.469-11.432.72-16.627 3.455-5.197 2.736-9.696 6.927-13.076 12.18-3.38 5.252-5.53 11.395-6.247 17.85-8.178 2.924-15.164 9.079-19.692 17.35-4.53 8.273-6.304 18.114-5.001 27.743 1.303 9.629 5.597 18.411 12.105 24.756 6.505 6.343 14.796 9.827 23.369 9.822h25.24l15.948-107.025Z" fill="#3BB0FF"/><path d="M362.487 448.244H246.592v9.801h115.895v-9.801Zm0-47.496H246.592v9.801h115.895v-9.801Z" fill="#3D4959"/><path d="M367.669 455.623H240.903c-1.584.001-3.103.717-4.223 1.989-1.12 1.273-1.749 2.999-1.749 4.799v30.485c0 3.748 2.674 6.787 5.972 6.787h126.766c1.584-.001 3.103-.716 4.223-1.989 1.12-1.273 1.748-2.999 1.748-4.798v-30.485c0-3.748-2.674-6.788-5.971-6.788Z" fill="#D6E0EA"/><path d="m292.5 455.623-6.314 44.009h-45.268a5.335 5.335 0 0 1-2.281-.515 5.97 5.97 0 0 1-1.933-1.467 6.9 6.9 0 0 1-1.29-2.197 7.567 7.567 0 0 1-.452-2.591v-30.467c0-1.795.627-3.517 1.743-4.787 1.117-1.27 2.633-1.984 4.213-1.985H292.5Z" fill="#EDEDED"/><path d="M365.093 490.001v-24.662H243.45v24.662h121.643Z" fill="#3D4959"/><path d="M355.503 477.661a4.74 4.74 0 0 1-.382 1.803 4.2 4.2 0 0 1-1.022 1.445 3.57 3.57 0 0 1-1.467.814 3.304 3.304 0 0 1-1.632.025 3.545 3.545 0 0 1-1.486-.767 4.144 4.144 0 0 1-1.056-1.413 4.773 4.773 0 0 1-.14-3.614 4.256 4.256 0 0 1 1.09-1.658 3.565 3.565 0 0 1 1.649-.875 3.313 3.313 0 0 1 1.818.115 3.698 3.698 0 0 1 1.554 1.078c.348.402.622.878.807 1.401.184.524.275 1.083.267 1.646Zm-16.142 0c0 .72-.188 1.423-.54 2.021a3.324 3.324 0 0 1-1.436 1.341 2.858 2.858 0 0 1-2.736-.15 3.36 3.36 0 0 1-1.062-1.042 3.877 3.877 0 0 1-.567-1.459 4.121 4.121 0 0 1 .012-1.51c.097-.496.284-.964.551-1.374.266-.409.605-.75.994-1.002.39-.251.821-.406 1.267-.456a2.84 2.84 0 0 1 1.321.166c.426.16.817.42 1.148.762.331.342.596.76.777 1.225.18.466.273.97.271 1.478Z" fill="#24A7FF"/><path d="M323.771 477.662c0 .719-.188 1.422-.54 2.02a3.33 3.33 0 0 1-1.436 1.341c-.586.277-1.23.35-1.852.21a3.106 3.106 0 0 1-1.641-.996 3.811 3.811 0 0 1-.876-1.864 4.092 4.092 0 0 1 .185-2.103c.285-.775.797-1.415 1.45-1.81a2.869 2.869 0 0 1 2.131-.357c.726.164 1.379.608 1.849 1.256.47.649.728 1.462.73 2.303Z" fill="#fff"/><path d="M308.15 477.661c0 .72-.188 1.423-.54 2.021a3.335 3.335 0 0 1-1.436 1.341 2.843 2.843 0 0 1-1.851.209 3.103 3.103 0 0 1-1.641-.996 3.811 3.811 0 0 1-.876-1.864 4.1 4.1 0 0 1 .185-2.102 3.564 3.564 0 0 1 1.178-1.635 2.934 2.934 0 0 1 1.779-.613c.85.001 1.664.385 2.264 1.067.601.682.938 1.608.938 2.572Z" fill="#24A7FF"/><path d="M292.499 477.662c0 .719-.188 1.422-.539 2.02a3.33 3.33 0 0 1-1.436 1.341c-.585.277-1.23.35-1.851.21a3.103 3.103 0 0 1-1.641-.996 3.813 3.813 0 0 1-.877-1.864 4.103 4.103 0 0 1 .185-2.103c.202-.552.52-1.04.927-1.419.407-.379.89-.638 1.407-.755a2.832 2.832 0 0 1 1.553.086c.504.173.963.485 1.335.907.601.682.937 1.608.937 2.573Z" fill="#fff"/><path d="M367.669 407.367H240.903c-.784 0-1.561.176-2.286.517a5.973 5.973 0 0 0-1.937 1.472 6.896 6.896 0 0 0-1.295 2.202 7.599 7.599 0 0 0-.454 2.597v30.483c0 .891.154 1.774.454 2.597.3.824.74 1.572 1.295 2.202a6.001 6.001 0 0 0 1.937 1.472 5.363 5.363 0 0 0 2.286.517h126.766a5.36 5.36 0 0 0 2.286-.517 5.99 5.99 0 0 0 1.937-1.472 6.907 6.907 0 0 0 1.295-2.202 7.598 7.598 0 0 0 .453-2.597v-30.483a7.598 7.598 0 0 0-.453-2.597 6.896 6.896 0 0 0-1.295-2.202 5.962 5.962 0 0 0-1.937-1.472 5.36 5.36 0 0 0-2.286-.517Z" fill="#D6E0EA"/><path d="m299.394 407.333-6.299 44.009h-52.192c-1.58-.002-3.094-.716-4.211-1.986-1.117-1.269-1.745-2.991-1.745-4.785v-30.468a7.562 7.562 0 0 1 .452-2.59 6.887 6.887 0 0 1 1.291-2.196 5.96 5.96 0 0 1 1.933-1.468 5.35 5.35 0 0 1 2.28-.516h58.491Z" fill="#EDEDED"/><path d="M365.108 441.727v-24.661H243.464v24.661h121.644Z" fill="#3D4959"/><path d="M367.669 359.872H240.903c-1.584 0-3.103.716-4.223 1.989-1.12 1.272-1.749 2.999-1.749 4.798v30.485c0 3.748 2.674 6.787 5.972 6.787h126.766c1.584-.001 3.103-.716 4.223-1.989 1.12-1.273 1.748-2.999 1.748-4.798v-30.485c0-3.748-2.674-6.787-5.971-6.787Z" fill="#D6E0EA"/><path d="m306.214 359.939-6.269 44.009h-59.042a5.335 5.335 0 0 1-2.28-.516 5.97 5.97 0 0 1-1.933-1.467 6.902 6.902 0 0 1-1.291-2.197 7.562 7.562 0 0 1-.452-2.59V366.71c0-1.794.628-3.516 1.745-4.785 1.117-1.27 2.631-1.984 4.211-1.986h65.311Z" fill="#EDEDED"/><path d="M365.092 394.232V369.57H243.45v24.662h121.642Z" fill="#3D4959"/><path d="M355.503 429.338c-.001.84-.22 1.66-.63 2.359a3.896 3.896 0 0 1-1.677 1.566 3.326 3.326 0 0 1-2.16.24 3.625 3.625 0 0 1-1.914-1.162 4.46 4.46 0 0 1-1.024-2.175 4.782 4.782 0 0 1 .214-2.455 4.17 4.17 0 0 1 1.377-1.905 3.433 3.433 0 0 1 2.076-.717c.492-.003.979.106 1.434.319.454.212.867.525 1.215.92.347.395.622.865.809 1.381.187.517.282 1.07.28 1.629Zm-16.142 0a4.06 4.06 0 0 1-.307 1.555 3.63 3.63 0 0 1-.863 1.257 3.083 3.083 0 0 1-1.253.717 2.826 2.826 0 0 1-1.403.04 3.104 3.104 0 0 1-1.64-.996 3.801 3.801 0 0 1-.875-1.864 4.121 4.121 0 0 1 .012-1.51c.097-.497.285-.965.551-1.374.266-.409.605-.751.995-1.002a2.94 2.94 0 0 1 1.267-.457c.446-.049.896.007 1.321.168.425.16.816.419 1.148.762.331.342.596.76.776 1.225.18.466.273.97.271 1.479Z" fill="#24A7FF"/><path d="M323.771 429.338a4.001 4.001 0 0 1-.541 2.019 3.334 3.334 0 0 1-1.436 1.338 2.846 2.846 0 0 1-1.85.208 3.106 3.106 0 0 1-1.639-.993 3.755 3.755 0 0 1-.799-1.516 4.121 4.121 0 0 1-.077-1.765 3.873 3.873 0 0 1 .666-1.597 3.273 3.273 0 0 1 1.249-1.053 2.85 2.85 0 0 1 1.539-.259 2.965 2.965 0 0 1 1.465.595c.437.332.796.782 1.045 1.309.248.527.378 1.116.378 1.714Z" fill="#fff"/><path d="M308.15 429.338a4.06 4.06 0 0 1-.307 1.555 3.632 3.632 0 0 1-.864 1.257 3.07 3.07 0 0 1-1.253.717 2.834 2.834 0 0 1-1.402.04 3.042 3.042 0 0 1-1.345-.7 3.608 3.608 0 0 1-.925-1.312 4.048 4.048 0 0 1-.306-1.645 4.038 4.038 0 0 1 .376-1.625c.236-.501.571-.932.98-1.259a2.996 2.996 0 0 1 1.373-.625c.495-.084 1-.035 1.475.143.474.177.906.479 1.26.88.6.682.938 1.608.938 2.574Z" fill="#24A7FF"/><path d="M292.499 429.338a3.99 3.99 0 0 1-.54 2.019 3.33 3.33 0 0 1-1.436 1.339 2.859 2.859 0 0 1-1.85.208 3.108 3.108 0 0 1-1.639-.994 3.763 3.763 0 0 1-.8-1.516 4.121 4.121 0 0 1-.077-1.765 3.876 3.876 0 0 1 .665-1.598 3.276 3.276 0 0 1 1.25-1.053 2.85 2.85 0 0 1 1.539-.259 2.965 2.965 0 0 1 1.465.595c.438.332.797.782 1.045 1.309.248.528.378 1.117.378 1.715Z" fill="#fff"/><path d="M355.503 381.943a4.67 4.67 0 0 1-.63 2.36 3.885 3.885 0 0 1-1.677 1.566 3.32 3.32 0 0 1-2.16.242 3.627 3.627 0 0 1-1.914-1.163 4.465 4.465 0 0 1-1.022-2.176 4.8 4.8 0 0 1 .212-2.454c.33-.908.928-1.658 1.691-2.121a3.348 3.348 0 0 1 2.492-.42c.848.192 1.612.712 2.16 1.472.549.759.848 1.712.848 2.694Z" fill="#24A7FF"/><path d="M339.361 381.943c0 .72-.188 1.423-.54 2.021a3.336 3.336 0 0 1-1.436 1.341 2.857 2.857 0 0 1-2.736-.151 3.36 3.36 0 0 1-1.062-1.042 3.884 3.884 0 0 1-.567-1.459 4.085 4.085 0 0 1 .248-2.262c.294-.705.779-1.283 1.384-1.651a2.87 2.87 0 0 1 1.977-.391 3.077 3.077 0 0 1 1.794 1.021c.601.683.938 1.609.938 2.573Zm-15.59 0a4.015 4.015 0 0 1-.54 2.021 3.341 3.341 0 0 1-1.436 1.341 2.87 2.87 0 0 1-1.383.273 2.92 2.92 0 0 1-1.353-.425 3.37 3.37 0 0 1-1.062-1.042 3.891 3.891 0 0 1-.568-1.458 4.092 4.092 0 0 1 .247-2.264c.294-.705.779-1.284 1.384-1.652a2.88 2.88 0 0 1 1.979-.391 3.081 3.081 0 0 1 1.794 1.024c.6.683.938 1.609.938 2.573Z" fill="#fff"/><path d="M308.15 381.943a4.015 4.015 0 0 1-.54 2.021 3.341 3.341 0 0 1-1.436 1.341 2.86 2.86 0 0 1-2.736-.151 3.363 3.363 0 0 1-1.063-1.042 3.918 3.918 0 0 1-.567-1.459 4.103 4.103 0 0 1 .248-2.262c.294-.705.779-1.283 1.385-1.651a2.87 2.87 0 0 1 1.977-.391 3.077 3.077 0 0 1 1.794 1.021c.6.683.938 1.609.938 2.573Zm-15.651 0c0 .538-.105 1.069-.307 1.556a3.605 3.605 0 0 1-.864 1.256 3.07 3.07 0 0 1-1.253.716 2.826 2.826 0 0 1-1.403.039 3.032 3.032 0 0 1-1.282-.646 3.548 3.548 0 0 1-.916-1.207 4.09 4.09 0 0 1-.134-3.107c.202-.552.52-1.039.927-1.418.407-.379.89-.639 1.407-.755a2.823 2.823 0 0 1 1.553.086c.504.173.963.484 1.335.907.601.683.937 1.609.937 2.573Zm306.603-30.467c0-10.98-3.08-21.675-8.792-30.533-5.71-8.856-13.756-15.414-22.97-18.723-.92-8.218-3.67-16.033-7.991-22.707-4.321-6.674-10.069-11.985-16.702-15.431-6.63-3.442-13.925-4.903-21.193-4.245-7.267.659-14.266 3.415-20.333 8.007-9.162-6.938-20.325-9.597-31.168-7.424-10.844 2.172-20.532 9.009-27.051 19.089-4.321 6.675-7.069 14.492-7.986 22.711-10.343 3.72-19.173 11.52-24.894 21.99-5.723 10.474-7.961 22.927-6.31 35.111 1.65 12.183 7.082 23.293 15.313 31.325 8.228 8.029 18.714 12.447 29.561 12.456h106.082c11.875-.297 23.174-5.867 31.477-15.515 8.306-9.652 12.957-22.613 12.957-36.111Z" fill="#24A7FF"/><path d="M500.748 267.64c-9.176-6.792-20.295-9.33-31.068-7.09s-20.38 9.087-26.842 19.131c-4.283 6.653-7.009 14.432-7.922 22.608-10.343 3.719-19.173 11.519-24.894 21.989-5.723 10.474-7.961 22.927-6.31 35.11 1.65 12.183 7.082 23.294 15.313 31.326 8.228 8.029 18.714 12.447 29.561 12.455h31.91l20.252-135.529Z" fill="#3BB0FF"/><path d="M515.579 377.949H399.684v9.8h115.895v-9.8Zm0-47.513H399.684v9.801h115.895v-9.801Z" fill="#3D4959"/><path d="M520.762 385.329H393.996c-.784 0-1.561.176-2.286.517a5.973 5.973 0 0 0-1.937 1.472 6.875 6.875 0 0 0-1.294 2.202 7.594 7.594 0 0 0-.454 2.597V422.6c0 .891.154 1.774.454 2.597a6.886 6.886 0 0 0 1.294 2.202 6.001 6.001 0 0 0 1.937 1.472 5.377 5.377 0 0 0 2.286.517h126.766a5.377 5.377 0 0 0 2.286-.517 6.001 6.001 0 0 0 1.937-1.472 6.904 6.904 0 0 0 1.294-2.202c.3-.823.454-1.706.454-2.597v-30.483c0-.892-.154-1.774-.454-2.597a6.894 6.894 0 0 0-1.294-2.202 5.973 5.973 0 0 0-1.937-1.472 5.363 5.363 0 0 0-2.286-.517Z" fill="#D6E0EA"/><path d="m445.593 385.329-6.329 44.009h-45.268c-1.58-.002-3.095-.717-4.212-1.986-1.116-1.27-1.744-2.991-1.745-4.786v-30.467c0-.889.154-1.769.453-2.59a6.892 6.892 0 0 1 1.291-2.197 5.974 5.974 0 0 1 1.933-1.468 5.349 5.349 0 0 1 2.28-.515h51.597Z" fill="#EDEDED"/><path d="M518.2 419.689v-24.661H396.558v24.661H518.2Z" fill="#3D4959"/><path d="M508.596 407.333a4.681 4.681 0 0 1-.624 2.364c-.409.7-.991 1.248-1.673 1.573a3.342 3.342 0 0 1-1.615.325 3.402 3.402 0 0 1-1.582-.492 3.902 3.902 0 0 1-1.243-1.215 4.525 4.525 0 0 1-.666-1.703 4.816 4.816 0 0 1 .039-1.861c.134-.61.385-1.178.735-1.665a3.857 3.857 0 0 1 1.292-1.147 3.381 3.381 0 0 1 1.599-.41c.989.002 1.937.447 2.637 1.24.7.793 1.096 1.868 1.101 2.991Zm-19.344 3.673c.421 0 .837-.094 1.226-.277a3.222 3.222 0 0 0 1.039-.789c.297-.338.533-.739.694-1.181a4.09 4.09 0 0 0 .243-1.392 4.083 4.083 0 0 0-.219-1.421 3.724 3.724 0 0 0-.689-1.213 3.217 3.217 0 0 0-1.049-.813 2.872 2.872 0 0 0-1.245-.286c-.427 0-.851.097-1.245.286-.394.189-.75.465-1.049.813a3.74 3.74 0 0 0-.688 1.213 4.06 4.06 0 0 0-.219 1.421c-.001.478.082.951.243 1.392.161.442.397.843.694 1.181.297.338.65.606 1.039.789.388.183.805.277 1.225.277Z" fill="#24A7FF"/><path d="M476.848 407.333c0 .629-.143 1.247-.416 1.794a3.465 3.465 0 0 1-1.14 1.327 2.918 2.918 0 0 1-1.568.517 2.904 2.904 0 0 1-1.589-.429 3.414 3.414 0 0 1-1.196-1.263 3.98 3.98 0 0 1-.492-1.768 4.062 4.062 0 0 1 .339-1.815 3.537 3.537 0 0 1 1.082-1.389 2.955 2.955 0 0 1 1.622-.607 2.888 2.888 0 0 1 1.666.426c.511.311.939.773 1.237 1.338.298.565.455 1.211.455 1.869Z" fill="#fff"/><path d="M461.243 407.333a4.04 4.04 0 0 1-.416 1.794 3.467 3.467 0 0 1-1.141 1.327 2.918 2.918 0 0 1-1.568.517 2.906 2.906 0 0 1-1.589-.429 3.414 3.414 0 0 1-1.196-1.263 3.994 3.994 0 0 1-.492-1.768 4.062 4.062 0 0 1 .339-1.815 3.53 3.53 0 0 1 1.083-1.389 2.952 2.952 0 0 1 1.621-.607 2.888 2.888 0 0 1 1.666.426 3.42 3.42 0 0 1 1.237 1.338c.298.565.456 1.211.456 1.869Z" fill="#24A7FF"/><path d="M445.637 407.333c0 .629-.143 1.247-.416 1.794a3.473 3.473 0 0 1-1.14 1.327 2.921 2.921 0 0 1-1.569.517 2.903 2.903 0 0 1-1.588-.429 3.414 3.414 0 0 1-1.196-1.263 3.995 3.995 0 0 1-.493-1.768 4.062 4.062 0 0 1 .339-1.815 3.54 3.54 0 0 1 1.083-1.389 2.955 2.955 0 0 1 1.622-.607 2.888 2.888 0 0 1 1.666.426c.511.311.938.773 1.236 1.338.298.565.456 1.211.456 1.869Z" fill="#fff"/><path d="M520.762 337.071H393.996a5.364 5.364 0 0 0-2.286.518 5.984 5.984 0 0 0-1.937 1.471 6.886 6.886 0 0 0-1.294 2.202 7.599 7.599 0 0 0-.454 2.597v30.485c0 3.748 2.673 6.787 5.971 6.787h126.766c1.584-.001 3.103-.716 4.222-1.989 1.12-1.273 1.749-2.999 1.749-4.798v-30.485c0-3.748-2.674-6.788-5.971-6.788Z" fill="#D6E0EA"/><path d="m452.502 337.071-6.314 44.009H394.07a5.342 5.342 0 0 1-2.28-.515 5.974 5.974 0 0 1-1.933-1.468 6.892 6.892 0 0 1-1.291-2.197 7.581 7.581 0 0 1-.452-2.59v-30.467c0-1.795.627-3.517 1.744-4.787 1.116-1.27 2.632-1.984 4.212-1.985h58.432Z" fill="#EDEDED"/><path d="M518.2 371.433v-24.662H396.558v24.662H518.2Z" fill="#3D4959"/><path d="M520.762 289.56H393.996c-.784 0-1.561.176-2.286.517a5.984 5.984 0 0 0-1.937 1.471 6.897 6.897 0 0 0-1.294 2.202 7.603 7.603 0 0 0-.454 2.597v30.485c0 3.748 2.673 6.788 5.971 6.788h126.766c1.584-.001 3.103-.717 4.222-1.99 1.12-1.273 1.749-2.999 1.749-4.798v-30.485c0-.891-.154-1.773-.454-2.597a6.915 6.915 0 0 0-1.294-2.202 5.984 5.984 0 0 0-1.937-1.471 5.363 5.363 0 0 0-2.286-.517Z" fill="#D6E0EA"/><path d="m459.277 289.56-6.313 44.008h-58.968a5.349 5.349 0 0 1-2.28-.515 5.96 5.96 0 0 1-1.933-1.468 6.898 6.898 0 0 1-1.291-2.196 7.592 7.592 0 0 1-.453-2.591V296.33c0-.889.154-1.769.453-2.591a6.898 6.898 0 0 1 1.291-2.196 5.96 5.96 0 0 1 1.933-1.468 5.349 5.349 0 0 1 2.28-.515h65.281Z" fill="#EDEDED"/><path d="M518.2 323.92v-24.662H396.558v24.662H518.2Z" fill="#3D4959"/><path d="M508.595 359.093a4.67 4.67 0 0 1-.63 2.36 3.894 3.894 0 0 1-1.676 1.566 3.333 3.333 0 0 1-2.16.24 3.638 3.638 0 0 1-1.914-1.162 4.453 4.453 0 0 1-1.023-2.176 4.768 4.768 0 0 1 .214-2.454 4.169 4.169 0 0 1 1.376-1.906 3.43 3.43 0 0 1 2.076-.717c.491 0 .978.11 1.431.323.454.214.866.527 1.213.921.348.395.623.864.81 1.379.188.516.284 1.068.283 1.626Zm-16.141 0a4.052 4.052 0 0 1-.309 1.553 3.607 3.607 0 0 1-.864 1.253 3.057 3.057 0 0 1-1.252.715c-.458.13-.937.143-1.401.039a3.044 3.044 0 0 1-1.281-.645 3.56 3.56 0 0 1-.915-1.205 4.08 4.08 0 0 1-.137-3.103 3.64 3.64 0 0 1 .926-1.421c.407-.38.89-.64 1.407-.756a2.827 2.827 0 0 1 1.554.087 3.15 3.15 0 0 1 1.335.91c.599.682.937 1.608.937 2.573Z" fill="#24A7FF"/><path d="M476.848 359.093c0 .629-.143 1.247-.416 1.794a3.465 3.465 0 0 1-1.14 1.327 2.926 2.926 0 0 1-1.568.517 2.904 2.904 0 0 1-1.589-.429 3.414 3.414 0 0 1-1.196-1.263 3.981 3.981 0 0 1-.492-1.769 4.056 4.056 0 0 1 .339-1.814 3.537 3.537 0 0 1 1.082-1.389 2.955 2.955 0 0 1 1.622-.607 2.888 2.888 0 0 1 1.666.426c.511.31.939.773 1.237 1.338.298.565.455 1.211.455 1.869Z" fill="#fff"/><path d="M461.243 359.093a4.04 4.04 0 0 1-.416 1.794 3.467 3.467 0 0 1-1.141 1.327 2.926 2.926 0 0 1-1.568.517 2.906 2.906 0 0 1-1.589-.429 3.414 3.414 0 0 1-1.196-1.263 3.994 3.994 0 0 1-.492-1.769 4.056 4.056 0 0 1 .339-1.814 3.53 3.53 0 0 1 1.083-1.389 2.952 2.952 0 0 1 1.621-.607 2.888 2.888 0 0 1 1.666.426c.512.31.939.773 1.237 1.338.298.565.456 1.211.456 1.869Z" fill="#24A7FF"/><path d="M445.637 359.093c0 .629-.143 1.247-.416 1.794a3.473 3.473 0 0 1-1.14 1.327 2.93 2.93 0 0 1-1.569.517 2.903 2.903 0 0 1-1.588-.429 3.414 3.414 0 0 1-1.196-1.263 3.995 3.995 0 0 1-.493-1.769 4.056 4.056 0 0 1 .339-1.814 3.54 3.54 0 0 1 1.083-1.389 2.955 2.955 0 0 1 1.622-.607 2.888 2.888 0 0 1 1.666.426c.511.31.938.773 1.236 1.338.298.565.456 1.211.456 1.869Z" fill="#fff"/><path d="M508.595 311.598c0 .84-.219 1.661-.629 2.359-.411.699-.994 1.244-1.677 1.566a3.32 3.32 0 0 1-2.16.243 3.623 3.623 0 0 1-1.914-1.164 4.37 4.37 0 0 1-.875-1.573 4.775 4.775 0 0 1 .313-3.615c.284-.539.669-1 1.129-1.349a3.464 3.464 0 0 1 1.711-.697 3.335 3.335 0 0 1 1.798.301c.685.319 1.27.864 1.681 1.564.41.7.627 1.524.623 2.365Z" fill="#24A7FF"/><path d="M492.454 311.598a4.047 4.047 0 0 1-.309 1.552 3.61 3.61 0 0 1-.864 1.254 3.08 3.08 0 0 1-1.252.715 2.83 2.83 0 0 1-1.401.038 3.032 3.032 0 0 1-1.281-.645 3.55 3.55 0 0 1-.915-1.205 4.026 4.026 0 0 1-.375-1.534 4.057 4.057 0 0 1 .238-1.568 3.633 3.633 0 0 1 .926-1.421c.407-.38.89-.64 1.407-.757a2.827 2.827 0 0 1 1.554.087c.504.174.963.487 1.335.91.599.684.937 1.608.937 2.574Zm-15.606 0c0 .628-.143 1.246-.416 1.793a3.468 3.468 0 0 1-1.14 1.328 2.925 2.925 0 0 1-1.568.516 2.887 2.887 0 0 1-1.589-.429 3.399 3.399 0 0 1-1.196-1.263 3.977 3.977 0 0 1-.492-1.768 4.056 4.056 0 0 1 .339-1.814 3.53 3.53 0 0 1 1.082-1.389 2.947 2.947 0 0 1 1.622-.607 2.895 2.895 0 0 1 1.666.425c.511.311.939.773 1.237 1.338.298.565.455 1.211.455 1.87Z" fill="#fff"/><path d="M461.243 311.598a4.04 4.04 0 0 1-.416 1.793 3.47 3.47 0 0 1-1.141 1.328 2.922 2.922 0 0 1-1.568.516 2.89 2.89 0 0 1-1.589-.429 3.399 3.399 0 0 1-1.196-1.263 3.99 3.99 0 0 1-.492-1.768 4.056 4.056 0 0 1 .339-1.814 3.523 3.523 0 0 1 1.083-1.389 2.944 2.944 0 0 1 1.621-.607 2.895 2.895 0 0 1 1.666.425 3.42 3.42 0 0 1 1.237 1.338 4.02 4.02 0 0 1 .456 1.87Zm-15.606 0c0 .628-.143 1.246-.416 1.793a3.477 3.477 0 0 1-1.14 1.328 2.928 2.928 0 0 1-1.569.516 2.886 2.886 0 0 1-1.588-.429 3.399 3.399 0 0 1-1.196-1.263 3.991 3.991 0 0 1-.493-1.768 4.056 4.056 0 0 1 .339-1.814c.25-.562.622-1.04 1.083-1.389a2.947 2.947 0 0 1 1.622-.607 2.895 2.895 0 0 1 1.666.425c.511.311.938.773 1.236 1.338a4.02 4.02 0 0 1 .456 1.87Z" fill="#24A7FF"/><path d="M203.095.594h202.381c3.48 0 6.817 1.57 9.277 4.367 2.461 2.798 3.842 6.59 3.842 10.545V153.32c.001 4.713-1.646 9.233-4.579 12.567-1.451 1.65-3.175 2.959-5.072 3.853a14.026 14.026 0 0 1-5.984 1.353H205.612c-2.06.011-4.102-.44-6.007-1.329-1.906-.888-3.638-2.196-5.097-3.847-1.46-1.653-2.618-3.616-3.409-5.777a19.91 19.91 0 0 1-1.197-6.82V15.507c0-1.965.342-3.91 1.005-5.724a15.183 15.183 0 0 1 2.863-4.847c1.226-1.386 2.681-2.483 4.281-3.228a11.777 11.777 0 0 1 5.044-1.114Z" fill="#3BB0FF"/><path opacity=".2" d="M302.283.594h-99.128c-2.597-.004-5.136.868-7.294 2.507-2.159 1.639-3.841 3.969-4.831 6.695a16.696 16.696 0 0 0-.994 5.71V153.32c.004 4.71 1.653 9.226 4.585 12.557 2.931 3.328 6.906 5.198 11.05 5.198h66.428L302.283.594Z" fill="#fff"/><path d="M189.902 28.657h228.693v155.587c0 3.956-1.381 7.749-3.842 10.545a13.156 13.156 0 0 1-4.256 3.232 11.773 11.773 0 0 1-5.021 1.135H203.095a11.739 11.739 0 0 1-5.044-1.11c-1.6-.744-3.055-1.841-4.28-3.227a15.17 15.17 0 0 1-2.864-4.849 16.668 16.668 0 0 1-1.005-5.726V28.657Z" fill="#D6E0EA"/><path d="M412.341 28.657v155.587c0 1.56-.407 3.084-1.17 4.381-.762 1.297-1.846 2.308-3.113 2.907a6.226 6.226 0 0 1-2.655.599H203.08a6.232 6.232 0 0 1-2.657-.6 6.95 6.95 0 0 1-2.252-1.71 8.02 8.02 0 0 1-1.503-2.559 8.797 8.797 0 0 1-.527-3.018V28.657h216.2Z" fill="#F3F9FF"/><path d="M344.886 143.283v-15.235l-9.232-1.489a36.126 36.126 0 0 0-3.5-9.647l5.57-8.464-9.486-10.867-7.445 6.348a27.307 27.307 0 0 0-8.473-3.978l-1.326-10.443h-13.401l-1.326 10.443a27.307 27.307 0 0 0-8.473 3.978l-7.445-6.348-9.545 10.851 5.584 8.463a34.157 34.157 0 0 0-3.499 9.648l-9.188 1.489v15.233l9.188 1.507a35.29 35.29 0 0 0 3.499 9.698l-5.584 8.465 9.545 10.797 7.445-6.346c2.607 1.87 5.471 3.232 8.473 4.028l1.326 10.444h13.401l1.326-10.444c3.002-.796 5.866-2.158 8.473-4.028l7.445 6.346 9.486-10.797-5.57-8.465a37.514 37.514 0 0 0 3.5-9.631l9.232-1.556Zm-40.607 15.47c-4.023.004-7.956-1.349-11.3-3.888-2.501-1.899-4.6-4.405-6.146-7.336-1.546-2.931-2.5-6.215-2.795-9.616a26.05 26.05 0 0 1 1.09-10.05c1.013-3.218 2.642-6.14 4.768-8.557 2.844-3.231 6.469-5.43 10.414-6.319 3.945-.889 8.034-.428 11.749 1.324 3.715 1.754 6.889 4.72 9.119 8.524 1.853 3.16 2.993 6.791 3.317 10.57a25.986 25.986 0 0 1-1.456 11.1c-1.023 2.795-2.52 5.334-4.406 7.472-1.886 2.138-4.125 3.833-6.588 4.988a18.157 18.157 0 0 1-7.766 1.737v.051Z" fill="#425160"/><path d="M304.219 158.702c-2.669 0-5.313-.598-7.779-1.759s-4.707-2.862-6.594-5.007c-3.813-4.334-5.955-10.211-5.955-16.338 0-6.127 2.142-12.003 5.955-16.337 1.887-2.145 4.128-3.847 6.594-5.009a18.231 18.231 0 0 1 7.779-1.759V89.474h-6.686l-1.325 10.444a27.274 27.274 0 0 0-8.473 3.977l-7.446-6.347-9.545 10.85 5.584 8.463a34.223 34.223 0 0 0-3.499 9.647l-9.187 1.491v15.233l9.187 1.506a35.285 35.285 0 0 0 3.499 9.699l-5.584 8.463 9.545 10.799 7.446-6.347c2.606 1.871 5.47 3.232 8.473 4.028l1.325 10.444h6.686v-23.122Z" fill="#3D4959"/><path d="M394.814 81.62v-10.9l-6.595-1.067a25.082 25.082 0 0 0-2.487-6.872l3.976-5.991-6.761-7.736-5.317 4.52a19.535 19.535 0 0 0-6.045-2.845l-.938-7.43h-9.65l-.938 7.43a19.571 19.571 0 0 0-6.046 2.845l-5.27-4.52-6.806 7.736 3.976 5.991a24.133 24.133 0 0 0-2.501 6.872l-6.553 1.067v10.9l6.553 1.067a24.692 24.692 0 0 0 2.501 6.905l-3.976 6.01 6.806 7.684 5.27-4.52a18.564 18.564 0 0 0 6.046 2.878l.938 7.447h9.59l.938-7.447a18.524 18.524 0 0 0 6.046-2.877l5.317 4.519 6.759-7.685-3.976-6.043a26.002 26.002 0 0 0 2.487-6.871l6.656-1.067Zm-28.948 11.019c-2.867.002-5.67-.962-8.055-2.77s-4.244-4.38-5.342-7.388a18.58 18.58 0 0 1-.828-9.52c.559-3.195 1.939-6.132 3.966-8.437 2.027-2.303 4.61-3.871 7.422-4.506 2.811-.635 5.726-.308 8.374.94 2.649 1.248 4.913 3.362 6.504 6.073 1.59 2.711 2.437 5.897 2.433 9.156a18.35 18.35 0 0 1-1.093 6.299 16.704 16.704 0 0 1-3.136 5.34c-1.345 1.53-2.942 2.741-4.7 3.567a12.965 12.965 0 0 1-5.545 1.246Z" fill="#41566D"/><path d="M276.09 37.239h-72.191v6.821h72.191v-6.82Zm0 16.114h-72.191v6.821h72.191v-6.821Zm0 16.113h-72.191v6.822h72.191v-6.822ZM260.484 85.58h-56.585v6.822h56.585V85.58Zm0 16.115h-56.585v6.822h56.585v-6.822Z" fill="#D6E0EA"/><path d="M364.482 14.88a6.347 6.347 0 0 1-.651 2.83 5.472 5.472 0 0 1-1.794 2.096 4.616 4.616 0 0 1-2.472.82 4.562 4.562 0 0 1-2.505-.672 5.365 5.365 0 0 1-1.889-1.988 6.308 6.308 0 0 1-.78-2.787 6.4 6.4 0 0 1 .532-2.861 5.564 5.564 0 0 1 1.705-2.192 4.627 4.627 0 0 1 2.807-.968 4.608 4.608 0 0 1 2.804.958c.83.628 1.478 1.523 1.859 2.57.253.696.384 1.441.384 2.194Zm20.565 0a6.396 6.396 0 0 1-.484 2.444 5.681 5.681 0 0 1-1.357 1.975 4.84 4.84 0 0 1-1.97 1.128 4.448 4.448 0 0 1-2.204.064c-.977-.22-1.875-.766-2.579-1.566-.704-.8-1.183-1.82-1.376-2.93a6.479 6.479 0 0 1 .055-2.505c.181-.82.519-1.584.991-2.238a5.188 5.188 0 0 1 1.739-1.543 4.54 4.54 0 0 1 2.152-.551c.661 0 1.316.149 1.926.436a5.06 5.06 0 0 1 1.633 1.24 5.819 5.819 0 0 1 1.091 1.857c.253.694.383 1.438.383 2.189Zm20.623 0a6.289 6.289 0 0 1-.849 3.177c-.553.94-1.339 1.674-2.258 2.108-.688.324-1.43.47-2.174.429a4.58 4.58 0 0 1-2.126-.669 5.272 5.272 0 0 1-1.67-1.637 6.117 6.117 0 0 1-.892-2.293 6.459 6.459 0 0 1 .286-3.304c.381-1.045 1.026-1.938 1.854-2.567.968-.736 2.131-1.068 3.29-.938 1.159.13 2.242.712 3.065 1.649.944 1.073 1.474 2.528 1.474 4.045Z" fill="#fff"/><path d="M353.106 174.58c0 .903-.236 1.785-.678 2.536-.442.751-1.07 1.336-1.804 1.682a3.582 3.582 0 0 1-2.323.261c-.78-.176-1.496-.611-2.059-1.249a4.784 4.784 0 0 1-1.101-2.339 5.149 5.149 0 0 1 .23-2.641 4.478 4.478 0 0 1 1.48-2.051 3.688 3.688 0 0 1 2.234-.77c.528 0 1.052.118 1.54.348a4.03 4.03 0 0 1 1.305.99c.373.425.669.929.871 1.483.202.555.306 1.149.305 1.75Zm17.392 0a5.04 5.04 0 0 1-.673 2.552 4.323 4.323 0 0 1-1.277 1.393 3.713 3.713 0 0 1-1.68.636 3.57 3.57 0 0 1-1.757-.242 3.993 3.993 0 0 1-1.497-1.074 4.827 4.827 0 0 1-1.109-2.347 5.158 5.158 0 0 1 .306-2.856c.368-.89.979-1.621 1.742-2.087a3.628 3.628 0 0 1 2.494-.497c.857.143 1.651.594 2.264 1.288.756.857 1.183 2.02 1.187 3.234Zm19.03 0a7.182 7.182 0 0 1-.541 2.767 6.423 6.423 0 0 1-1.531 2.239 5.477 5.477 0 0 1-2.227 1.279 5.034 5.034 0 0 1-2.495.074c-1.106-.249-2.121-.865-2.918-1.77-.796-.905-1.338-2.059-1.555-3.315a7.292 7.292 0 0 1 .327-3.739c.432-1.182 1.164-2.191 2.101-2.901.938-.71 2.04-1.087 3.166-1.083 1.506.001 2.949.68 4.012 1.89 1.064 1.209 1.662 2.849 1.661 4.559Zm15.74 0a5.03 5.03 0 0 1-.673 2.552c-.441.757-1.07 1.348-1.807 1.698-.737.35-1.55.443-2.334.267a3.837 3.837 0 0 1-1.698-.878 4.546 4.546 0 0 1-1.169-1.652 5.131 5.131 0 0 1-.39-2.072 5.086 5.086 0 0 1 .471-2.051 4.46 4.46 0 0 1 1.233-1.591 3.791 3.791 0 0 1 1.731-.791 3.576 3.576 0 0 1 1.859.177 3.993 3.993 0 0 1 1.591 1.107c.755.858 1.182 2.02 1.186 3.234Zm-193.909 0a5.02 5.02 0 0 1-.673 2.552 4.3 4.3 0 0 1-1.277 1.393 3.709 3.709 0 0 1-1.679.636 3.572 3.572 0 0 1-1.758-.242 3.982 3.982 0 0 1-1.496-1.074 4.81 4.81 0 0 1-1.109-2.347 5.149 5.149 0 0 1 .305-2.856c.369-.89.98-1.621 1.743-2.087a3.627 3.627 0 0 1 2.494-.497c.856.143 1.65.594 2.264 1.288.756.858 1.182 2.02 1.186 3.234Zm17.378 0c0 .789-.181 1.564-.523 2.251a4.356 4.356 0 0 1-1.432 1.665 3.668 3.668 0 0 1-1.969.648 3.643 3.643 0 0 1-1.994-.539 4.274 4.274 0 0 1-1.501-1.585 5.01 5.01 0 0 1-.618-2.22 5.083 5.083 0 0 1 .425-2.277 4.443 4.443 0 0 1 1.358-1.744c.773-.587 1.702-.852 2.628-.748.925.104 1.791.569 2.448 1.317.754.857 1.178 2.019 1.178 3.232Zm17.377 0a5.05 5.05 0 0 1-.523 2.251 4.347 4.347 0 0 1-1.432 1.665 3.668 3.668 0 0 1-1.968.648 3.638 3.638 0 0 1-1.994-.539 4.276 4.276 0 0 1-1.502-1.585 5.023 5.023 0 0 1-.618-2.22 5.097 5.097 0 0 1 .425-2.277 4.436 4.436 0 0 1 1.359-1.744c.773-.588 1.702-.852 2.628-.748.926.103 1.791.569 2.449 1.317.753.857 1.177 2.02 1.176 3.232Zm17.393 0a5.049 5.049 0 0 1-.674 2.554c-.442.756-1.072 1.347-1.81 1.697a3.599 3.599 0 0 1-2.335.264 3.92 3.92 0 0 1-2.07-1.255 4.806 4.806 0 0 1-1.104-2.352 5.174 5.174 0 0 1 .233-2.653 4.514 4.514 0 0 1 1.492-2.057 3.707 3.707 0 0 1 2.247-.769c.529 0 1.052.118 1.54.347.489.23.932.566 1.306.991.373.424.669.928.871 1.483.202.555.305 1.149.304 1.75Z" fill="#24A7FF"/><path d="M175.487 44.89V32.347l-7.579-1.235a29.265 29.265 0 0 0-2.859-7.904l4.571-6.906-7.772-8.887-6.135 5.197a22.054 22.054 0 0 0-6.954-3.268L147.686.78h-11.033l-1.088 8.564a22.334 22.334 0 0 0-6.954 3.267l-6.076-5.197-7.818 8.92 4.572 6.907a28.283 28.283 0 0 0-2.873 7.905l-7.534 1.236v12.543l7.534 1.218a28.78 28.78 0 0 0 2.873 7.954l-4.572 6.907 7.818 8.852 6.076-5.197a21.688 21.688 0 0 0 6.954 3.302l1.088 8.564h11.033l1.073-8.565a21.412 21.412 0 0 0 6.954-3.3l6.135 5.196 7.772-8.852-4.571-6.957a30.115 30.115 0 0 0 2.859-7.904l7.579-1.253Zm-33.296 9.427c-2.735.004-5.41-.916-7.686-2.641-2.275-1.726-4.048-4.18-5.094-7.051a17.63 17.63 0 0 1-1.037-6.785c.1-2.32.652-4.587 1.617-6.636.964-2.05 2.317-3.83 3.96-5.214 1.643-1.383 3.536-2.336 5.543-2.788 2.683-.605 5.464-.29 7.99.904 2.525 1.194 4.682 3.213 6.196 5.8 1.515 2.59 2.321 5.63 2.316 8.738.001 2.06-.354 4.1-1.048 6.004a15.96 15.96 0 0 1-2.992 5.09c-1.282 1.456-2.805 2.61-4.48 3.396a12.358 12.358 0 0 1-5.285 1.184Z" fill="#E4EFF7"/><path d="M518.93 218.165v-10.867l-6.552-1.067a25.257 25.257 0 0 0-2.487-6.77l3.962-5.992-6.746-7.702-5.301 4.503a19.352 19.352 0 0 0-5.957-2.826l-.938-7.415h-9.56l-.938 7.415a19.547 19.547 0 0 0-5.957 2.826l-5.256-4.503-6.79 7.702 3.976 5.992a23.869 23.869 0 0 0-2.487 6.77l-6.536 1.067v10.867l6.536 1.067a24.725 24.725 0 0 0 2.487 6.871l-3.976 5.992 6.79 7.668 5.256-4.52a18.543 18.543 0 0 0 5.957 2.878l.938 7.414h9.56l.938-7.414a18.37 18.37 0 0 0 5.957-2.878l5.301 4.52 6.746-7.668-3.947-6.026a26.564 26.564 0 0 0 2.487-6.77l6.537-1.134Zm-28.844 8.158c-2.357 0-4.661-.794-6.62-2.282-1.959-1.488-3.485-3.603-4.385-6.078a15.178 15.178 0 0 1-.892-5.844 14.979 14.979 0 0 1 1.392-5.717c.83-1.765 1.994-3.3 3.409-4.493 1.414-1.193 3.044-2.016 4.772-2.408a10.595 10.595 0 0 1 6.884.771c2.177 1.025 4.037 2.761 5.345 4.987 1.531 2.605 2.221 5.733 1.95 8.85-.27 3.117-1.482 6.032-3.431 8.248a11.926 11.926 0 0 1-3.865 2.935 10.688 10.688 0 0 1-4.559 1.031Z" fill="#DDE9F2"/><path d="M435.884 466.999v-7.194l-4.334-.711a16.176 16.176 0 0 0-1.652-4.52l2.635-3.96-4.467-5.079-3.514 2.996a12.419 12.419 0 0 0-3.976-1.878l-.626-4.908h-6.313l-.626 4.908a12.573 12.573 0 0 0-3.99 1.878l-3.47-2.996-4.468 5.079 2.637 3.96a15.746 15.746 0 0 0-1.653 4.52l-4.318.711v7.176l4.318.711a16.44 16.44 0 0 0 1.653 4.554l-2.637 3.96 4.468 5.079 3.47-2.996a12.381 12.381 0 0 0 3.99 1.912l.626 4.909h6.313l.626-4.909a12.171 12.171 0 0 0 3.976-1.912l3.454 3.012 4.468-5.077-2.636-3.978a17.342 17.342 0 0 0 1.653-4.537l4.393-.71Zm-19.075 5.415c-1.569.004-3.103-.521-4.408-1.509-1.306-.989-2.323-2.395-2.924-4.041a10.159 10.159 0 0 1-.453-5.206c.305-1.748 1.06-3.354 2.168-4.615 1.108-1.261 2.521-2.12 4.059-2.467a7.035 7.035 0 0 1 4.581.518c1.45.683 2.687 1.84 3.557 3.324.869 1.483 1.331 3.227 1.327 5.009a10.058 10.058 0 0 1-.597 3.442 9.135 9.135 0 0 1-1.715 2.918 7.893 7.893 0 0 1-2.567 1.948 7.06 7.06 0 0 1-3.028.679Z" fill="#E4EFF7"/><path d="M249.316 517.506c0-4.958 2.338-7.786 5.481-7.786 3.141 0 5.464 2.828 5.464 7.786 0 4.96-2.338 7.803-5.464 7.803-3.128 0-5.481-2.877-5.481-7.803Zm9.024 0c0-3.893-1.489-5.855-3.543-5.855-2.056 0-3.559 1.962-3.559 5.855 0 3.893 1.489 5.857 3.559 5.857 2.068 0 3.528-1.946 3.528-5.857h.015Zm3.753 0c0-4.958 2.337-7.786 5.479-7.786 3.143 0 5.45 2.828 5.45 7.786 0 4.96-2.337 7.803-5.45 7.803-3.112 0-5.479-2.877-5.479-7.803Zm8.934 0c0-3.893-1.489-5.855-3.529-5.855-2.041 0-3.574 1.962-3.574 5.855 0 3.893 1.489 5.857 3.574 5.857s3.604-1.946 3.604-5.857h-.075Zm7.936-7.617v15.234h-1.89v-13.355h-2.979v-1.895l4.869.016Zm2.935 7.617c0-4.958 2.337-7.786 5.479-7.786 3.143 0 5.465 2.828 5.465 7.786 0 4.96-2.338 7.803-5.465 7.803s-5.479-2.877-5.479-7.803Zm9.023 0c0-3.893-1.489-5.855-3.544-5.855-2.054 0-3.559 1.962-3.559 5.855 0 3.893 1.489 5.857 3.559 5.857 2.07 0 3.544-1.946 3.544-5.857Zm7.863-7.617v15.234h-1.817v-13.355h-2.979v-1.895l4.796.016Zm2.933 7.617c0-4.958 2.338-7.786 5.479-7.786 3.143 0 5.451 2.828 5.451 7.786 0 4.96-2.338 7.803-5.451 7.803-3.111 0-5.479-2.877-5.479-7.803Zm9.024 0c0-3.893-1.489-5.855-3.545-5.855-2.054 0-3.573 1.962-3.573 5.855 0 3.893 1.489 5.857 3.573 5.857 2.086 0 3.545-1.946 3.545-5.857Zm7.848-7.617v15.234h-1.892v-13.355h-2.977v-1.895l4.869.016ZM45.312 244.502c0-6.246 2.978-9.8 6.88-9.8 3.9 0 6.864 3.554 6.864 9.8s-2.978 9.783-6.865 9.783-6.88-3.554-6.88-9.783Zm11.332 0c0-4.891-1.832-7.363-4.468-7.363-2.635 0-4.467 2.472-4.467 7.363 0 4.892 1.832 7.363 4.467 7.363 2.636 0 4.438-2.471 4.438-7.363h.03Zm4.69 0c0-6.246 2.979-9.8 6.895-9.8 3.916 0 6.849 3.554 6.849 9.8s-2.977 9.783-6.85 9.783c-3.871 0-6.894-3.554-6.894-9.783Zm11.332 0c0-4.891-1.817-7.363-4.468-7.363-2.65 0-4.466 2.472-4.466 7.363 0 4.892 1.831 7.363 4.466 7.363 2.637 0 4.468-2.471 4.468-7.363Zm9.873-9.58v19.143h-2.383v-16.757h-3.797v-2.386h6.18Zm3.692 9.58c0-6.246 2.979-9.8 6.88-9.8s6.865 3.554 6.865 9.8-2.978 9.783-6.865 9.783c-3.886 0-6.88-3.554-6.88-9.783Zm11.332 0c0-4.891-1.816-7.363-4.466-7.363-2.65 0-4.468 2.472-4.468 7.363 0 4.892 1.831 7.363 4.468 7.363 2.635 0 4.466-2.471 4.466-7.363Zm9.873-9.58v19.143h-2.383v-16.757h-3.798v-2.386h6.181Zm8.92 0v19.143h-2.383v-16.757h-3.812v-2.386h6.195Zm3.678 9.58c0-6.246 2.978-9.8 6.88-9.8 3.901 0 6.864 3.554 6.864 9.8s-2.978 9.783-6.864 9.783c-3.887 0-6.88-3.554-6.88-9.783Zm11.332 0c0-4.891-1.817-7.363-4.468-7.363-2.65 0-4.466 2.472-4.466 7.363 0 4.892 1.831 7.363 4.466 7.363 2.636 0 4.468-2.471 4.468-7.363Zm4.78 0c0-6.246 2.978-9.8 6.879-9.8 3.901 0 6.85 3.554 6.85 9.8s-2.978 9.783-6.85 9.783c-3.871 0-6.879-3.554-6.879-9.783Zm11.331 0c0-4.891-1.831-7.363-4.466-7.363-2.636 0-4.468 2.472-4.468 7.363 0 4.892 1.832 7.363 4.468 7.363 2.635 0 4.422-2.471 4.422-7.363h.044Zm4.677 0c0-6.246 2.978-9.8 6.879-9.8 3.902 0 6.864 3.554 6.864 9.8s-2.977 9.783-6.864 9.783c-3.886 0-6.879-3.554-6.879-9.783Zm11.332 0c0-4.891-1.817-7.363-4.468-7.363s-4.467 2.472-4.467 7.363c0 4.892 1.832 7.363 4.467 7.363 2.636 0 4.468-2.471 4.468-7.363Zm9.887-9.58v19.143h-2.382v-16.757h-3.798v-2.386h6.18Zm3.678 9.58c0-6.246 2.978-9.8 6.879-9.8 3.902 0 6.866 3.554 6.866 9.8s-2.979 9.783-6.866 9.783c-3.886 0-6.879-3.554-6.879-9.783Zm11.332 0c0-4.891-1.832-7.363-4.467-7.363-2.636 0-4.467 2.472-4.467 7.363 0 4.892 1.831 7.363 4.467 7.363 2.635 0 4.467-2.471 4.467-7.363Zm9.873-9.58v19.143h-2.383v-16.757h-3.797v-2.386h6.18Zm112.56 32.092c0-6.246 2.977-9.801 6.88-9.801 3.901 0 6.864 3.555 6.864 9.801s-2.979 9.784-6.864 9.784c-3.887 0-6.88-3.554-6.88-9.784Zm11.332 0c0-4.908-1.833-7.363-4.468-7.363s-4.467 2.455-4.467 7.363c0 4.909 1.832 7.346 4.467 7.346s4.468-2.437 4.468-7.346Zm9.872-9.581v19.144h-2.382v-16.756h-3.798v-2.388h6.18Zm8.905 0v19.144h-2.383v-16.756h-3.797v-2.388h6.18Zm3.692 9.581c0-6.246 2.979-9.801 6.88-9.801s6.865 3.555 6.865 9.801-2.978 9.784-6.865 9.784c-3.886 0-6.88-3.554-6.88-9.784Zm11.332 0c0-4.908-1.831-7.363-4.466-7.363-2.637 0-4.468 2.455-4.468 7.363 0 4.909 1.817 7.346 4.468 7.346 2.65 0 4.466-2.437 4.466-7.346Zm4.721 0c0-6.246 2.978-9.801 6.895-9.801 3.916 0 6.849 3.555 6.849 9.801s-2.978 9.784-6.849 9.784c-3.872 0-6.895-3.554-6.895-9.784Zm11.347 0c0-4.908-1.831-7.363-4.468-7.363-2.635 0-4.466 2.455-4.466 7.363 0 4.909 1.831 7.346 4.466 7.346 2.637 0 4.468-2.437 4.468-7.346Zm4.72 0c0-6.246 2.979-9.801 6.88-9.801s6.865 3.555 6.865 9.801-2.978 9.784-6.865 9.784-6.88-3.554-6.88-9.784Zm11.332 0c0-4.908-1.831-7.363-4.467-7.363-2.636 0-4.467 2.455-4.467 7.363 0 4.909 1.831 7.346 4.467 7.346 2.636 0 4.467-2.437 4.467-7.346Zm47.085-229.775a5.1 5.1 0 0 1-.386 1.953 4.528 4.528 0 0 1-1.084 1.578 3.865 3.865 0 0 1-1.573.9 3.558 3.558 0 0 1-1.762.051c-.978-.223-1.847-.851-2.441-1.762-.593-.91-.867-2.039-.77-3.166.098-1.128.561-2.174 1.299-2.936.738-.762 1.699-1.185 2.696-1.188 1.067 0 2.09.482 2.844 1.34.754.856 1.177 2.018 1.177 3.23Zm17.392 0a5.115 5.115 0 0 1-.382 1.964 4.562 4.562 0 0 1-1.086 1.59c-.461.432-1 .743-1.58.909a3.566 3.566 0 0 1-1.77.053c-.785-.176-1.505-.613-2.071-1.255a4.81 4.81 0 0 1-1.105-2.353 5.186 5.186 0 0 1 .234-2.653 4.52 4.52 0 0 1 1.492-2.06 3.701 3.701 0 0 1 2.248-.765 3.61 3.61 0 0 1 1.539.348c.488.23.931.567 1.305.991.373.424.669.928.871 1.483.202.554.305 1.148.305 1.748Zm19.046 0a7.163 7.163 0 0 1-.739 3.186 6.167 6.167 0 0 1-2.026 2.357 5.2 5.2 0 0 1-2.786.917 5.148 5.148 0 0 1-2.822-.762c-.867-.526-1.598-1.3-2.124-2.243a7.09 7.09 0 0 1-.875-3.14 7.199 7.199 0 0 1 .602-3.224 6.268 6.268 0 0 1 1.922-2.467c1.094-.831 2.408-1.206 3.718-1.059 1.31.147 2.534.806 3.464 1.864 1.067 1.213 1.666 2.857 1.666 4.572v-.001Zm15.725 0a5.101 5.101 0 0 1-.385 1.962 4.548 4.548 0 0 1-1.086 1.586c-.461.43-1 .74-1.579.905a3.568 3.568 0 0 1-1.769.052 3.813 3.813 0 0 1-1.617-.814 4.46 4.46 0 0 1-1.156-1.521 5.138 5.138 0 0 1-.169-3.917 4.588 4.588 0 0 1 1.169-1.788 3.856 3.856 0 0 1 1.774-.952 3.571 3.571 0 0 1 1.958.11 3.978 3.978 0 0 1 1.683 1.145c.753.858 1.177 2.02 1.177 3.232ZM195.412 448.244a5.112 5.112 0 0 1 .381-1.964 4.559 4.559 0 0 1 1.084-1.589 3.88 3.88 0 0 1 1.578-.91 3.574 3.574 0 0 1 1.77-.055c.784.175 1.504.611 2.07 1.252.422.479.746 1.059.948 1.698.202.638.276 1.32.219 1.995a5.035 5.035 0 0 1-.553 1.91 4.394 4.394 0 0 1-1.218 1.459 3.7 3.7 0 0 1-2.244.774 3.68 3.68 0 0 1-2.242-.764 4.472 4.472 0 0 1-1.486-2.053 5.121 5.121 0 0 1-.307-1.753Zm-17.378 0a5.074 5.074 0 0 1 .523-2.251 4.351 4.351 0 0 1 1.432-1.666 3.67 3.67 0 0 1 1.969-.648 3.638 3.638 0 0 1 1.994.539c.613.372 1.13.918 1.501 1.585.372.667.585 1.432.619 2.22a5.104 5.104 0 0 1-.426 2.278 4.428 4.428 0 0 1-1.358 1.743c-.773.588-1.702.852-2.628.749-.926-.104-1.792-.569-2.449-1.317-.754-.858-1.177-2.02-1.177-3.232Zm-19.046 0c0-1.117.255-2.214.74-3.186a6.156 6.156 0 0 1 2.026-2.358 5.212 5.212 0 0 1 2.785-.917 5.147 5.147 0 0 1 2.822.763c.867.526 1.599 1.299 2.125 2.243.525.943.827 2.025.874 3.141a7.208 7.208 0 0 1-.601 3.222 6.276 6.276 0 0 1-1.923 2.468c-1.093.832-2.407 1.206-3.717 1.06-1.31-.147-2.535-.805-3.464-1.864-1.067-1.213-1.667-2.858-1.667-4.572Zm-15.724 0a5.029 5.029 0 0 1 .673-2.555c.442-.758 1.073-1.348 1.811-1.697a3.625 3.625 0 0 1 1.744-.343 3.67 3.67 0 0 1 1.705.538c.527.32.984.769 1.339 1.314.356.545.6 1.173.716 1.838a5.19 5.19 0 0 1-.046 2.01 4.84 4.84 0 0 1-.798 1.794 4.149 4.149 0 0 1-1.397 1.234 3.64 3.64 0 0 1-1.727.437c-1.067-.002-2.089-.484-2.843-1.341-.753-.856-1.177-2.018-1.177-3.229Z" fill="#DDE9F2"/><path d="M403.392 280.691h-6.834v4.586h6.834v-4.586Zm0-8.617h-6.834v4.588h6.834v-4.588Zm0-8.615h-6.834v4.587h6.834v-4.587Zm0-8.615h-6.834v4.587h6.834v-4.587Zm0-8.616h-6.834v4.588h6.834v-4.588Zm0-8.615h-6.834v4.587h6.834v-4.587Zm0-8.615h-6.834v4.587h6.834v-4.587Zm0-8.616h-6.834v4.586h6.834v-4.586Zm0-8.615h-6.834v4.586h6.834v-4.586Zm0-8.615h-6.834v4.586h6.834v-4.586Zm-95.689 77.539h-6.835v4.586h6.835v-4.586Zm0-8.617h-6.835v4.588h6.835v-4.588Zm0-8.615h-6.835v4.587h6.835v-4.587Zm0-8.615h-6.835v4.587h6.835v-4.587Zm0-8.616h-6.835v4.588h6.835v-4.588Zm0-8.615h-6.835v4.587h6.835v-4.587Zm0-8.615h-6.835v4.587h6.835v-4.587Zm0-8.616h-6.835v4.586h6.835v-4.586Zm0-8.615h-6.835v4.586h6.835v-4.586Zm0-8.615h-6.835v4.586h6.835v-4.586ZM212 280.691h-6.835v4.586H212v-4.586Zm0-8.617h-6.835v4.588H212v-4.588Zm0-8.615h-6.835v4.587H212v-4.587Zm0-8.615h-6.835v4.587H212v-4.587Zm0-8.616h-6.835v4.588H212v-4.588Zm0-8.615h-6.835v4.587H212v-4.587Zm0-8.615h-6.835v4.587H212v-4.587Zm0-8.616h-6.835v4.586H212v-4.586Zm0-8.615h-6.835v4.586H212v-4.586Zm0-8.615h-6.835v4.586H212v-4.586Z" fill="#55738E"/></svg>