<svg width="549" height="400" viewBox="0 0 549 400" fill="none" xmlns="http://www.w3.org/2000/svg"><path d="M488.312 144.781c-15.012 21.71-40.252 34.61-66.626 34.61-42.848 0-80.95-35.709-80.95-82.44 0-38.543 19.314-66.187 45.895-78.916a80.001 80.001 0 0 1 22.942-6.973 83.12 83.12 0 0 1 12.113-.888c10.356 0 20.618 2.23 30.187 6.56 28.362 12.798 48.998 42.948 50.431 78.048.797 19.446-4.604 36.442-13.992 50.003v-.004Z" fill="#657285"/><path d="M377.061 102.213s3.028 7.634 0 11.83c-3.019 4.195-3.288 12.132 2.759 17.374 6.036 5.238 8.641 5.692 7.269 10.93-1.376 5.243-2.809 11.645-.549 14.34 2.264 2.699 3.19 9.101 8.24 9.573 5.049.469-.405-4.384 2.887-8.881 3.304-4.491 16.063-5.386 14.831-14.261-1.232-8.874 10.511-9.664 12.155-15.503 1.659-5.843-5.348-9.434-11.225-8.988-5.885.45-2.271-9.547-8.655-11.01-6.387-1.459-9.377-7.071-13.081-6.398-3.704.672-7.824-5.057-12.057-3.258-4.221 1.799-2.574 4.248-2.574 4.248v.004ZM366.35 41.098s-4.392 3.745-5.616 9.736c-1.221 5.99-7.419 9.736-8.379 17.99-.96 8.262 3.401 8.466 1.859 12.957-1.546 4.497.374 6.742 5.076 8.991 4.706 2.245 5.121 5.7 7.899 6.837 2.786 1.134 2.056 4.169 2.986 4.505.93.34.514-2.298 1.486-5.745.96-3.443 1.776-4.868-1.716-4.716-3.504.15-2.415-2.922-1.044-4.868 1.376-1.943-1.916-2.245-3.016-1.947-1.099.299-.82 5.84-3.091 3.217-2.268-2.62-3.364-5.613-1.512-9.06 1.856-3.443 5.835-.597 8.663-4.717 2.815-4.12 6.791-2.472 7.014.824.223 3.296 5.836 3.368 6.796-.971.968-4.347.556-11.91 6.319-13.142 5.775-1.236 17.114-7.528 9.895-10.114-7.207-2.581-4.331-7.974-8.035-7.653-3.704.321-2.264 6.402-6.391 4.592-4.12-1.81-7.106-6.626-1.334-7.975 5.775-1.346 8.137-8.311 3.703-7.861-4.429.446-5.147-4.271-7.823-3.704-2.684.56-5.462 7.653-8.24 9.43a251.39 251.39 0 0 1-5.499 3.397v-.003Zm37.153-13.852s5.707-1.724 8.179 0c2.472 1.723 6.319 6.587 3.088 8.39-3.232 1.795-6.603 2.393-5.016 5.76 1.573 3.372-4.535 4.498-6.251 0-1.716-4.494-1.716-6.123-3.504-8.24-1.795-2.108-1.028-6.583 3.504-5.91Zm84.809 117.535c-23.577-6.742-4.018-17.329-12.287-29.51-4.706-6.936 3.673-15.288-1.686-16.441-3.111-.662-10.269 8.001-14.389 0-4.127-7.994-11.497-8.035-13.648-3.198-2.143 4.838-11.187 8.191-17.121 4.683-5.93-3.51-2.494-8.194-7.635-11.867-5.128-3.678-5.514-9.525 0-14.038 5.519-4.512 2.986-11.036 11.263-9.029 8.281 2.007 6.679-18.803 6.679-18.803-.132-3.64 3.099-4.263 1.258-7.657-1.836-3.39-7.014-.628-9.77-8.149-2.759-7.521 4.37-12.038 10.114-11.3 1.679.215 5.745-1.067 10.795-2.737 28.369 12.794 49.005 42.943 50.441 78.047.775 19.446-4.626 36.442-14.014 50.003v-.004Z" fill="#B8C1C9"/><path d="M378.747 85.02s4.755-2.888 7.28-.594c2.532 2.298 3.624 3.829 7.351 2.96 3.734-.87 6.27.767 3.866 1.965-2.404 1.206-8.077 3.288-10.662.794-2.596-2.495-10.065-4.12-7.835-5.126Zm19.151 9.331s3.375.654 4.161-.858c.779-1.512-.786-.064-2.078-.854-1.293-.79-3.769 0-2.079 1.712h-.004Z" fill="#B8C1C9"/><path d="M276.341 399.548c146.721 0 265.663-13.058 265.663-29.159 0-16.105-118.942-29.163-265.663-29.163S10.678 354.284 10.678 370.389c0 16.101 118.942 29.159 265.663 29.159Z" fill="#EAEAEA"/><path opacity=".6" d="M408.651 234.572c30.391-33.873 73.039-73.883 91.593-55.949 22.363 21.627-31.945 48.832-72.783 76.694-14.649 9.997-38.184.847-18.81-20.745Z" fill="#D5D6DA"/><path d="M371.094 248.658s155.13-65.461 175.604-13.138c20.474 52.324-116.016 15.598-160.43 36.405l-15.174-23.267Z" fill="#B8C1C9"/><path d="M379.484 261.739c30.421-14.975 67.948-19.714 94.076-21.056 28.32-1.451 49.694.673 49.905.692l.121-1.444c-.2-.026-21.675-2.154-50.086-.703-26.241 1.346-63.95 6.123-94.571 21.18l.555 1.331Z" fill="#fff"/><path d="M477.691 356.45c-19.464-9.502-35.368 20.466-51.046-.026-13.247-17.337-13.512-20.058-22.545-19.465a30.424 30.424 0 0 0-9.071 2.075c-3.5 1.361-9.418 2.759-14.967-.246-33.917-18.33-42.334-99.696 7.004-101.272 3.564-.114 7.37 1.784 11.418 4.086 22.053 12.491 21.547 27.337 54.27 14.407 32.719-12.933 29.299 40.479 43.434 49.833 14.124 9.355 28.751 14.4 28.751 38.003s-27.783 22.122-47.248 12.605Z" fill="#D5D6DA"/><g opacity=".5" fill="#fff"><path d="m372.881 280.432.049-1.53c.616.026 62.843 3.583 151.457 71.206l-.808 1.247c-88.271-67.362-150.093-70.896-150.698-70.923Zm78.924 6.773c-3.889-20.488.121-31.064.303-31.506l1.281.605c-.03.102-3.999 10.624-.212 30.591l-1.372.31Z"/><path d="M444.828 302.097c.957-8.807 7.287-17.488 18.312-25.146a91.056 91.056 0 0 1 16.43-8.968l.472 1.436c-.313.125-31.619 12.635-33.823 32.859l-1.391-.181Zm24.371 16.233c-.526-2.343-.707-3.746-.726-3.829l1.402-.208c.038.295 4.109 29.858 27.625 47.535l-.798 1.255c-18.962-14.23-25.545-36.011-27.503-44.749v-.004Z"/><path d="M461.273 355.894c-.937-10.594 1.867-18.171 4.384-22.665 2.744-4.895 5.685-7.246 5.806-7.344l.816 1.251c-.113.087-11.35 9.23-9.623 28.622l-1.383.136Z"/></g><path d="M110.14 14.913s4.913-10.307 17.34-9.018c12.424 1.293 10.946 11.622 16.849 10.655 5.904-.968 14.2 0 15.977 6.455 1.776 6.452 9.762 2.903 10.061 8.39.298 5.485-9.173 9.366-20.123 4.52-10.949-4.84-16.27 3.761-31.657 2.204-15.386-1.56-17.291-3.496-26.4-2.528-9.105.967-8.89-5.832-4.743-10.337 4.142-4.505 20.919-4.105 22.696-10.34Z" fill="#EAEAEA"/><path opacity=".6" d="M172.438 48.823s2.559-5.356 9.025-4.687c6.467.67 5.7 6.048 8.776 5.541 3.081-.503 7.37 0 8.315 3.364.938 3.364 5.08 1.53 5.235 4.365.155 2.839-4.774 4.872-10.469 2.351-5.7-2.517-8.474 1.962-16.479 1.15-8.009-.813-8.995-1.815-13.735-1.316-4.739.499-4.634-3.035-2.457-5.386 2.17-2.35 10.87-2.124 11.793-5.382h-.004Z" fill="#EAEAEA"/><path d="M97.565 83.42c-2.838 3.618-4.74 3.709-6.04 2.495-1.3-1.21-1.511-3.277 1.331-6.89 5.178-6.591 10.035-7.578 10.035-7.578s-.068 5.28-5.326 11.974Zm9.049 29.262c-1.618 4.429-3.387 5.185-4.978 4.498-1.587-.692-2.4-2.571-.786-6.996 2.94-8.066 7.245-10.72 7.245-10.72s1.501 5.035-1.481 13.218Zm22.337 76.611-.798.215c-.03-.136-3.212-13.697-13.387-31.491-9.381-16.418-26.8-39.904-56.52-58.571l.417-.767c29.865 18.758 47.395 42.376 56.814 58.889 10.253 17.915 13.477 31.585 13.477 31.721l-.003.004Z" fill="#D5D6DA"/><path d="m90.275 124.448-.805-.216c7.079-31.831-12.152-60.03-12.348-60.314l.661-.54c.193.28 19.665 28.811 12.492 61.07Zm-16.147-9.396a26.911 26.911 0 0 1-15.397.877l.208-.87c.098.027 9.543 2.684 18.406-2.517l.39.794a23.36 23.36 0 0 1-3.606 1.716Zm47.452 55.51c-16.69 4.044-32.409.381-46.71-10.848a11.752 11.752 0 0 0-1.082-.808.2.2 0 0 0 .091 0v-.9c.25 0 .454.151 1.485.964 14.102 11.104 29.594 14.683 46.046 10.719l.17.873Z" fill="#D5D6DA"/><path d="m95.955 169.919-.824.061c-.756-12.216-12.775-26.079-12.9-26.215l.606-.624a74.558 74.558 0 0 1 6.25 8.61c2.922 4.649 6.475 11.599 6.868 18.168Zm-39.7-75.012c5.42 2.513 6.49 4.656 5.82 6.376-.668 1.72-2.808 2.362-8.25-.151-9.876-4.596-13.436-9.914-13.436-9.914s5.839-.96 15.866 3.689Zm3.7 17.465c5.866.616 7.476 2.298 7.314 4.165-.167 1.871-2.041 3.186-7.907 2.57-10.685-1.122-15.557-5.027-15.557-5.027s5.307-2.857 16.15-1.708Z" fill="#D5D6DA"/><path d="M83.702 140.117c3.156 3.289 3.133 5.36 1.95 6.717-1.183 1.36-3.084 1.462-6.24-1.83-5.752-6.001-6.387-11.346-6.387-11.346s4.838.367 10.677 6.459Zm-5.866-41.669c2.328 4.029 1.845 6.036.393 7.03-1.447.998-3.31.605-5.642-3.443-4.241-7.347-3.667-12.7-3.667-12.7s4.611 1.656 8.92 9.11l-.004.003Zm27.047 63.069c1.198 4.592.219 6.361-1.437 6.89-1.648.529-3.333-.438-4.528-5.023-2.177-8.352-.245-13.311-.245-13.311s4.002 2.97 6.21 11.444Zm-26.722-3.885c3.73 2.479 4.12 4.509 3.228 6.104-.892 1.599-2.721 2.154-6.455-.329-6.8-4.52-8.467-9.57-8.467-9.57s4.8-.79 11.694 3.795Zm.178-98.328c3.16 5.42 2.937 7.846 1.493 8.847-1.444 1.006-3.56.205-6.724-5.215-5.767-9.876-5.938-16.46-5.938-16.46s5.322 2.808 11.169 12.828Zm114.153 247.801s-84.2-151.325-120.994-124.868c-36.794 26.456 77.019 87.768 100.252 132.661l20.742-7.793Z" fill="#D5D6DA"/><path d="M153.313 280.111S56.399 168.01 23.147 199.921c-33.253 31.907 83.69 58.28 110.721 91.956l19.445-11.766Z" fill="#EAEAEA"/><path d="M142.485 286.797c-18.293-23.626-45.46-42.244-65.03-53.703-21.219-12.416-38.314-19.321-38.484-19.389l.393-1.153c.17.072 17.34 7.007 38.612 19.468 19.661 11.509 46.957 30.214 65.363 53.976l-.854.801Z" fill="#fff"/><path d="M37.497 323.629c21.808 4.626 18.898 40.55 43.51 33.328 24.613-7.219 22.53-8.916 34.659 2.532 0 0 4.852 11.217 14.74 12.877 38.967 6.538 90.844-57.306 49.666-90.875-2.974-2.419-7.249-3.285-11.977-3.98-25.655-3.765-33.373 9.222-54.153-23.172-20.776-32.395-47.21 15.344-64.388 14.082-17.178-1.262-32.402-6.508-45.377 13.606-12.975 20.107 11.509 36.998 33.32 41.602Z" fill="#B8C1C9"/><path d="m168.575 327.333.786-1.342c-.536-.382-55.521-38.007-168.17-38.283v1.599c112.226.272 166.84 37.644 167.384 38.022v.004Zm-70.98-45.793c14.567-14.929 16.959-26.555 17.054-27.039l-1.436-.333c-.019.114-2.419 11.672-16.619 26.208l1.002 1.164Z" fill="#fff"/><path d="M95.358 298.786c4.018-8.119 3.402-19.665-1.791-33.392a109.61 109.61 0 0 0-9.071-18.376l-1.198.914c.2.314 20.012 31.435 10.775 50.098l1.285.756Zm-29.684-2.083c1.734-1.655 2.672-2.728 2.713-2.778l-1.054-1.084c-.197.226-19.907 22.745-49.652 22.458v1.595c23.944.23 41.522-14.03 47.993-20.191Z" fill="#fff"/><path d="M51.791 333.883c6.619-8.425 8.395-16.706 8.72-22.179.351-5.96-.87-9.887-.919-10.053l-1.383.521c.045.151 4.596 15.273-7.529 30.671l1.111 1.04Z" fill="#fff"/><path d="M329.073 327.597v-48.926H238.58v48.926c0 12.711-7.76 23.017-17.33 23.017h-3.647v6.316h132.45v-6.316h-3.644c-9.573 0-17.336-10.306-17.336-23.017Z" fill="#00A3FE"/><path d="M349.305 356.93H218.344a2.777 2.777 0 0 1-2.046-.924 3.31 3.31 0 0 1-.849-2.232 3.315 3.315 0 0 1 .849-2.233c.543-.592 1.278-.925 2.046-.926h130.961c.38-.002.757.079 1.109.238.352.158.672.391.941.684a3.2 3.2 0 0 1 .629 1.026c.145.384.22.796.219 1.211 0 .835-.302 1.64-.846 2.23a2.88 2.88 0 0 1-.941.687c-.353.159-.73.24-1.111.239Zm88.667-48.227-306.017-3.825c-3.147-.04-6.153-1.432-8.368-3.874-2.212-2.44-3.453-5.735-3.454-9.169V88.153c.001-3.425 1.237-6.712 3.439-9.15 2.205-2.441 5.199-3.838 8.338-3.89l302.075-5.045c3.161-.052 6.212 1.264 8.489 3.658 2.273 2.394 3.584 5.673 3.647 9.12l3.946 212.553a14.164 14.164 0 0 1-.847 5.107c-.899 2.446-2.454 4.538-4.461 6.001-2.007 1.464-4.373 2.231-6.787 2.2v-.004Z" fill="#016EB9"/><path d="M427.613 90.587h-289.21c-1.699-.001-3.33.735-4.532 2.046-1.203 1.311-1.88 3.09-1.882 4.946v163.74c.002 1.856.679 3.635 1.882 4.947 1.202 1.311 2.833 2.047 4.532 2.046h289.21c3.534 0 6.41-3.134 6.41-6.993V97.583c-.001-1.855-.677-3.634-1.879-4.946-1.202-1.312-2.832-2.05-4.531-2.05Z" fill="#EAEAEA"/><path d="m314.556 35.043 3.794-.114a2.49 2.49 0 0 0 1.852-.892 2.96 2.96 0 0 0 .715-2.052l-.121-5.046a3.008 3.008 0 0 0-.821-2.006 2.545 2.545 0 0 0-1.889-.787l-2.684.076a2.488 2.488 0 0 1-1.58-.521 2.888 2.888 0 0 1-.99-1.444 14.8 14.8 0 0 0-.227-.684 3.114 3.114 0 0 1-.071-1.694c.134-.559.419-1.06.82-1.44l1.837-1.753a3.005 3.005 0 0 0 .899-1.973 3.11 3.11 0 0 0-.646-2.083l-3.05-3.794a2.59 2.59 0 0 0-1.807-.976 2.423 2.423 0 0 0-1.019.144c-.327.12-.63.31-.89.56l-1.848 1.753a2.51 2.51 0 0 1-1.414.689 2.422 2.422 0 0 1-1.522-.307 13.607 13.607 0 0 0-.598-.325 2.767 2.767 0 0 1-1.179-1.259 3.08 3.08 0 0 1-.264-1.78l.427-2.899a3.052 3.052 0 0 0-.465-2.139c-.411-.615-1.028-1.03-1.716-1.153L295.533.34a2.465 2.465 0 0 0-1.961.508 2.924 2.924 0 0 0-1.059 1.873l-.604 4.101a2.99 2.99 0 0 1-.638 1.45 2.604 2.604 0 0 1-1.252.848c-.841.263-1.661.589-2.453.975a2.464 2.464 0 0 1-1.655.197 2.637 2.637 0 0 1-1.433-.911l-1.965-2.457a2.592 2.592 0 0 0-1.811-.979 2.44 2.44 0 0 0-1.908.707l-3.481 3.322a2.825 2.825 0 0 0-.627.887 3.06 3.06 0 0 0-.265 1.082 3.014 3.014 0 0 0 .646 2.083l2.646 3.31c.336.41.557.917.636 1.46.079.543.013 1.1-.19 1.602-.102.246-.189.492-.284.741a2.896 2.896 0 0 1-.937 1.285 2.476 2.476 0 0 1-1.436.51l-4.301.125a2.539 2.539 0 0 0-1.837.896 2.883 2.883 0 0 0-.549.949c-.123.353-.181.73-.169 1.107l.124 5.045c.019.762.314 1.483.819 2.007.505.524 1.18.806 1.876.787l3.693-.106c.56-.014 1.108.16 1.557.495.454.34.794.828.99 1.39v.038a3.13 3.13 0 0 1 .08 1.701 2.899 2.899 0 0 1-.817 1.448l-2.608 2.487a2.788 2.788 0 0 0-.623.892 2.855 2.855 0 0 0-.272 1.08c-.049.75.182 1.492.646 2.083l3.046 3.802c.226.279.505.51.82.68a2.391 2.391 0 0 0 2.011.144c.333-.122.638-.311.896-.555l2.608-2.491a2.447 2.447 0 0 1 2.959-.382l.026.023c.492.28.889.718 1.134 1.255.25.54.34 1.149.25 1.742l-.586 3.969a3.096 3.096 0 0 0 .465 2.143c.41.616 1.027 1.03 1.716 1.152l4.562.802a2.46 2.46 0 0 0 1.969-.51 2.967 2.967 0 0 0 1.058-1.871l.68-4.623a2.923 2.923 0 0 1 .654-1.481 2.543 2.543 0 0 1 1.293-.847c.235-.064.468-.134.699-.212.48-.151.996-.148 1.474.008.484.155.907.461 1.24.873l2.657 3.307c.227.285.503.518.813.686.31.167.648.266.993.29a2.444 2.444 0 0 0 1.909-.708l3.481-3.322c.53-.526.85-1.227.899-1.973a2.96 2.96 0 0 0-.139-1.11 3.042 3.042 0 0 0-.507-.972l-1.977-2.46a2.978 2.978 0 0 1-.638-1.671 3.021 3.021 0 0 1 .397-1.754c.456-.808.857-1.646 1.198-2.51a2.84 2.84 0 0 1 .96-1.247 2.51 2.51 0 0 1 1.425-.491Zm-12.56 2.355c-4.04 3.862-12.31 2.766-15.851-1.645-3.534-4.41-2.12-11.867 1.916-15.696 4.052-3.829 10.946-1.791 14.479 2.616 3.546 4.41 3.504 10.862-.544 14.72v.005Z" fill="#00A3FE"/><path d="M294.879 60.846a2.316 2.316 0 0 1-.434-.038l-4.566-.801a2.529 2.529 0 0 1-.99-.401 2.737 2.737 0 0 1-.775-.782 3.009 3.009 0 0 1-.446-1.055 3.407 3.407 0 0 1-.038-1.153l.582-3.968a2.942 2.942 0 0 0-.23-1.693 2.72 2.72 0 0 0-1.1-1.225h-.038a2.352 2.352 0 0 0-1.489-.291 2.453 2.453 0 0 0-1.38.677l-2.607 2.486a2.627 2.627 0 0 1-1.434.708 2.52 2.52 0 0 1-1.552-.277 2.675 2.675 0 0 1-.839-.706l-3.05-3.803a2.851 2.851 0 0 1-.533-.997 3.378 3.378 0 0 1-.144-1.146 3.24 3.24 0 0 1 .284-1.118 2.76 2.76 0 0 1 .642-.915l2.608-2.487c.387-.373.661-.865.787-1.411a3.044 3.044 0 0 0-.08-1.65v-.038a2.739 2.739 0 0 0-.96-1.35 2.42 2.42 0 0 0-1.505-.483l-3.685.11a2.596 2.596 0 0 1-1.936-.815 3.106 3.106 0 0 1-.849-2.07l-.121-5.045a3.11 3.11 0 0 1 .748-2.113 2.72 2.72 0 0 1 .865-.668 2.513 2.513 0 0 1 1.033-.254l4.289-.125a2.425 2.425 0 0 0 1.39-.496c.41-.308.728-.74.916-1.242.085-.253.179-.502.28-.749a2.996 2.996 0 0 0-.424-2.959l-2.657-3.307a3.03 3.03 0 0 1-.528-.999 3.202 3.202 0 0 1-.137-1.144c.05-.783.38-1.513.918-2.034l3.485-3.325c.262-.255.575-.451.919-.575a2.482 2.482 0 0 1 2.067.151c.325.174.605.416.839.707l1.969 2.457a2.53 2.53 0 0 0 1.394.887 2.37 2.37 0 0 0 1.603-.196 17.821 17.821 0 0 1 2.457-.979c.477-.15.898-.44 1.21-.831.333-.401.55-.886.627-1.402l.605-4.101a2.985 2.985 0 0 1 1.088-1.928 2.6 2.6 0 0 1 .963-.482 2.49 2.49 0 0 1 1.059-.04l4.562.798c.712.126 1.349.554 1.771 1.191.422.637.596 1.43.482 2.207l-.435 2.891a2.996 2.996 0 0 0 .25 1.731c.253.533.657.96 1.152 1.221.204.106.405.216.597.325.456.26.973.363 1.483.295a2.45 2.45 0 0 0 1.375-.673l1.837-1.757a2.573 2.573 0 0 1 1.965-.723 2.64 2.64 0 0 1 1.86 1.002l3.05 3.795c.484.606.722 1.373.665 2.147a3.153 3.153 0 0 1-.274 1.115 2.933 2.933 0 0 1-.645.915l-1.836 1.757a2.867 2.867 0 0 0-.794 1.398c-.124.542-.1 1.107.068 1.637.079.23.151.461.223.688.161.56.496 1.055.956 1.413.448.346.987.522 1.535.503l2.698-.08a2.605 2.605 0 0 1 1.939.81c.514.54.816 1.285.835 2.067l.133 5.046a3.106 3.106 0 0 1-.749 2.116 2.606 2.606 0 0 1-1.89.922l-3.802.114a2.413 2.413 0 0 0-1.36.48 2.752 2.752 0 0 0-.923 1.202c-.351.87-.755 1.713-1.209 2.524a2.938 2.938 0 0 0-.386 1.701c.038.605.254 1.172.617 1.625l1.976 2.457c.235.295.416.635.529 1.002.111.37.158.758.14 1.145-.028.384-.12.76-.272 1.115a3.097 3.097 0 0 1-.646.914l-3.504 3.319c-.266.26-.579.456-.918.578a2.488 2.488 0 0 1-2.071-.151 2.694 2.694 0 0 1-.84-.707l-2.653-3.307a2.524 2.524 0 0 0-1.202-.847 2.372 2.372 0 0 0-1.436-.007c-.227.075-.472.151-.695.215a2.48 2.48 0 0 0-1.251.817 2.85 2.85 0 0 0-.635 1.436l-.681 4.626c-.1.68-.426 1.305-.926 1.777a2.596 2.596 0 0 1-1.765.699Zm-9.222-11.641c.435 0 .87.117 1.255.34l.038.019c.498.293.901.747 1.153 1.301.252.554.34 1.18.253 1.79l-.586 3.969a2.99 2.99 0 0 0 .442 2.079 2.533 2.533 0 0 0 1.66 1.122l4.561.794a2.392 2.392 0 0 0 1.898-.492 2.806 2.806 0 0 0 1.032-1.806l.684-4.622a3.031 3.031 0 0 1 .668-1.53 2.639 2.639 0 0 1 1.335-.867c.227-.064.472-.136.703-.211a2.503 2.503 0 0 1 1.525.006c.498.16.943.473 1.283.9l2.653 3.308c.22.276.488.501.788.663.301.163.628.258.962.282a2.488 2.488 0 0 0 1.86-.684l3.477-3.323a2.932 2.932 0 0 0 .869-1.912 2.98 2.98 0 0 0-.624-2.018l-1.98-2.46a3.156 3.156 0 0 1-.249-3.535c.453-.8.854-1.636 1.198-2.494.201-.507.537-.95.971-1.281.422-.312.927-.49 1.451-.51l3.799-.114a2.474 2.474 0 0 0 1.787-.87 2.92 2.92 0 0 0 .696-1.991l-.121-5.042a2.99 2.99 0 0 0-.221-1.06 2.792 2.792 0 0 0-.577-.886 2.51 2.51 0 0 0-.838-.582 2.347 2.347 0 0 0-.979-.186l-2.695.08a2.572 2.572 0 0 1-1.637-.533 2.944 2.944 0 0 1-1.009-1.49 14.763 14.763 0 0 0-.223-.68 3.209 3.209 0 0 1-.072-1.746 2.927 2.927 0 0 1 .839-1.485l1.837-1.75c.258-.245.463-.54.605-.866a2.997 2.997 0 0 0 .132-2.128 2.708 2.708 0 0 0-.491-.944l-3.05-3.799a2.497 2.497 0 0 0-1.758-.94 2.343 2.343 0 0 0-.986.138 2.5 2.5 0 0 0-.862.541l-1.837 1.758c-.411.392-.921.64-1.463.71a2.526 2.526 0 0 1-1.576-.31 9.521 9.521 0 0 0-.585-.325 2.784 2.784 0 0 1-1.221-1.296 3.18 3.18 0 0 1-.272-1.837l.431-2.895a3.03 3.03 0 0 0-.454-2.071c-.394-.599-.989-1.003-1.655-1.123l-4.562-.805a2.395 2.395 0 0 0-1.899.49 2.834 2.834 0 0 0-1.03 1.808l-.605 4.101a3.165 3.165 0 0 1-.658 1.493 2.739 2.739 0 0 1-1.292.88 17.51 17.51 0 0 0-2.434.976 2.514 2.514 0 0 1-1.694.2 2.72 2.72 0 0 1-1.485-.945l-1.969-2.456a2.528 2.528 0 0 0-1.256-.858 2.338 2.338 0 0 0-1.48.053 2.49 2.49 0 0 0-.87.544l-3.481 3.326a2.882 2.882 0 0 0-.858 1.908 2.936 2.936 0 0 0 .616 2.023l2.654 3.307a3.157 3.157 0 0 1 .453 3.144l-.279.737a2.89 2.89 0 0 1-.972 1.33 2.563 2.563 0 0 1-1.485.518l-4.298.125a2.36 2.36 0 0 0-.971.242 2.638 2.638 0 0 0-1.342 1.55 2.951 2.951 0 0 0-.173 1.07l.121 5.045c.016.726.3 1.42.797 1.95a2.467 2.467 0 0 0 1.829.764l3.697-.106a2.56 2.56 0 0 1 1.595.51c.477.361.833.86 1.02 1.429v.03c.189.567.219 1.171.076 1.754a2.977 2.977 0 0 1-.832 1.496l-2.619 2.491a2.796 2.796 0 0 0-.858 1.912c-.026.366.015.733.121 1.081.113.344.283.666.506.941l3.051 3.799c.214.271.482.496.786.661.609.329 1.313.38 1.957.144.32-.122.612-.307.858-.544l2.608-2.491a2.593 2.593 0 0 1 1.837-.73l-.004-.003Z" fill="#131F2D"/><path opacity=".6" d="M406.107 111.661H159.572c-1.691-.001-3.314.732-4.511 2.036-1.197 1.305-1.87 3.076-1.872 4.923v45.724c0 .915.166 1.821.487 2.667a7.03 7.03 0 0 0 1.385 2.259 6.372 6.372 0 0 0 2.072 1.509 5.924 5.924 0 0 0 2.443.527h246.531c3.526 0 6.38-3.118 6.38-6.962V118.62c0-.915-.166-1.82-.487-2.664a7.038 7.038 0 0 0-1.383-2.258 6.372 6.372 0 0 0-2.07-1.508 5.91 5.91 0 0 0-2.44-.529Zm2.506 77.847H289.565c-.241 0-.48-.052-.703-.153a1.828 1.828 0 0 1-.597-.436 2.056 2.056 0 0 1-.403-.653 2.177 2.177 0 0 1-.141-.772v-1.187c0-.264.049-.529.14-.775a1.986 1.986 0 0 1 1.009-1.092c.226-.099.471-.15.718-.147l119.044 1.198a1.775 1.775 0 0 1 1.292.597 2.117 2.117 0 0 1-.011 2.831 1.755 1.755 0 0 1-1.3.589Z" fill="#D5D6DA"/><path d="M399.708 139.139h-79.884v-3.304l79.884.775v2.529Z" fill="#657285"/><path d="M355.507 146.573h-35.679v-3.303l35.679.778v2.525Zm11.58 16.089h-47.263v-3.31l47.263.778v2.532Z" fill="#00A3FE"/><path d="M355.507 155.202h-35.679v-3.304l35.679.779v2.525Z" fill="#5C305D"/><path d="M381.521 155.202h-20.908v-3.304l20.912.779-.004 2.525Z" fill="#657285"/><path d="M396.284 146.573h-35.671v-3.303l35.671.778v2.525Z" fill="#00A3FE"/><path opacity=".6" d="m408.794 201.081-119.357 1.531a1.616 1.616 0 0 1-1.202-.529 1.744 1.744 0 0 1-.374-.605 1.869 1.869 0 0 1-.132-.707v-1.53c0-.242.043-.481.128-.704.085-.223.209-.426.365-.597.157-.17.343-.306.547-.398.205-.092.424-.139.645-.138h119.358a1.56 1.56 0 0 1 .646.137c.205.092.391.227.548.398.157.171.281.373.366.597.085.223.129.463.129.705.001.485-.174.95-.486 1.295a1.613 1.613 0 0 1-1.181.545Zm-189.392 40.437h-65.318v-4.24l64.26.964a1.956 1.956 0 0 1 1.43.663c.378.418.589.983.588 1.57 0 .276-.1.541-.279.736a.914.914 0 0 1-.673.307h-.008Zm20.421 10.364-84.665 1.232a.988.988 0 0 1-.411-.08 1.076 1.076 0 0 1-.35-.248c-.1-.107-.18-.234-.234-.376a1.245 1.245 0 0 1-.082-.445v-1.875c0-.151.027-.301.08-.44.053-.14.132-.267.23-.374.098-.106.215-.191.343-.248a.984.984 0 0 1 .405-.087H239.8c.28 0 .548.121.746.337.198.215.309.508.309.812v.643c0 .3-.108.589-.301.804a1.016 1.016 0 0 1-.731.345Zm67.465.011-59.233 1.21a1.283 1.283 0 0 1-.767-.243 1.464 1.464 0 0 1-.514-.668 1.56 1.56 0 0 1-.106-.575v-1.209c0-.393.143-.77.398-1.048s.601-.434.962-.434h59.263c.363 0 .707.159.957.435.249.276.404.658.404 1.051a1.566 1.566 0 0 1-.403 1.044 1.315 1.315 0 0 1-.958.437h-.003Zm101.506-34.053-119.357 1.527a1.616 1.616 0 0 1-1.202-.53 1.747 1.747 0 0 1-.374-.6 1.893 1.893 0 0 1-.132-.711v-1.531c0-.241.043-.48.128-.704.085-.223.209-.425.365-.596.157-.171.343-.306.547-.398.205-.092.424-.139.645-.139h119.358a1.56 1.56 0 0 1 .646.138c.205.092.391.227.548.397.157.171.281.374.366.597.085.224.129.463.129.705a1.93 1.93 0 0 1-.486 1.296 1.613 1.613 0 0 1-1.181.545v.004Z" fill="#D5D6DA"/><path d="M207.402 179.447h-48.593a5.213 5.213 0 0 0-2.15.464 5.618 5.618 0 0 0-1.823 1.326 6.192 6.192 0 0 0-1.218 1.988 6.597 6.597 0 0 0-.429 2.345v33.147c0 .804.146 1.601.429 2.345a6.188 6.188 0 0 0 1.218 1.987 5.606 5.606 0 0 0 1.823 1.327 5.212 5.212 0 0 0 2.15.463h48.589a5.208 5.208 0 0 0 2.149-.464 5.617 5.617 0 0 0 1.821-1.327 6.181 6.181 0 0 0 1.218-1.987c.283-.743.428-1.54.429-2.344V185.57a6.614 6.614 0 0 0-.429-2.344 6.17 6.17 0 0 0-1.218-1.987 5.602 5.602 0 0 0-1.821-1.327 5.225 5.225 0 0 0-2.149-.465h.004Z" fill="#D5D6DA"/><path opacity=".6" d="M269.81 179.447h-43.983c-1.265 0-2.48.549-3.375 1.525-.896.977-1.4 2.301-1.402 3.683v34.972c.001 1.383.505 2.709 1.401 3.686.895.977 2.11 1.526 3.376 1.526h43.983c1.266-.001 2.479-.55 3.374-1.527.895-.978 1.398-2.303 1.399-3.685v-34.972c-.002-1.381-.505-2.705-1.4-3.681-.895-.977-2.108-1.526-3.373-1.527Z" fill="#D5D6DA"/><path d="M209.058 250.06c-.322 18.898-1.573 44.769-5.511 67.457-6.561 37.852-46.961 63.821-54.41 68.326a2.465 2.465 0 0 1-2.392.103c-63.19-31.658-62.204-79.764-62.204-79.764v-56.5c0-.763.275-1.495.766-2.038a2.555 2.555 0 0 1 1.857-.864c9.623-.174 43.181-2.151 57.846-20.935.239-.305.535-.551.867-.723a2.45 2.45 0 0 1 2.13-.071c.34.147.65.37.907.658 6.319 6.999 26.918 26.415 60.03 24.359l.114-.008Z" fill="#00A3FE"/><path d="M147.795 376.644a.316.316 0 0 1-.117-.026c-12.884-6.331-23.822-13.973-32.519-22.723-6.962-7.003-12.51-14.729-16.501-22.968-6.78-14.026-6.641-24.82-6.641-24.926v-47.358c-.008-1.292.448-2.536 1.27-3.465.823-.932 1.948-1.474 3.133-1.512 4.725-.174 14.079-.854 23.607-3.474 11.365-3.125 19.744-8.039 24.926-14.6.241-.311.539-.563.875-.74a2.49 2.49 0 0 1 2.164-.078c.345.152.658.38.918.671 3.511 3.938 12.953 13.5 25.04 17.272a92.698 92.698 0 0 0 23.043 3.946c1.156.052 2.246.595 3.038 1.515.792.919 1.223 2.14 1.199 3.402-.502 22.084-1.973 39.874-4.494 54.399-1.451 8.375-4.913 16.777-10.318 24.967-4.316 6.547-9.857 12.972-16.478 19.106a133.093 133.093 0 0 1-22.005 16.543.265.265 0 0 1-.136.049h-.004Zm-.801-141.437h-.072c-.293.01-.581.087-.845.225a2.16 2.16 0 0 0-.693.576c-5.238 6.671-13.72 11.648-25.202 14.804-9.581 2.635-18.977 3.319-23.735 3.496-1.03.036-2.008.508-2.725 1.318-.716.809-1.115 1.892-1.112 3.017v47.377c0 .113-.136 10.771 6.588 24.665 3.95 8.156 9.456 15.817 16.373 22.764 8.617 8.667 19.457 16.245 32.217 22.526a133.125 133.125 0 0 0 21.785-16.399c10.337-9.57 23.342-24.934 26.596-43.703 2.514-14.487 3.977-32.247 4.483-54.297.016-1.095-.359-2.155-1.046-2.953-.688-.798-1.633-1.272-2.635-1.321a93.465 93.465 0 0 1-23.169-3.969c-12.227-3.828-21.77-13.466-25.296-17.439a2.104 2.104 0 0 0-.692-.512 1.926 1.926 0 0 0-.82-.175Z" fill="#131F2D"/><path d="M161.345 329.34h-39.988c-1.778-.002-3.483-.772-4.741-2.144-1.259-1.372-1.967-3.232-1.971-5.174v-26.906c0-.962.173-1.914.511-2.802a7.392 7.392 0 0 1 1.454-2.376c1.261-1.371 2.968-2.142 4.747-2.143h2.253c.965-4.34 3.239-8.199 6.456-10.957 3.218-2.762 7.192-4.263 11.285-4.263s8.068 1.501 11.286 4.263c3.217 2.758 5.49 6.617 6.455 10.957h2.253c1.78.002 3.487.774 4.747 2.147 1.257 1.373 1.964 3.236 1.965 5.178v26.902c-.003 1.942-.712 3.802-1.97 5.174-1.259 1.372-2.964 2.142-4.742 2.144Zm-39.988-40.918c-1.626.003-3.185.708-4.335 1.963-1.151 1.254-1.799 2.956-1.802 4.731v26.906c.002 1.776.65 3.477 1.801 4.731 1.151 1.255 2.71 1.959 4.336 1.959h39.988c1.627-.001 3.187-.706 4.339-1.961 1.15-1.254 1.799-2.954 1.803-4.729v-26.906c-.003-1.776-.652-3.478-1.803-4.732-1.151-1.256-2.712-1.963-4.339-1.965h-2.483a.275.275 0 0 1-.178-.067.321.321 0 0 1-.102-.172c-.898-4.252-3.092-8.045-6.221-10.76-3.13-2.716-7.011-4.194-11.01-4.194-3.998 0-7.879 1.478-11.01 4.194-3.129 2.715-5.322 6.508-6.221 10.76a.3.3 0 0 1-.102.174.269.269 0 0 1-.177.068h-2.484Zm32.913 0h-25.837a.263.263 0 0 1-.131-.033.295.295 0 0 1-.102-.094.338.338 0 0 1-.043-.281c.877-3.068 2.631-5.75 5.004-7.653 1.774-1.423 3.833-2.362 6.006-2.741a12.73 12.73 0 0 1 6.49.562c2.092.749 3.989 2.031 5.535 3.741 1.546 1.71 2.696 3.799 3.354 6.091a.33.33 0 0 1-.042.281.302.302 0 0 1-.102.093.257.257 0 0 1-.132.034Zm-25.437-.627h25.044a14.695 14.695 0 0 0-3.264-5.62c-1.473-1.571-3.261-2.745-5.223-3.43a12.19 12.19 0 0 0-6.077-.515 12.66 12.66 0 0 0-5.646 2.509c-2.244 1.745-3.932 4.212-4.83 7.056h-.004Z" fill="#131F2D"/><path d="M165.238 283.849h-37.671c-1.826-.001-3.577.79-4.869 2.199-1.292 1.409-2.019 3.321-2.021 5.315v25.89c.001.987.179 1.965.526 2.878a7.59 7.59 0 0 0 1.494 2.439 6.871 6.871 0 0 0 2.235 1.629 6.366 6.366 0 0 0 2.635.571h37.671c1.826.001 3.577-.79 4.869-2.199 1.292-1.409 2.019-3.32 2.021-5.315v-25.889a8.126 8.126 0 0 0-.526-2.878 7.584 7.584 0 0 0-1.494-2.44 6.875 6.875 0 0 0-2.235-1.629 6.397 6.397 0 0 0-2.635-.571Z" fill="#131F2D"/><path d="M146.404 307.838c-3.554 0-7.029-1.15-9.985-3.304-2.21-1.607-4.066-3.73-5.433-6.216a20.84 20.84 0 0 1-2.473-8.157 21.268 21.268 0 0 1 .963-8.527c.896-2.729 2.335-5.208 4.214-7.256 2.515-2.744 5.718-4.611 9.205-5.367 3.487-.757 7.1-.367 10.384 1.118 3.283 1.483 6.09 3.995 8.065 7.218 1.975 3.224 3.031 7.015 3.032 10.894-.006 5.198-1.902 10.18-5.272 13.852-3.371 3.673-7.937 5.738-12.7 5.745Zm0-34.356c-2.675 0-5.291.865-7.521 2.487a14.27 14.27 0 0 0-4.093 4.68 15.695 15.695 0 0 0-1.863 6.143 16.005 16.005 0 0 0 .727 6.421 14.976 14.976 0 0 0 3.177 5.463c1.894 2.064 4.305 3.47 6.93 4.039 2.624.57 5.345.278 7.818-.838 2.472-1.117 4.586-3.01 6.073-5.438 1.488-2.426 2.282-5.279 2.283-8.198-.004-3.914-1.431-7.666-3.968-10.432-2.538-2.766-5.976-4.323-9.563-4.327Z" fill="#131F2D"/><path d="M146.404 305.906a1.802 1.802 0 0 1-1.322-.598 2.153 2.153 0 0 1-.552-1.442v-9.914c.002-.542.2-1.061.551-1.444a1.8 1.8 0 0 1 1.323-.597c.496.003.97.219 1.32.601.351.382.549.9.551 1.44v9.914a2.148 2.148 0 0 1-.551 1.44c-.35.383-.824.598-1.32.6Z" fill="#00A3FE"/><path d="M146.404 314.894a4.672 4.672 0 0 0 1.934-.418 5.055 5.055 0 0 0 1.639-1.194c.47-.512.842-1.12 1.096-1.789a5.947 5.947 0 0 0-.001-4.218 5.57 5.57 0 0 0-1.096-1.787 5.037 5.037 0 0 0-1.639-1.193 4.668 4.668 0 0 0-3.865 0 5.037 5.037 0 0 0-1.639 1.193 5.552 5.552 0 0 0-1.096 1.787 5.966 5.966 0 0 0-.001 4.218 5.576 5.576 0 0 0 1.095 1.789 5.07 5.07 0 0 0 1.64 1.194c.613.277 1.27.419 1.933.418Z" fill="#00A3FE"/><path d="M238.281 165.969a.655.655 0 0 1-.318-.087l-7.203-3.926a.769.769 0 0 1-.4-.75.821.821 0 0 1 .078-.294.743.743 0 0 1 .412-.396.633.633 0 0 1 .548.045l7.212 3.923c.154.07.28.197.356.359a.824.824 0 0 1 .058.525.775.775 0 0 1-.266.442.666.666 0 0 1-.466.148l-.011.011Zm-10.235 9.427a.687.687 0 0 1-.51-.212.811.811 0 0 1-.227-.541.817.817 0 0 1 .194-.557.694.694 0 0 1 .498-.248l8.001-.589a.68.68 0 0 1 .519.191.807.807 0 0 1 .244.534.82.82 0 0 1-.173.565.703.703 0 0 1-.492.267l-8.005.586-.049.004Zm4.528 13.084a.66.66 0 0 1-.451-.144.772.772 0 0 1-.267-.423.824.824 0 0 1 .038-.512.731.731 0 0 1 .328-.368l6.962-4.46a.671.671 0 0 1 .79.049.769.769 0 0 1 .216.294.832.832 0 0 1-.038.73.747.747 0 0 1-.246.265l-6.958 4.46a.678.678 0 0 1-.378.113l.004-.004Zm29.121-22.511a.66.66 0 0 1-.377-.116.841.841 0 0 1-.304-.914.762.762 0 0 1 .14-.264.703.703 0 0 1 .224-.183l7.207-3.924a.728.728 0 0 1 .276-.075.632.632 0 0 1 .275.038.755.755 0 0 1 .409.389.83.83 0 0 1 .072.291.751.751 0 0 1-.03.302.852.852 0 0 1-.14.265.643.643 0 0 1-.227.189l-7.219 3.908a.656.656 0 0 1-.302.094h-.004Zm10.235 9.427h-.053l-8.001-.59a.7.7 0 0 1-.488-.268.827.827 0 0 1 .068-1.093.68.68 0 0 1 .514-.189l8.009.586a.68.68 0 0 1 .492.246.822.822 0 0 1 .196.559.765.765 0 0 1-.227.544.68.68 0 0 1-.51.208v-.003Zm-4.528 13.084a.648.648 0 0 1-.348-.113l-6.958-4.456a.747.747 0 0 1-.207-.201.83.83 0 0 1-.046-.861.745.745 0 0 1 .303-.306.666.666 0 0 1 .408-.072.679.679 0 0 1 .264.102l6.947 4.452a.74.74 0 0 1 .328.368.827.827 0 0 1 .039.513.77.77 0 0 1-.267.422.658.658 0 0 1-.451.145l-.012.007Z" fill="#131F2D"/><path d="M264.318 170.947c0 10.106-6.145 18.372-13.871 18.871-.251.015-.504.023-.756.023-8.076 0-14.626-8.462-14.626-18.898-.034-4.202 1.087-8.318 3.216-11.818 2.68-4.317 6.792-7.079 11.41-7.079 1.263 0 2.518.208 3.723.62 3.158 1.139 5.868 3.417 7.684 6.459 2.131 3.501 3.253 7.619 3.22 11.822Z" fill="#657285"/><path d="M264.318 170.943c0 10.111-6.145 18.376-13.871 18.875a54.28 54.28 0 0 1-2.135-9.619c-.885-6.788-.507-13.228.846-18.466.96-3.727 2.419-6.853 4.256-9.071 3.159 1.14 5.868 3.419 7.684 6.463 2.13 3.5 3.252 7.616 3.22 11.818Z" fill="#657285"/><path d="M249.691 166.208c6.301 0 11.407-3.175 11.407-7.08 0-3.911-5.106-7.079-11.407-7.079-6.304 0-11.41 3.168-11.41 7.079 0 3.909 5.106 7.08 11.41 7.08Z" fill="#131F2D"/><path d="M246.49 154.502a.675.675 0 0 1-.496-.223.807.807 0 0 1-.207-.54c-.132-5.919-5.136-8.315-5.189-8.338a.753.753 0 0 1-.382-.425.852.852 0 0 1 .004-.595.749.749 0 0 1 .391-.42.664.664 0 0 1 .55.004c.242.117 5.9 2.827 6.051 9.732a.785.785 0 0 1-.195.564.66.66 0 0 1-.508.234l-.019.007Zm5.904 2.003a.667.667 0 0 1-.481-.206.8.8 0 0 1-.222-.512c-.605-8.337 4.607-11.637 4.826-11.773.165-.1.36-.125.541-.069a.732.732 0 0 1 .431.364.834.834 0 0 1-.055.86.745.745 0 0 1-.21.198c-.2.125-4.641 2.99-4.112 10.299a.829.829 0 0 1-.028.302.764.764 0 0 1-.135.265.694.694 0 0 1-.491.265l-.064.007Z" fill="#131F2D"/><path opacity=".4" d="M292.634 219.068c23.207-25.308 23.207-66.342 0-91.654-23.206-25.303-60.835-25.303-84.045 0-23.206 25.312-23.206 66.346 0 91.654 23.206 25.312 60.835 25.312 84.045 0Z" fill="#00A3FE"/><path d="M318.169 228.475s-10.5.25-13.38-4.769c-2.883-5.02 2.003-9.389 2.003-9.389l15.629 9.215-4.252 4.943Z" fill="#FF7955"/><path d="m301.804 202.226-4.574 8.051 115.926 78.289 4.573-8.05-115.925-78.29Z" fill="#131F2D"/><path d="m418.848 283.849-2.483 4.373c-.475.835-1.234 1.43-2.111 1.655a3.158 3.158 0 0 1-2.565-.457l-60.472-40.849a3.504 3.504 0 0 1-.969-.983 3.842 3.842 0 0 1-.547-1.315 3.962 3.962 0 0 1 .416-2.797l2.48-4.373c.474-.835 1.233-1.43 2.11-1.654a3.157 3.157 0 0 1 2.565.456l60.476 40.846a3.677 3.677 0 0 1 1.512 2.305 3.935 3.935 0 0 1-.412 2.797v-.004ZM197.723 137.517c-6.479 11.405-9.71 24.654-9.286 38.066.425 13.412 4.486 26.385 11.671 37.275 7.188 10.897 17.173 19.222 28.694 23.925 11.525 4.706 24.069 5.579 36.049 2.509 11.977-3.069 22.852-9.944 31.253-19.755 8.392-9.808 13.929-22.113 15.912-35.358 1.986-13.243.323-26.832-4.778-39.042-4.24-10.161-10.711-19.022-18.838-25.799-8.128-6.778-17.661-11.262-27.756-13.055-16.283-2.904-32.956 1.369-46.355 11.879-6.633 5.202-12.262 11.779-16.566 19.355Zm101.148 68.319c-4.426 7.784-10.376 14.4-17.423 19.374-7.047 4.973-15.016 8.18-23.334 9.39-8.318 1.21-16.778.393-24.772-2.393-7.994-2.785-15.323-7.47-21.461-13.717-8.206-8.348-13.958-19.167-16.526-31.086-2.568-11.919-1.838-24.403 2.1-35.869 3.938-11.467 10.904-21.402 20.016-28.546 9.116-7.149 19.967-11.189 31.185-11.611 11.219-.421 22.302 2.794 31.85 9.241 6.332 4.281 11.831 9.88 16.184 16.479 4.355 6.595 7.474 14.066 9.176 21.981a67.365 67.365 0 0 1 .768 24.136c-1.204 8.023-3.842 15.709-7.763 22.621Z" fill="#131F2D"/><path d="M412.015 242.943c-2.809-22.926-26.382-35.879-26.382-35.879s2 51.096 6.029 49.588c6.894-2.582 16.342-2.635 20.353-13.709Z" fill="#00A3FE"/><path d="M365.946 371.818s-.182 3.828-2.555 4.856c-2.374 1.021-9.199 1.788-6.713 4.328 1.422 1.463 8.315.767 10.258.809 1.935.041 3.734 1.047 5.216-.344 1.625-1.531.234-9.453.234-9.453s-1.704.915-3.212.828c-2.159-.129-3.228-1.021-3.228-1.021v-.003Z" fill="#131F2D"/><path d="M348.923 275.073c.453 7.964 1.311 18.304 2.899 30.954 3.016 24.118 6.682 48.424 8.489 60.08.284 1.992 1.173 3.823 2.525 5.197 1.351 1.375 3.087 2.213 4.928 2.381l2.007.151c4.029.295 7.4-3.447 7.219-8.02l-3.16-78.596-.302-12.502s-25.353-12.711-24.605.355Z" fill="#364154"/><path d="M388.177 372.487s-.181 3.824-2.555 4.849c-2.374 1.02-9.196 1.787-6.712 4.331 1.421 1.459 8.307.767 10.257.809 1.939.041 3.734 1.051 5.208-.348 1.626-1.531.235-9.449.235-9.449s-1.701.911-3.202.824c-2.173-.128-3.231-1.02-3.231-1.02v.004Z" fill="#131F2D"/><path d="M370.75 255.986s-.889 17.318 3.292 50.71a2221.343 2221.343 0 0 0 8.504 60.08c.282 1.991 1.167 3.822 2.513 5.2 1.354 1.376 3.093 2.214 4.936 2.378l2.007.151c4.029.295 7.4-3.447 7.211-8.02l-3.159-78.596-.616-25.855-24.688-6.048Z" fill="#364154"/><path d="m375.043 313.496-.302-.046c0-.143 1.723-14.335 3.016-19.434 1.292-5.095 7.302-9.57 7.37-9.626l.174.279c-.053.042-5.972 4.415-7.242 9.438-1.27 5.023-3.016 19.245-3.016 19.389Z" fill="#131F2D"/><path d="m375.111 202.748-1.553-5.178-.454-1.512-2.676-8.867-.355 8.807-.212 5.299-.06 1.674c-.049 1.149-.726 1.376-1.542 2.366-.337.382-2.457 2.831-.042 3.923 3.009 1.372 8.633-.699 10.772-3.413-.019.012-3.371-1.421-3.878-3.099Z" fill="#FF7955"/><path d="M378.294 192.029c.907-5.163-1.728-10.053-5.889-10.915-4.146-.869-8.247 2.615-9.154 7.778-.899 5.163 1.724 10.05 5.885 10.916 4.15.869 8.247-2.616 9.158-7.779Z" fill="#FF7955"/><path d="M366.52 187.191c-4.384.171-6.512-2.43-6.561-4.837-.06-3.092 1.826-5.821 4.029-4.676 2.2 1.149 1.259-1.666 3.371-1.965 3.958-.559 4.706 2.332 7.937 2.476 4.271.181 9.124 7.498 5.56 12.839 0 0-10.874-3.969-14.336-3.837Z" fill="#131F2D"/><path d="M362.612 184.077s4.687 4.634 4.071 7.246c-.616 2.607-.465 3.628 2.268 5.023 2.74 1.394.325 3.647 3.968 3.828 3.647.178 8.111-4.267 8.111-11.546-.018-2.46-.821-4.835-2.272-6.717l-16.146 2.166Z" fill="#131F2D"/><path d="M364.321 191.209c.225-.363.583-.623.997-.726a1.512 1.512 0 0 1 1.183.205 1.607 1.607 0 0 1 .586 1.088c.028.216.01.435-.053.643-.051.206-.147.4-.279.567a1.646 1.646 0 0 1-.999.722 1.524 1.524 0 0 1-1.182-.208 1.506 1.506 0 0 1-.397-.473 1.606 1.606 0 0 1-.189-.612 1.554 1.554 0 0 1 .049-.643c.052-.207.149-.4.284-.567v.004Z" fill="#FFB27D"/><path d="M382.617 193.035a.13.13 0 0 1-.075-.027.152.152 0 0 1-.038-.068 2.688 2.688 0 0 0-1.134-1.531.107.107 0 0 1-.026-.026l-.023-.042v-.049c0-.015 0-.03.011-.041l.031-.038a.073.073 0 0 1 .037-.023h.042c.011 0 .03 0 .038.012a2.94 2.94 0 0 1 1.247 1.7v.049c0 .016-.011.031-.023.042 0 .015-.011.027-.03.038a.117.117 0 0 1-.03.019l-.027-.015Zm-1.183-2.185a.095.095 0 0 1-.044-.007.109.109 0 0 1-.039-.023.12.12 0 0 1-.03-.08v-.045c.011-.015.011-.03.023-.038.007-.015.03-.022.037-.03a.06.06 0 0 1 .038-.011s1.195-.091 1.368-1.032a.187.187 0 0 1 .05-.076.127.127 0 0 1 .037-.018.119.119 0 0 1 .042-.001.121.121 0 0 1 .072.05c.019.026.019.06.019.09-.212 1.123-1.512 1.217-1.573 1.221Zm-16.781-13.357a.65.65 0 0 1-.234-.038 2.986 2.986 0 0 1-.896-.491 1.799 1.799 0 0 0-.88-.438 1.671 1.671 0 0 0-.945.094.104.104 0 0 1-.046.008c-.019 0-.03-.008-.049-.015a.177.177 0 0 1-.03-.031c-.011-.011-.011-.026-.019-.037v-.05c0-.015 0-.03.008-.045a.357.357 0 0 1 .03-.038 1.883 1.883 0 0 1 1.09-.119c.351.067.68.233.955.482.254.198.539.354.842.461a.445.445 0 0 0 .235.023.54.54 0 0 0 .23-.098c.476-.356.597-1.531.597-1.531 0-.03.019-.057.038-.076a.11.11 0 0 1 .06-.029.105.105 0 0 1 .065.01.16.16 0 0 1 .03.034c.008.012.019.027.019.038a.038.038 0 0 1 .009.025.034.034 0 0 1-.009.024c0 .049-.121 1.282-.695 1.701a.668.668 0 0 1-.405.136Zm10.307.31a4.435 4.435 0 0 1-2.804-1.209.285.285 0 0 1-.031-.038c-.011-.011-.011-.027-.022-.045 0-.016 0-.031.011-.05 0-.015.011-.03.019-.041a.075.075 0 0 1 .042-.03.08.08 0 0 1 .037-.012c.023 0 .034.004.053.012a.107.107 0 0 1 .03.03s1.456 1.391 3.13 1.107a.099.099 0 0 1 .083.023c.03.019.038.049.049.079a.234.234 0 0 1-.019.087.13.13 0 0 1-.083.049 2.991 2.991 0 0 1-.491.038h-.004Zm-9.468 16.025a.908.908 0 0 1-.302-.037l-.023-.012c-.011-.004-.011-.011-.019-.019v-.022c-.011-.008-.011-.015 0-.027 0-.007 0-.015.008-.019 0-.007.011-.011.023-.015l.019-.004c.011 0 .018 0 .018.008.042 0 .991.325 1.667-1.051 0-.011.012-.015.012-.019l.018-.011h.023l.019.004c.011.007.019.019.019.038a.025.025 0 0 1 0 .037c-.484.983-1.111 1.149-1.482 1.149Zm-16.569 81.245s31.793-1.916 46.877 2.101l.231-4.762-21.162-6.909-17.083.461-5.239 1.24-3.703 6.335.079 1.534Z" fill="#131F2D"/><path d="M392.985 217.072s-2.809-13.322-19.919-13.322c-29.839 0-21.467 26.936-24.226 69.77 0 0 19.238-4.615 47.062 1.534 0 0 2.714-23.195-.79-42.803-.929-5.186-.767-10.677-2.127-15.179Z" fill="#00A3FE"/><path d="M369.631 203.75s-9.574.151-16.691 7.589c-7.105 7.438-16.274 17.681-18.224 23.573-2.393 7.272 2.022 14.547 7.615 14.691 5.594.147 10.609-4.335 10.609-4.335l16.691-41.518Z" fill="#00A3FE"/><path d="M396.809 264.596h-.211c.827-16.8-1.86-34-1.89-34.171l.212-.037c.011.158 2.706 17.386 1.889 34.208Zm-47.179-16.913-.114-.197c5.628-3.673 12.945-13.349 13.017-13.447l.162.151c-.075.094-7.411 9.8-13.065 13.493Z" fill="#131F2D"/><path d="M310.58 230.392c-.076 4.754 21.505 22.117 34.446 19.215 13.758-3.062-3.22-19.775-3.22-19.775l-25.361-6.368s-5.797 2.116-5.869 6.928h.004Z" fill="#00A3FE"/><path d="M316.442 223.464a3.627 3.627 0 0 0-.159-1.641 3.497 3.497 0 0 0-.839-1.372c-1.304-1.251-2.657-6.962-3.515-5.529-.847 1.436-.061 5.987-1.353 6.478-1.293.491 5.866 2.064 5.866 2.064Z" fill="#FF7955"/><path d="M325.932 121.942h-1.27a.592.592 0 0 0-.446.2.705.705 0 0 0-.181.484v6.123a.714.714 0 0 1-.189.487.606.606 0 0 1-.204.15.566.566 0 0 1-.242.051h-.446a.604.604 0 0 1-.442-.205.754.754 0 0 1-.182-.483v-6.123a.748.748 0 0 0-.181-.484.612.612 0 0 0-.446-.196h-1.24a.603.603 0 0 1-.446-.205.684.684 0 0 1-.139-.221.753.753 0 0 1-.05-.262v-.133c0-.181.068-.355.189-.483a.605.605 0 0 1 .204-.153.564.564 0 0 1 .242-.052h5.469a.61.61 0 0 1 .446.201.708.708 0 0 1 .181.487v.133a.715.715 0 0 1-.182.486.631.631 0 0 1-.204.149.575.575 0 0 1-.241.053v-.004Zm5.926 3.59h-2.018a.583.583 0 0 0-.435.201.665.665 0 0 0-.135.219.721.721 0 0 0-.046.261v1.047c0 .177.06.351.181.48a.59.59 0 0 0 .435.204h2.585a.591.591 0 0 1 .353.113.684.684 0 0 1 .233.31.744.744 0 0 1 .038.261v.121a.765.765 0 0 1-.038.264.654.654 0 0 1-.14.223.6.6 0 0 1-.204.151.562.562 0 0 1-.242.05h-4.282a.617.617 0 0 1-.442-.201.678.678 0 0 1-.137-.223.74.74 0 0 1-.045-.264v-7.654a.722.722 0 0 1 .182-.487.619.619 0 0 1 .442-.201h4.271a.606.606 0 0 1 .444.203.723.723 0 0 1 .183.485v.132a.696.696 0 0 1-.181.484.602.602 0 0 1-.446.2h-2.57a.572.572 0 0 0-.439.201.694.694 0 0 0-.181.484v.763c0 .181.06.355.181.484.114.128.273.2.435.204h2.018a.63.63 0 0 1 .583.418.726.726 0 0 1 .045.262v.087a.627.627 0 0 1-.038.272.66.66 0 0 1-.134.235.61.61 0 0 1-.21.155.54.54 0 0 1-.246.056Zm6.494 1.539c0-.145-.02-.289-.061-.428a.787.787 0 0 0-.242-.347 2.237 2.237 0 0 0-.491-.314 6.712 6.712 0 0 0-.82-.329 9.33 9.33 0 0 1-1.051-.446 3.716 3.716 0 0 1-.877-.582 2.546 2.546 0 0 1-.597-.767 2.381 2.381 0 0 1-.223-1.028 2.404 2.404 0 0 1 .222-1.026c.148-.317.363-.592.628-.8.286-.227.61-.401.957-.514a4.133 4.133 0 0 1 2.483.031c.356.125.682.322.96.578.264.238.465.54.604.881.042.075.065.143.095.215a.71.71 0 0 1 .019.321.628.628 0 0 1-.114.295.643.643 0 0 1-.22.208.575.575 0 0 1-.282.075h-.465a.59.59 0 0 1-.363-.132.663.663 0 0 1-.234-.34v-.049a1.1 1.1 0 0 0-.25-.416 1.12 1.12 0 0 0-.427-.272 1.642 1.642 0 0 0-.605-.094 1.83 1.83 0 0 0-.574.079 1.206 1.206 0 0 0-.416.223 1.014 1.014 0 0 0-.242.34 1.093 1.093 0 0 0-.079.401.91.91 0 0 0 .113.446.864.864 0 0 0 .303.321c.378.249.793.438 1.221.559.415.136.805.303 1.19.511.317.164.607.377.858.631.223.229.401.498.525.793.117.319.175.656.17.994.007.364-.065.726-.211 1.059a2.124 2.124 0 0 1-.605.763c-.281.224-.603.39-.949.488a4.558 4.558 0 0 1-2.048.094 3.66 3.66 0 0 1-.779-.242 3.238 3.238 0 0 1-.706-.381 3.015 3.015 0 0 1-.556-.567 2.84 2.84 0 0 1-.363-.749v-.037a.675.675 0 0 1-.023-.322.617.617 0 0 1 .114-.291.746.746 0 0 1 .223-.204.613.613 0 0 1 .28-.072h.445a.62.62 0 0 1 .378.144.714.714 0 0 1 .227.359.664.664 0 0 0 .061.189c.072.185.181.34.325.465.156.12.334.207.525.257a2.55 2.55 0 0 0 1.24.004c.144-.046.277-.119.393-.216a.754.754 0 0 0 .242-.325c.055-.138.081-.286.075-.434h-.003Zm8.451-5.125h-1.274a.574.574 0 0 0-.442.196.673.673 0 0 0-.137.222.726.726 0 0 0-.045.262v6.123a.704.704 0 0 1-.393.638.562.562 0 0 1-.242.05h-.446a.63.63 0 0 1-.446-.205.747.747 0 0 1-.181-.483v-6.123a.743.743 0 0 0-.182-.484.61.61 0 0 0-.442-.196h-1.232a.592.592 0 0 1-.241-.054.66.66 0 0 1-.341-.372.709.709 0 0 1-.045-.262v-.133c0-.094.011-.185.038-.272a.655.655 0 0 1 .136-.227.633.633 0 0 1 .453-.215h5.473c.17 0 .333.076.442.204a.693.693 0 0 1 .182.484v.132a.63.63 0 0 1-.038.276.615.615 0 0 1-.597.439Zm2.785 7.491h-.453a.633.633 0 0 1-.443-.205.752.752 0 0 1-.185-.483v-7.654c0-.181.076-.355.185-.484a.626.626 0 0 1 .443-.204h.453c.163 0 .325.076.446.201.115.131.18.305.181.487v7.654a.747.747 0 0 1-.181.487.618.618 0 0 1-.446.201Zm8.289 0h-.719a.616.616 0 0 1-.532-.329l-1.966-3.523a.634.634 0 0 0-.317-.276.556.556 0 0 0-.393-.022.662.662 0 0 0-.333.245.723.723 0 0 0-.121.408v2.809a.709.709 0 0 1-.393.638.565.565 0 0 1-.242.05h-.446a.619.619 0 0 1-.442-.201.699.699 0 0 1-.181-.487v-7.654a.716.716 0 0 1 .181-.487.619.619 0 0 1 .442-.201h.73a.596.596 0 0 1 .305.091.68.68 0 0 1 .228.242l1.969 3.526a.68.68 0 0 0 .302.284.597.597 0 0 0 .404.022.662.662 0 0 0 .333-.245.734.734 0 0 0 .121-.412v-2.82c0-.181.072-.355.193-.484a.573.573 0 0 1 .434-.204h.443c.173 0 .336.076.446.201.12.132.181.302.181.487v7.654a.705.705 0 0 1-.181.487.61.61 0 0 1-.204.151.568.568 0 0 1-.242.05Zm8.655-1.418a.901.901 0 0 1-.053.28.69.69 0 0 1-.159.227c-.06.065-.124.125-.193.181a3.05 3.05 0 0 1-.635.408c-.29.139-.594.245-.907.318-.398.088-.805.13-1.213.125a3.652 3.652 0 0 1-1.466-.288 3.102 3.102 0 0 1-1.131-.846 4.003 4.003 0 0 1-.725-1.365 6.077 6.077 0 0 1-.265-1.859v-.529a6.428 6.428 0 0 1 .253-1.86 4.04 4.04 0 0 1 .707-1.372c.29-.367.665-.658 1.093-.847a3.426 3.426 0 0 1 1.421-.291c.476-.011.948.061 1.406.22a2.645 2.645 0 0 1 1.595 1.561c.041.101.078.204.109.309.03.103.038.212.019.322a.63.63 0 0 1-.11.295.63.63 0 0 1-.221.209.574.574 0 0 1-.285.074h-.393a.628.628 0 0 1-.374-.132.717.717 0 0 1-.219-.34l-.053-.144a1.563 1.563 0 0 0-.291-.472 1.248 1.248 0 0 0-.465-.303 1.872 1.872 0 0 0-.658-.102 1.385 1.385 0 0 0-.748.168c-.232.126-.43.316-.575.55a4.2 4.2 0 0 0-.465 2.143v.541a3.867 3.867 0 0 0 .507 2.143 1.664 1.664 0 0 0 1.413.725c.317.004.631-.048.93-.151.093-.037.182-.084.265-.14.068-.045.117-.094.177-.151v-.869a.75.75 0 0 0-.181-.484.616.616 0 0 0-.442-.204h-.303a.58.58 0 0 1-.434-.197.661.661 0 0 1-.142-.22.737.737 0 0 1-.051-.263.755.755 0 0 1 .181-.484.618.618 0 0 1 .446-.2h2.019c.079 0 .162.015.23.052.08.035.152.085.212.148a.764.764 0 0 1 .181.484l-.007 2.63Z" fill="#00A3FE"/></svg>