<svg width="49" height="49" viewBox="0 0 49 49" xmlns="http://www.w3.org/2000/svg"><path d="M22.587.11v14.404H1.876A20.364 20.364 0 0 1 16.578.976a34.576 34.576 0 0 1 6.01-.87v.005Z" fill="#FCA311"/><path d="M22.587.11v14.404H1.876A20.364 20.364 0 0 1 16.578.976a34.576 34.576 0 0 1 6.01-.87v.005Z" fill="url(#a)"/><path d="M26.412.11v29.753H48.02a34.825 34.825 0 0 0-.439-13.693A20.367 20.367 0 0 0 32.421.976a34.56 34.56 0 0 0-6.009-.87v.005Z" fill="#FCA311"/><path d="M26.412.11v29.753H48.02a34.825 34.825 0 0 0-.439-13.693A20.367 20.367 0 0 0 32.421.976a34.56 34.56 0 0 0-6.009-.87v.005Z" fill="url(#b)"/><path d="M47.12 33.703H26.412V48.11a34.552 34.552 0 0 0 6.01-.869 20.364 20.364 0 0 0 14.702-13.538h-.004Z" fill="#FCA311"/><path d="M47.12 33.703H26.412V48.11a34.552 34.552 0 0 0 6.01-.869 20.364 20.364 0 0 0 14.702-13.538h-.004Z" fill="url(#c)"/><path d="M22.587 48.11V18.355H.977a34.824 34.824 0 0 0 .438 13.694A20.368 20.368 0 0 0 16.578 47.24c1.98.469 3.987.756 6.01.87Z" fill="#FCA311"/><path d="M22.587 48.11V18.355H.977a34.824 34.824 0 0 0 .438 13.694A20.368 20.368 0 0 0 16.578 47.24c1.98.469 3.987.756 6.01.87Z" fill="url(#d)"/><defs><linearGradient id="a" x1=".488" y1="-.123" x2="29.733" y2="57.409" gradientUnits="userSpaceOnUse"><stop stop-color="#09C6F9"/><stop offset="1" stop-color="#045DE9"/></linearGradient><linearGradient id="b" x1=".488" y1="-.123" x2="29.732" y2="57.409" gradientUnits="userSpaceOnUse"><stop stop-color="#09C6F9"/><stop offset="1" stop-color="#045DE9"/></linearGradient><linearGradient id="c" x1=".488" y1="-.123" x2="29.732" y2="57.409" gradientUnits="userSpaceOnUse"><stop stop-color="#09C6F9"/><stop offset="1" stop-color="#045DE9"/></linearGradient><linearGradient id="d" x1=".488" y1="-.123" x2="29.732" y2="57.409" gradientUnits="userSpaceOnUse"><stop stop-color="#09C6F9"/><stop offset="1" stop-color="#045DE9"/></linearGradient></defs></svg>