<svg width="153" height="33" viewBox="0 0 153 33" xmlns="http://www.w3.org/2000/svg"><path d="M96.65 32.636c8.836 0 15.999-7.162 15.999-15.998 0-8.836-7.163-15.999-15.999-15.999-8.835 0-15.998 7.163-15.998 15.999s7.163 15.998 15.998 15.998Z" fill="#FCA311"/><path d="M96.65 32.636c8.836 0 15.999-7.162 15.999-15.998 0-8.836-7.163-15.999-15.999-15.999-8.835 0-15.998 7.163-15.998 15.999s7.163 15.998 15.998 15.998Z" fill="url(#a)"/><path d="M91.843 20.637V17.65l-2.82-5.416h1.739l1.86 3.877 1.851-3.877h1.713l-2.809 5.412v2.986l-1.534.004Zm7.283 0V13.47h-2.445v-1.235h6.444v1.236h-2.461v7.166h-1.538Z" fill="#fff"/><path d="M136.649 32.636c8.836 0 15.999-7.162 15.999-15.998 0-8.836-7.163-15.999-15.999-15.999S120.65 7.802 120.65 16.638s7.163 15.998 15.999 15.998Z" fill="#FCA311"/><path d="M136.649 32.636c8.836 0 15.999-7.162 15.999-15.998 0-8.836-7.163-15.999-15.999-15.999S120.65 7.802 120.65 16.638s7.163 15.998 15.999 15.998Z" fill="url(#b)"/><path d="M132.579 20.637v-8.402h1.534v7.2h3.723v1.202h-5.257Zm6.61 0v-8.402h1.534v8.402h-1.534Z" fill="#fff"/><path d="M56.652 32.636c8.835 0 15.998-7.162 15.998-15.998C72.65 7.802 65.487.639 56.652.639c-8.836 0-16 7.163-16 15.999s7.164 15.998 16 15.998Z" fill="#FCA311"/><path d="M56.652 32.636c8.835 0 15.998-7.162 15.998-15.998C72.65 7.802 65.487.639 56.652.639c-8.836 0-16 7.163-16 15.999s7.164 15.998 16 15.998Z" fill="url(#c)"/><path d="M50.465 20.637v-8.402h1.538v8.402h-1.538Zm6.837.143a3.678 3.678 0 0 1-3.455-2.04 4.933 4.933 0 0 1-.491-2.257c0-.862.166-1.625.503-2.28a3.768 3.768 0 0 1 1.45-1.549c.632-.374 1.38-.563 2.246-.563.983 0 1.799.238 2.445.71a3.228 3.228 0 0 1 1.263 1.955h-1.716a1.663 1.663 0 0 0-.696-.911 2.29 2.29 0 0 0-1.296-.34c-.843 0-1.49.272-1.947.808-.453.53-.68 1.255-.68 2.181 0 .93.223 1.652.67 2.162.453.503 1.073.756 1.851.756.756 0 1.33-.204 1.712-.612a2.785 2.785 0 0 0 .707-1.633h-2.12v-1.153h3.67v4.623H60l-.117-1.104c-.259.387-.61.704-1.02.922a3.315 3.315 0 0 1-1.561.325Z" fill="#fff"/><path d="M16.65 32.636c8.835 0 15.998-7.162 15.998-15.998 0-8.836-7.163-15.999-15.999-15.999S.65 7.802.65 16.638s7.163 15.998 16 15.998Z" fill="#FCA311"/><path d="M16.65 32.636c8.835 0 15.998-7.162 15.998-15.998 0-8.836-7.163-15.999-15.999-15.999S.65 7.802.65 16.638s7.163 15.998 16 15.998Z" fill="url(#d)"/><path d="M9.464 20.637v-8.402h5.428v1.236h-3.893v2.354h3.148v1.21h-3.145v3.602H9.464Zm6.614 0v-8.402h3.368c.873 0 1.538.204 1.992.612a1.951 1.951 0 0 1 .695 1.55c0 .529-.143.952-.43 1.27a2.11 2.11 0 0 1-1.032.638c.468.09.89.345 1.186.718.311.37.477.84.469 1.323a2.116 2.116 0 0 1-.718 1.64c-.48.435-1.16.65-2.041.65h-3.489Zm1.531-4.876h1.61c.357.024.71-.082.994-.299a1.062 1.062 0 0 0 .352-.85 1.036 1.036 0 0 0-.352-.832c-.223-.204-.563-.31-1.02-.31h-1.584v2.29Zm0 3.628h1.716c.379.024.754-.087 1.058-.313a1.115 1.115 0 0 0 .382-.9 1.149 1.149 0 0 0-.393-.926 1.595 1.595 0 0 0-1.07-.332H17.61v2.471Z" fill="#fff"/><defs><linearGradient id="a" x1="80.646" y1=".476" x2="100.143" y2="38.83" gradientUnits="userSpaceOnUse"><stop stop-color="#09C6F9"/><stop offset="1" stop-color="#045DE9"/></linearGradient><linearGradient id="b" x1="120.646" y1=".476" x2="140.142" y2="38.83" gradientUnits="userSpaceOnUse"><stop stop-color="#09C6F9"/><stop offset="1" stop-color="#045DE9"/></linearGradient><linearGradient id="c" x1="40.647" y1=".476" x2="60.144" y2="38.83" gradientUnits="userSpaceOnUse"><stop stop-color="#09C6F9"/><stop offset="1" stop-color="#045DE9"/></linearGradient><linearGradient id="d" x1=".647" y1=".476" x2="20.144" y2="38.83" gradientUnits="userSpaceOnUse"><stop stop-color="#09C6F9"/><stop offset="1" stop-color="#045DE9"/></linearGradient></defs></svg>