<?xml version="1.0" encoding="UTF-8" standalone="no"?>
<!-- Created with Inkscape (http://www.inkscape.org/) -->

<svg
   width="210mm"
   height="297mm"
   viewBox="0 0 210 297"
   version="1.1"
   id="svg7083"
   xml:space="preserve"
   inkscape:version="1.2.1 (9c6d41e410, 2022-07-14)"
   sodipodi:docname="SmallIcons.svg"
   xmlns:inkscape="http://www.inkscape.org/namespaces/inkscape"
   xmlns:sodipodi="http://sodipodi.sourceforge.net/DTD/sodipodi-0.dtd"
   xmlns:xlink="http://www.w3.org/1999/xlink"
   xmlns="http://www.w3.org/2000/svg"
   xmlns:svg="http://www.w3.org/2000/svg"><sodipodi:namedview
     id="namedview7085"
     pagecolor="#ffffff"
     bordercolor="#000000"
     borderopacity="0.25"
     inkscape:showpageshadow="2"
     inkscape:pageopacity="0.0"
     inkscape:pagecheckerboard="0"
     inkscape:deskcolor="#d1d1d1"
     inkscape:document-units="mm"
     showgrid="false"
     inkscape:zoom="0.71624579"
     inkscape:cx="396.51193"
     inkscape:cy="587.08896"
     inkscape:window-width="1920"
     inkscape:window-height="991"
     inkscape:window-x="-9"
     inkscape:window-y="-9"
     inkscape:window-maximized="1"
     inkscape:current-layer="layer1" /><defs
     id="defs7080"><linearGradient
       id="paint0_linear_0_1"
       x1="760"
       y1="866.778"
       x2="789.245"
       y2="924.311"
       gradientUnits="userSpaceOnUse"><stop
         stop-color="#09C6F9"
         id="stop7791" /><stop
         offset="1"
         stop-color="#045DE9"
         id="stop7793" /></linearGradient><linearGradient
       id="paint4_linear_0_1"
       x1="639"
       y1="866.778"
       x2="668.245"
       y2="924.311"
       gradientUnits="userSpaceOnUse"><stop
         stop-color="#09C6F9"
         id="stop7811" /><stop
         offset="1"
         stop-color="#045DE9"
         id="stop7813" /></linearGradient><linearGradient
       id="paint8_linear_0_1"
       x1="518"
       y1="860.718"
       x2="559.936"
       y2="925.635"
       gradientUnits="userSpaceOnUse"
       gradientTransform="matrix(0.26458333,0,0,0.26458333,-28.071765,-157.87009)"><stop
         stop-color="#09C6F9"
         id="stop7831" /><stop
         offset="1"
         stop-color="#045DE9"
         id="stop7833" /></linearGradient><linearGradient
       id="paint9_linear_0_1"
       x1="760"
       y1="768.778"
       x2="789.245"
       y2="826.311"
       gradientUnits="userSpaceOnUse"
       gradientTransform="matrix(0.26458333,0,0,0.26458333,-140.73968,-151.22083)"><stop
         stop-color="#09C6F9"
         id="stop7836" /><stop
         offset="1"
         stop-color="#045DE9"
         id="stop7838" /></linearGradient><linearGradient
       id="paint10_linear_0_1"
       x1="633"
       y1="770.792"
       x2="655.593"
       y2="830.053"
       gradientUnits="userSpaceOnUse"
       gradientTransform="matrix(0.26458333,0,0,0.26458333,-45.064302,-69.582773)"><stop
         stop-color="#09C6F9"
         id="stop7841" /><stop
         offset="1"
         stop-color="#045DE9"
         id="stop7843" /></linearGradient><linearGradient
       id="paint11_linear_0_1"
       x1="512"
       y1="770.792"
       x2="534.593"
       y2="830.053"
       gradientUnits="userSpaceOnUse"
       gradientTransform="matrix(0.26458333,0,0,0.26458333,-113.40385,-154.17606)"><stop
         stop-color="#09C6F9"
         id="stop7846" /><stop
         offset="1"
         stop-color="#045DE9"
         id="stop7848" /></linearGradient><linearGradient
       id="paint12_linear_0_1"
       x1="351"
       y1="842.852"
       x2="370.497"
       y2="881.207"
       gradientUnits="userSpaceOnUse"
       gradientTransform="matrix(0.26458333,0,0,0.26458333,-45.064302,-69.582773)"><stop
         stop-color="#09C6F9"
         id="stop7851" /><stop
         offset="1"
         stop-color="#045DE9"
         id="stop7853" /></linearGradient><linearGradient
       id="paint13_linear_0_1"
       x1="391"
       y1="842.852"
       x2="410.497"
       y2="881.207"
       gradientUnits="userSpaceOnUse"
       gradientTransform="matrix(0.26458333,0,0,0.26458333,-45.064302,-69.582773)"><stop
         stop-color="#09C6F9"
         id="stop7856" /><stop
         offset="1"
         stop-color="#045DE9"
         id="stop7858" /></linearGradient><linearGradient
       id="paint14_linear_0_1"
       x1="311"
       y1="842.852"
       x2="330.497"
       y2="881.207"
       gradientUnits="userSpaceOnUse"
       gradientTransform="matrix(0.26458333,0,0,0.26458333,-45.064302,-69.582773)"><stop
         stop-color="#09C6F9"
         id="stop7861" /><stop
         offset="1"
         stop-color="#045DE9"
         id="stop7863" /></linearGradient><linearGradient
       id="paint15_linear_0_1"
       x1="271"
       y1="842.852"
       x2="290.497"
       y2="881.207"
       gradientUnits="userSpaceOnUse"
       gradientTransform="matrix(0.26458333,0,0,0.26458333,-45.064302,-69.582773)"><stop
         stop-color="#09C6F9"
         id="stop7866" /><stop
         offset="1"
         stop-color="#045DE9"
         id="stop7868" /></linearGradient><clipPath
       id="clip0_0_1"><rect
         width="544"
         height="420"
         fill="white"
         transform="translate(0 39)"
         id="rect7871" /></clipPath><linearGradient
       inkscape:collect="always"
       xlink:href="#paint0_linear_0_1"
       id="linearGradient8266"
       gradientUnits="userSpaceOnUse"
       x1="760"
       y1="866.778"
       x2="789.245"
       y2="924.311"
       gradientTransform="matrix(0.26458333,0,0,0.26458333,-38.784451,-124.99322)" /><linearGradient
       inkscape:collect="always"
       xlink:href="#paint0_linear_0_1"
       id="linearGradient8268"
       gradientUnits="userSpaceOnUse"
       x1="760"
       y1="866.778"
       x2="789.245"
       y2="924.311"
       gradientTransform="matrix(0.26458333,0,0,0.26458333,-38.784451,-124.99322)" /><linearGradient
       inkscape:collect="always"
       xlink:href="#paint0_linear_0_1"
       id="linearGradient8270"
       gradientUnits="userSpaceOnUse"
       x1="760"
       y1="866.778"
       x2="789.245"
       y2="924.311"
       gradientTransform="matrix(0.26458333,0,0,0.26458333,-38.784451,-124.99322)" /><linearGradient
       inkscape:collect="always"
       xlink:href="#paint0_linear_0_1"
       id="linearGradient8272"
       gradientUnits="userSpaceOnUse"
       x1="760"
       y1="866.778"
       x2="789.245"
       y2="924.311"
       gradientTransform="matrix(0.26458333,0,0,0.26458333,-38.784451,-124.99322)" /><linearGradient
       inkscape:collect="always"
       xlink:href="#paint4_linear_0_1"
       id="linearGradient8274"
       gradientUnits="userSpaceOnUse"
       x1="639"
       y1="866.778"
       x2="668.245"
       y2="924.311"
       gradientTransform="matrix(0.26458333,0,0,0.26458333,-45.064302,-69.582773)" /><linearGradient
       inkscape:collect="always"
       xlink:href="#paint4_linear_0_1"
       id="linearGradient8276"
       gradientUnits="userSpaceOnUse"
       x1="639"
       y1="866.778"
       x2="668.245"
       y2="924.311"
       gradientTransform="matrix(0.26458333,0,0,0.26458333,-45.064302,-69.582773)" /><linearGradient
       inkscape:collect="always"
       xlink:href="#paint4_linear_0_1"
       id="linearGradient8278"
       gradientUnits="userSpaceOnUse"
       x1="639"
       y1="866.778"
       x2="668.245"
       y2="924.311"
       gradientTransform="matrix(0.26458333,0,0,0.26458333,-45.064302,-69.582773)" /><linearGradient
       inkscape:collect="always"
       xlink:href="#paint4_linear_0_1"
       id="linearGradient8280"
       gradientUnits="userSpaceOnUse"
       x1="639"
       y1="866.778"
       x2="668.245"
       y2="924.311"
       gradientTransform="matrix(0.26458333,0,0,0.26458333,-45.064302,-69.582773)" /></defs><g
     inkscape:label="Layer 1"
     inkscape:groupmode="layer"
     id="layer1"><path
       d="m 168.1422,104.40052 v 3.81159 h -5.47872 c 0.57864,-1.78276 2.04734,-3.14934 3.88964,-3.58246 0.52387,-0.1233 1.05542,-0.1995 1.58908,-0.22913 z"
       fill="#fca311"
       id="path7719"
       style="stroke-width:0.264583" /><path
       d="m 168.1422,104.40052 v 3.81159 h -5.47872 c 0.57864,-1.78276 2.04734,-3.14934 3.88964,-3.58246 0.52387,-0.1233 1.05542,-0.1995 1.58908,-0.22913 z"
       fill="url(#paint0_linear_0_1)"
       id="path7721"
       style="fill:url(#linearGradient8266);stroke-width:0.264583" /><path
       d="m 169.15556,104.40052 v 7.87294 h 5.71658 c 0.20135,-1.20147 0.16272,-2.43311 -0.11588,-3.6232 -0.46673,-1.99496 -2.02116,-3.55283 -4.01162,-4.02061 -0.52361,-0.1233 -1.05542,-0.1995 -1.58908,-0.22913 z"
       fill="#fca311"
       id="path7723"
       style="stroke-width:0.264583" /><path
       d="m 169.15556,104.40052 v 7.87294 h 5.71658 c 0.20135,-1.20147 0.16272,-2.43311 -0.11588,-3.6232 -0.46673,-1.99496 -2.02116,-3.55283 -4.01162,-4.02061 -0.52361,-0.1233 -1.05542,-0.1995 -1.58908,-0.22913 z"
       fill="url(#paint1_linear_0_1)"
       id="path7725"
       style="fill:url(#linearGradient8268);stroke-width:0.264583" /><path
       d="m 174.63428,113.28893 h -5.47872 v 3.81159 c 0.53366,-0.0296 1.06547,-0.10583 1.58908,-0.22913 1.8423,-0.43312 3.311,-1.79969 3.88964,-3.58246 z"
       fill="#fca311"
       id="path7727"
       style="stroke-width:0.264583" /><path
       d="m 174.63428,113.28893 h -5.47872 v 3.81159 c 0.53366,-0.0296 1.06547,-0.10583 1.58908,-0.22913 1.8423,-0.43312 3.311,-1.79969 3.88964,-3.58246 z"
       fill="url(#paint2_linear_0_1)"
       id="path7729"
       style="fill:url(#linearGradient8270);stroke-width:0.264583" /><path
       d="m 168.1422,117.10052 v -7.87294 h -5.71658 c -0.20135,1.20147 -0.16272,2.43311 0.11588,3.6232 0.46673,1.99496 2.02115,3.55283 4.01162,4.02061 0.52387,0.1233 1.05542,0.1995 1.58908,0.22913 z"
       fill="#fca311"
       id="path7731"
       style="stroke-width:0.264583" /><path
       d="m 168.1422,117.10052 v -7.87294 h -5.71658 c -0.20135,1.20147 -0.16272,2.43311 0.11588,3.6232 0.46673,1.99496 2.02115,3.55283 4.01162,4.02061 0.52387,0.1233 1.05542,0.1995 1.58908,0.22913 z"
       fill="url(#paint3_linear_0_1)"
       id="path7733"
       style="fill:url(#linearGradient8272);stroke-width:0.264583" /><path
       d="m 127.66707,159.92104 c -0.62547,-0.14685 -1.27635,-0.14685 -1.90182,0 -0.81915,0.19209 -1.45865,0.83158 -1.65074,1.65073 -0.14684,0.62548 -0.14684,1.27635 0,1.90183 0.19209,0.81915 0.83159,1.45891 1.65074,1.651 0.62547,0.14658 1.27635,0.14658 1.90182,0 0.81915,-0.19209 1.45892,-0.83185 1.651,-1.651 0.14658,-0.62548 0.14658,-1.27635 0,-1.90183 -0.19208,-0.81915 -0.83185,-1.45864 -1.651,-1.65073 z"
       fill="#fca311"
       id="path7735"
       style="stroke-width:0.264583" /><path
       d="m 127.66707,159.92104 c -0.62547,-0.14685 -1.27635,-0.14685 -1.90182,0 -0.81915,0.19209 -1.45865,0.83158 -1.65074,1.65073 -0.14684,0.62548 -0.14684,1.27635 0,1.90183 0.19209,0.81915 0.83159,1.45891 1.65074,1.651 0.62547,0.14658 1.27635,0.14658 1.90182,0 0.81915,-0.19209 1.45892,-0.83185 1.651,-1.651 0.14658,-0.62548 0.14658,-1.27635 0,-1.90183 -0.19208,-0.81915 -0.83185,-1.45864 -1.651,-1.65073 z"
       fill="url(#paint4_linear_0_1)"
       id="path7737"
       style="fill:url(#linearGradient8274);stroke-width:0.264583" /><path
       d="m 127.66707,167.19734 c -0.62547,-0.14658 -1.27635,-0.14658 -1.90182,0 -0.81915,0.19209 -1.45865,0.83185 -1.65074,1.651 -0.14684,0.62548 -0.14684,1.27635 0,1.90183 0.19209,0.81915 0.83159,1.45865 1.65074,1.65073 0.62547,0.14685 1.27635,0.14685 1.90182,0 0.81915,-0.19208 1.45892,-0.83158 1.651,-1.65073 0.14658,-0.62548 0.14658,-1.27635 0,-1.90183 -0.19208,-0.81915 -0.83185,-1.45891 -1.651,-1.651 z"
       fill="#fca311"
       id="path7739"
       style="stroke-width:0.264583" /><path
       d="m 127.66707,167.19734 c -0.62547,-0.14658 -1.27635,-0.14658 -1.90182,0 -0.81915,0.19209 -1.45865,0.83185 -1.65074,1.651 -0.14684,0.62548 -0.14684,1.27635 0,1.90183 0.19209,0.81915 0.83159,1.45865 1.65074,1.65073 0.62547,0.14685 1.27635,0.14685 1.90182,0 0.81915,-0.19208 1.45892,-0.83158 1.651,-1.65073 0.14658,-0.62548 0.14658,-1.27635 0,-1.90183 -0.19208,-0.81915 -0.83185,-1.45891 -1.651,-1.651 z"
       fill="url(#paint5_linear_0_1)"
       id="path7741"
       style="fill:url(#linearGradient8276);stroke-width:0.264583" /><path
       d="m 134.94364,159.92104 c -0.62547,-0.14685 -1.27635,-0.14685 -1.90182,0 -0.81915,0.19209 -1.45891,0.83158 -1.651,1.65073 -0.14658,0.62548 -0.14658,1.27635 0,1.90183 0.19209,0.81915 0.83185,1.45891 1.651,1.651 0.62547,0.14658 1.27635,0.14658 1.90182,0 0.81915,-0.19209 1.45865,-0.83185 1.65074,-1.651 0.14684,-0.62548 0.14684,-1.27635 0,-1.90183 -0.19209,-0.81915 -0.83159,-1.45864 -1.65074,-1.65073 z"
       fill="#fca311"
       id="path7743"
       style="stroke-width:0.264583" /><path
       d="m 134.94364,159.92104 c -0.62547,-0.14685 -1.27635,-0.14685 -1.90182,0 -0.81915,0.19209 -1.45891,0.83158 -1.651,1.65073 -0.14658,0.62548 -0.14658,1.27635 0,1.90183 0.19209,0.81915 0.83185,1.45891 1.651,1.651 0.62547,0.14658 1.27635,0.14658 1.90182,0 0.81915,-0.19209 1.45865,-0.83185 1.65074,-1.651 0.14684,-0.62548 0.14684,-1.27635 0,-1.90183 -0.19209,-0.81915 -0.83159,-1.45864 -1.65074,-1.65073 z"
       fill="url(#paint6_linear_0_1)"
       id="path7745"
       style="fill:url(#linearGradient8278);stroke-width:0.264583" /><path
       d="m 134.94364,167.19734 c -0.62547,-0.14658 -1.27635,-0.14658 -1.90182,0 -0.81915,0.19209 -1.45891,0.83185 -1.651,1.651 -0.14658,0.62548 -0.14658,1.27635 0,1.90183 0.19209,0.81915 0.83185,1.45865 1.651,1.65073 0.62547,0.14685 1.27635,0.14685 1.90182,0 0.81915,-0.19208 1.45865,-0.83158 1.65074,-1.65073 0.14684,-0.62548 0.14684,-1.27635 0,-1.90183 -0.19209,-0.81915 -0.83159,-1.45891 -1.65074,-1.651 z"
       fill="#fca311"
       id="path7747"
       style="stroke-width:0.264583" /><path
       d="m 134.94364,167.19734 c -0.62547,-0.14658 -1.27635,-0.14658 -1.90182,0 -0.81915,0.19209 -1.45891,0.83185 -1.651,1.651 -0.14658,0.62548 -0.14658,1.27635 0,1.90183 0.19209,0.81915 0.83185,1.45865 1.651,1.65073 0.62547,0.14685 1.27635,0.14685 1.90182,0 0.81915,-0.19208 1.45865,-0.83158 1.65074,-1.65073 0.14684,-0.62548 0.14684,-1.27635 0,-1.90183 -0.19209,-0.81915 -0.83159,-1.45891 -1.65074,-1.651 z"
       fill="url(#paint7_linear_0_1)"
       id="path7749"
       style="fill:url(#linearGradient8280);stroke-width:0.264583" /><path
       fill-rule="evenodd"
       clip-rule="evenodd"
       d="m 117.69249,81.706147 -0.36989,0.0815 v 0.49186 c 0,0.84323 -0.53023,1.56052 -1.27,1.82642 v 1.32424 c 0,0.35666 -0.28443,0.64558 -0.635,0.64558 -0.35084,0 -0.63527,-0.28892 -0.63527,-0.64558 v -1.32424 c -0.73977,-0.2659 -1.27,-0.98319 -1.27,-1.82642 v -0.45587 c -0.055,-0.0111 -0.11033,-0.0228 -0.16536,-0.0349 l -0.37465,-0.0826 c -1.82827,-0.4027 -3.27502,-1.82245 -3.73539,-3.6658 -0.33946,-1.35837 -0.33946,-2.7813 0,-4.13967 0.46037,-1.84309 1.90712,-3.26311 3.73539,-3.6658 l 0.37465,-0.0826 c 1.30836,-0.28814 2.6625,-0.28814 3.97087,0 l 0.37465,0.0826 c 1.82827,0.40269 3.27501,1.82271 3.73538,3.66606 0.33946,1.35811 0.33946,2.78104 0,4.13941 -0.46037,1.84335 -1.90711,3.2631 -3.73538,3.6658 z m -1.63989,0.27067 c -0.0738,0.006 -0.14738,0.0106 -0.2212,0.0145 -0.34951,0.019 -0.69955,0.018 -1.04907,-0.003 v 0.29104 c 0,0.3564 0.28443,0.64559 0.63527,0.64559 0.35057,0 0.635,-0.28919 0.635,-0.64559 z m 0.0209,-8.57038 c 0.21907,0.17806 0.25479,0.50323 0.0794,0.72575 l -1.0332,1.31286 h 1.48325 c 0.19527,0 0.37333,0.11377 0.458,0.29289 0.0844,0.17886 0.0606,0.39132 -0.0614,0.54637 l -1.69334,2.15186 c -0.17542,0.22277 -0.49503,0.25876 -0.71411,0.0807 -0.21907,-0.17833 -0.25453,-0.50323 -0.0794,-0.72601 l 1.0332,-1.31287 h -1.48325 c -0.19527,0 -0.37333,-0.11377 -0.45773,-0.29263 -0.0847,-0.17885 -0.0609,-0.39131 0.0611,-0.54636 l 1.69333,-2.15186 c 0.17542,-0.22277 0.49504,-0.25902 0.71411,-0.0807 z"
       fill="#fca311"
       id="path7751"
       style="stroke-width:0.264583" /><path
       fill-rule="evenodd"
       clip-rule="evenodd"
       d="m 117.69249,81.706147 -0.36989,0.0815 v 0.49186 c 0,0.84323 -0.53023,1.56052 -1.27,1.82642 v 1.32424 c 0,0.35666 -0.28443,0.64558 -0.635,0.64558 -0.35084,0 -0.63527,-0.28892 -0.63527,-0.64558 v -1.32424 c -0.73977,-0.2659 -1.27,-0.98319 -1.27,-1.82642 v -0.45587 c -0.055,-0.0111 -0.11033,-0.0228 -0.16536,-0.0349 l -0.37465,-0.0826 c -1.82827,-0.4027 -3.27502,-1.82245 -3.73539,-3.6658 -0.33946,-1.35837 -0.33946,-2.7813 0,-4.13967 0.46037,-1.84309 1.90712,-3.26311 3.73539,-3.6658 l 0.37465,-0.0826 c 1.30836,-0.28814 2.6625,-0.28814 3.97087,0 l 0.37465,0.0826 c 1.82827,0.40269 3.27501,1.82271 3.73538,3.66606 0.33946,1.35811 0.33946,2.78104 0,4.13941 -0.46037,1.84335 -1.90711,3.2631 -3.73538,3.6658 z m -1.63989,0.27067 c -0.0738,0.006 -0.14738,0.0106 -0.2212,0.0145 -0.34951,0.019 -0.69955,0.018 -1.04907,-0.003 v 0.29104 c 0,0.3564 0.28443,0.64559 0.63527,0.64559 0.35057,0 0.635,-0.28919 0.635,-0.64559 z m 0.0209,-8.57038 c 0.21907,0.17806 0.25479,0.50323 0.0794,0.72575 l -1.0332,1.31286 h 1.48325 c 0.19527,0 0.37333,0.11377 0.458,0.29289 0.0844,0.17886 0.0606,0.39132 -0.0614,0.54637 l -1.69334,2.15186 c -0.17542,0.22277 -0.49503,0.25876 -0.71411,0.0807 -0.21907,-0.17833 -0.25453,-0.50323 -0.0794,-0.72601 l 1.0332,-1.31287 h -1.48325 c -0.19527,0 -0.37333,-0.11377 -0.45773,-0.29263 -0.0847,-0.17885 -0.0609,-0.39131 0.0611,-0.54636 l 1.69333,-2.15186 c 0.17542,-0.22277 0.49504,-0.25902 0.71411,-0.0807 z"
       fill="url(#paint8_linear_0_1)"
       id="path7753"
       style="fill:url(#paint8_linear_0_1);stroke-width:0.264583" /><path
       fill-rule="evenodd"
       clip-rule="evenodd"
       d="m 64.597897,52.48637 c 1.37847,-0.32359 2.81305,-0.32359 4.19152,0 1.99046,0.46672 3.54489,2.02115 4.01162,4.01161 0.32358,1.37848 0.32358,2.81305 0,4.19153 -0.46673,1.99046 -2.02116,3.54489 -4.01162,4.01161 -1.37847,0.32359 -2.81305,0.32359 -4.19152,0 -1.99047,-0.46672 -3.54489,-2.02115 -4.01162,-4.01161 -0.32358,-1.37848 -0.32358,-2.81305 0,-4.19153 0.46673,-1.99046 2.02115,-3.54489 4.01162,-4.01161 z m 3.14695,4.70508 c 0.22066,-0.0884 0.43947,0.13044 0.35137,0.35111 l -0.5506,1.37636 c -0.0961,0.24024 -0.28655,0.43047 -0.52679,0.52678 l -1.37636,0.55034 c -0.2204,0.0884 -0.43947,-0.13044 -0.3511,-0.35111 l 0.5506,-1.37636 c 0.096,-0.24024 0.28628,-0.43048 0.52678,-0.52678 z m 1.10384,0.6522 c 0.35296,-0.88238 -0.52255,-1.75763 -1.40467,-1.40494 l -1.37636,0.5506 c -0.44636,0.1786 -0.79984,0.53208 -0.97843,0.97843 l -0.55034,1.3761 c -0.35295,0.88238 0.52256,1.75763 1.40468,1.40494 l 1.37636,-0.5506 c 0.44609,-0.1786 0.79983,-0.53208 0.97816,-0.97843 z"
       fill="#fca311"
       id="path7755"
       style="stroke-width:0.264583" /><path
       fill-rule="evenodd"
       clip-rule="evenodd"
       d="m 64.597897,52.48637 c 1.37847,-0.32359 2.81305,-0.32359 4.19152,0 1.99046,0.46672 3.54489,2.02115 4.01162,4.01161 0.32358,1.37848 0.32358,2.81305 0,4.19153 -0.46673,1.99046 -2.02116,3.54489 -4.01162,4.01161 -1.37847,0.32359 -2.81305,0.32359 -4.19152,0 -1.99047,-0.46672 -3.54489,-2.02115 -4.01162,-4.01161 -0.32358,-1.37848 -0.32358,-2.81305 0,-4.19153 0.46673,-1.99046 2.02115,-3.54489 4.01162,-4.01161 z m 3.14695,4.70508 c 0.22066,-0.0884 0.43947,0.13044 0.35137,0.35111 l -0.5506,1.37636 c -0.0961,0.24024 -0.28655,0.43047 -0.52679,0.52678 l -1.37636,0.55034 c -0.2204,0.0884 -0.43947,-0.13044 -0.3511,-0.35111 l 0.5506,-1.37636 c 0.096,-0.24024 0.28628,-0.43048 0.52678,-0.52678 z m 1.10384,0.6522 c 0.35296,-0.88238 -0.52255,-1.75763 -1.40467,-1.40494 l -1.37636,0.5506 c -0.44636,0.1786 -0.79984,0.53208 -0.97843,0.97843 l -0.55034,1.3761 c -0.35295,0.88238 0.52256,1.75763 1.40468,1.40494 l 1.37636,-0.5506 c 0.44609,-0.1786 0.79983,-0.53208 0.97816,-0.97843 z"
       fill="url(#paint9_linear_0_1)"
       id="path7757"
       style="fill:url(#paint9_linear_0_1);stroke-width:0.264583" /><circle
       cx="52.037781"
       cy="157.69431"
       r="4.2333331"
       fill="#fca311"
       id="circle7767"
       style="stroke-width:0.264583" /><circle
       cx="52.037781"
       cy="157.69431"
       r="4.2333331"
       fill="url(#paint12_linear_0_1)"
       id="circle7769"
       style="fill:url(#paint12_linear_0_1);stroke-width:0.264583" /><path
       d="m 50.765928,158.75264 v -0.79058 l -0.746125,-1.43192 h 0.460375 l 0.492125,1.02552 0.48895,-1.02552 h 0.454025 l -0.74295,1.43192 v 0.79058 z m 1.927225,0 v -1.89548 h -0.6477 v -0.32702 h 1.704975 v 0.32702 h -0.650875 v 1.89548 z"
       fill="#ffffff"
       id="path7771"
       style="stroke-width:0.264583" /><circle
       cx="62.621117"
       cy="157.69431"
       r="4.2333331"
       fill="#fca311"
       id="circle7773"
       style="stroke-width:0.264583" /><circle
       cx="62.621117"
       cy="157.69431"
       r="4.2333331"
       fill="url(#paint13_linear_0_1)"
       id="circle7775"
       style="fill:url(#paint13_linear_0_1);stroke-width:0.264583" /><path
       d="m 61.543995,158.75264 v -2.2225 h 0.4064 v 1.905 h 0.98425 v 0.3175 z m 1.748895,0 v -2.2225 h 0.4064 v 2.2225 z"
       fill="#ffffff"
       id="path7777"
       style="stroke-width:0.264583" /><circle
       cx="41.454449"
       cy="157.69431"
       r="4.2333331"
       fill="#fca311"
       id="circle7779"
       style="stroke-width:0.264583" /><circle
       cx="41.454449"
       cy="157.69431"
       r="4.2333331"
       fill="url(#paint14_linear_0_1)"
       id="circle7781"
       style="fill:url(#paint14_linear_0_1);stroke-width:0.264583" /><path
       d="m 39.818264,158.75264 v -2.2225 h 0.4064 v 2.2225 z m 1.808691,0.0381 c -0.20955,0 -0.392641,-0.0476 -0.549275,-0.14288 -0.156633,-0.0952 -0.278341,-0.22754 -0.365125,-0.39687 -0.08678,-0.17145 -0.130175,-0.37042 -0.130175,-0.5969 0,-0.2286 0.04445,-0.42969 0.13335,-0.60325 0.09102,-0.17569 0.219075,-0.31221 0.384175,-0.40958 0.167217,-0.0995 0.365125,-0.14922 0.593725,-0.14922 0.26035,0 0.47625,0.0624 0.6477,0.18732 0.17145,0.12489 0.282575,0.29739 0.333375,0.51753 H 42.22068 c -0.03387,-0.10372 -0.09525,-0.18415 -0.18415,-0.2413 -0.0889,-0.0593 -0.2032,-0.0889 -0.3429,-0.0889 -0.22225,0 -0.3937,0.0709 -0.51435,0.21272 -0.12065,0.1397 -0.180975,0.33232 -0.180975,0.57785 0,0.24554 0.05927,0.43604 0.1778,0.5715 0.12065,0.13335 0.283634,0.20003 0.48895,0.20003 0.201084,0 0.352425,-0.054 0.454025,-0.16193 0.103717,-0.11006 0.166159,-0.254 0.187325,-0.4318 H 41.74443 v -0.3048 h 0.97155 v 1.22238 h -0.37465 l -0.03175,-0.2921 c -0.07197,0.10583 -0.161925,0.18732 -0.269875,0.24447 -0.10795,0.0572 -0.245533,0.0857 -0.41275,0.0857 z"
       fill="#ffffff"
       id="path7783"
       style="stroke-width:0.264583" /><circle
       cx="30.871115"
       cy="157.69431"
       r="4.2333331"
       fill="#fca311"
       id="circle7785"
       style="stroke-width:0.264583" /><circle
       cx="30.871115"
       cy="157.69431"
       r="4.2333331"
       fill="url(#paint15_linear_0_1)"
       id="circle7787"
       style="fill:url(#paint15_linear_0_1);stroke-width:0.264583" /><path
       d="m 28.970347,158.75264 v -2.2225 h 1.4351 v 0.32702 h -1.0287 v 0.6223 h 0.83185 v 0.32068 h -0.83185 v 0.9525 z m 1.748631,0 v -2.2225 h 0.892175 c 0.230717,0 0.4064,0.054 0.52705,0.16192 0.122767,0.10584 0.18415,0.24236 0.18415,0.40958 0,0.1397 -0.0381,0.25188 -0.1143,0.33655 -0.07408,0.0825 -0.1651,0.13864 -0.27305,0.16827 0.127,0.0254 0.231775,0.0889 0.314325,0.1905 0.08255,0.0995 0.123825,0.2159 0.123825,0.34925 0,0.17569 -0.0635,0.32068 -0.1905,0.43498 -0.127,0.1143 -0.306916,0.17145 -0.53975,0.17145 z m 0.4064,-1.28905 h 0.42545 c 0.1143,0 0.202142,-0.0265 0.263525,-0.0794 0.06138,-0.0529 0.09207,-0.12806 0.09207,-0.22542 0,-0.0931 -0.03069,-0.16616 -0.09207,-0.21908 -0.05927,-0.055 -0.149225,-0.0825 -0.269875,-0.0825 h -0.4191 z m 0,0.95885 h 0.454025 c 0.12065,0 0.213784,-0.0275 0.2794,-0.0826 0.06773,-0.0571 0.1016,-0.13653 0.1016,-0.23813 0,-0.10371 -0.03493,-0.18521 -0.104775,-0.24447 -0.06985,-0.0593 -0.164041,-0.0889 -0.282575,-0.0889 h -0.447675 z"
       fill="#ffffff"
       id="path7789"
       style="stroke-width:0.264583" /></g></svg>
