<svg width="467" height="221" viewBox="0 0 467 221" fill="none" xmlns="http://www.w3.org/2000/svg"><path d="M80.123 208.686S22.116 182.707 5.42 138.479C-11.273 94.251 14.204 40.63 62.546 13.563c48.343-27.068 135.352-8.844 174.02 13.82l38.678 22.666s36.915 12.692 85.247 11.61c48.331-1.082 91.406 40.36 102.833 72.979 11.427 32.618-15.824 75.731-15.824 75.731l-367.377-1.683Z" fill="#DDECFF"/><path d="M53.764 215.319s-40.43-13.821-50.976-45.885S37.94 108.072 42.337 92.04c4.396-16.033-5.31-35.932 35.152-51.437C117.95 25.1 189.986 30.677 217.237 26.816c27.251-3.861 58.867-30.414 113.379-24.335C385.129 8.56 437.878 26.809 440.47 66.609c2.591 39.799-17.576 40.908 2.644 62.471 20.221 21.563 28.122 36.486 18.458 58.597-9.664 22.111-29.885 28.183-29.885 28.183l-377.923-.541Z" fill="#DDECFF" style="mix-blend-mode:multiply"/><path d="M138.171 208.131c-2.506-1.656-39.4-48.096 1.678-90.661 41.079-42.565 144.199-37.595 185.266-21.008 41.068 16.586 61.203 38.149 65.398 60.788 4.195 22.638-23.481 58.042-23.481 58.042l-228.861-7.161Z" fill="#DDECFF" style="mix-blend-mode:multiply"/><path d="M427.397 108.392H380.01c-2.933 0-5.31 1.496-5.31 3.34v14.883c0 1.845 2.377 3.34 5.31 3.34h47.387c2.932 0 5.31-1.495 5.31-3.34v-14.883c0-1.844-2.378-3.34-5.31-3.34Z" fill="#60A8FF"/><path d="m403.703 138.385 7.509-11.195h-15.017l7.508 11.195Z" fill="#60A8FF"/><path d="M403.523 115.473h13.572v1.249l6.648-2.411-6.648-2.412v1.249h-13.572v2.325Z" fill="#223A7A"/><path d="M423.743 120.376h-13.561v-1.242l-6.659 2.411 6.659 2.412v-1.25h13.561v-2.331Z" fill="#fff"/><path d="m395.197 122.574-.638.147c-1.24-.911-2.269-1.928-3.058-3.02-.661-1.119-1.02-2.3-1.062-3.493l.467-.127-2.867-4.315a4.765 4.765 0 0 0-1.391.988c-1.625 1.73-1.466 4.376.17 6.961 1.635 2.585 3.377 4.896 6.563 6.346a8.006 8.006 0 0 0 2.23.746 9.88 9.88 0 0 0 2.517.136l-2.931-4.369Zm2.06-.508-.892.201 2.942 4.422c.305-.063.6-.144.881-.241.366-.125.646-.33.789-.576a.708.708 0 0 0-.014-.76l-1.529-2.425c-.162-.262-.48-.473-.887-.589a2.655 2.655 0 0 0-1.29-.032Zm-6.999-11.082a9.924 9.924 0 0 0-1.147.341l2.932 4.408.987-.253c.409-.111.733-.317.907-.574a.724.724 0 0 0 .028-.809l-1.54-2.445c-.15-.268-.461-.488-.866-.613a2.66 2.66 0 0 0-1.301-.055Z" fill="#223A7A"/><path d="M124.472 200.67v-49.753s-.882-13.407 10.333-17.274c11.215-3.868 58.41-1.797 58.41-1.797v68.804l-68.743.02Z" fill="#1C83FF"/><path d="M208.009 85.266s-2.857 15.07-3.962 16.313l-1.062 1.242-5.469 2.351s10.546 9.399 23.502 10.916c12.956 1.516 11.873-3.34 11.873-3.34l-1.986-2.632 2.645-14.37S209.984 89 208.009 85.267Z" fill="#FF9D8C"/><path d="m190.645 106.415 8.57-2.351s5.491 5.664 18.235 8.984c12.744 3.32 12.967 1.383 13.625 0 .361-.962.284-1.969-.223-2.906l.945-4.836 5.098 1.069 17.693 90.013-45.486 1.383-18.457-91.356Z" fill="#fff"/><path d="M232.615 105.4s3.08 4.468 5.937 14.976c2.856 10.508 5.49 28.19 6.149 40.354.658 12.164 1.062 39.94 1.062 39.94h57.348c.658 0 4.619-13.681 4.619-13.681s-25.02-13.5-26.316-15.711c-.881-1.47-.435-28.791-4.174-41.37-3.738-12.578-8.57-15.11-18.701-18.256-10.44-3.226-25.924-6.252-25.924-6.252Z" fill="#223A7A"/><path d="M262.5 184.838a.718.718 0 0 1-.376-.098c-.099-.062-.155-.147-.155-.236 0-.989-.287-15.03-.552-28.61-.266-13.581-.553-27.615-.553-28.611 0-.088.056-.173.156-.236a.712.712 0 0 1 .375-.098c.141 0 .276.035.376.098.099.063.155.148.155.236 0 .989.287 15.03.553 28.604.265 13.574.552 27.622.552 28.617-.003.088-.06.172-.159.234a.723.723 0 0 1-.372.1Z" fill="#8593B6"/><path d="m148.239 181.458-.435 19.212h66.789s2.857-16.306 1.763-17.829c-1.094-1.523-68.117-1.383-68.117-1.383Z" fill="#223A7A"/><path d="M222.579 101.164c2.842 1.344 5.994 2.407 9.346 3.153l1.572-8.543s-17.661-5.09-23.651-8.878c1.253 4.302 4.333 10 12.733 14.268Z" fill="#8E9BBB" style="mix-blend-mode:multiply"/><path d="M254.152 57.21c2.957 3.428 4.822 7.185 5.491 11.062.881 6.079 0 21.697-7.912 28.33-7.912 6.633-24.426 4.676-31.86.668-6.86-3.674-13.625-7.736-15.378-15.751-1.752-8.017 3.728-23.22 19.329-26.4 15.601-3.18 30.33 2.091 30.33 2.091Zm19.828 134.776h-2.857l-3.908-.067h-.935c-1.38 0-2.559.087-3.663.047h-.85a3.405 3.405 0 0 1-.35 0 7.188 7.188 0 0 1-1.455-.361 154.263 154.263 0 0 0-22.791-1.911c-9.813 0-18.617.448-20.05-.307-1.434-.755-2.316-8.524 6.064-9.031l10.301 2.458s23.523-1.757 32.147 2.245c8.623 4.001 8.347 6.927 8.347 6.927Z" fill="#FF9D8C"/><path d="M262.574 191.919h-.849a7.575 7.575 0 0 0-.903-.762c-2.655-1.703-9.07-2.805-11.395-3.159a.438.438 0 0 1-.246-.113c-.056-.056-.074-.123-.052-.188a.233.233 0 0 1 .067-.09.372.372 0 0 1 .116-.067.642.642 0 0 1 .306-.03c3.388.514 10.62 1.83 12.616 4.008.064.06.234.294.34.401Zm4.63-.034h-.934c-2.899-3.34-7.636-4.275-13.498-5.464l-.351-.073a.495.495 0 0 1-.134-.049.323.323 0 0 1-.095-.077.184.184 0 0 1-.04-.095.163.163 0 0 1 .02-.097.264.264 0 0 1 .077-.084.454.454 0 0 1 .123-.06.611.611 0 0 1 .304-.013l.34.074c6.192 1.229 11.183 2.231 14.188 5.938Zm4.811.074h-.902c-1.599-1.799-3.787-3.365-6.42-4.592-2.633-1.228-5.65-2.09-8.852-2.529a.541.541 0 0 1-.149-.034.374.374 0 0 1-.116-.068.22.22 0 0 1-.064-.092.156.156 0 0 1 0-.1c.023-.063.082-.118.167-.156a.602.602 0 0 1 .29-.044c7.933.935 14.336 5.003 16.046 7.615ZM209.761 74.698c3.56-1.287 6.43-3.213 8.241-5.53 2.03-2.378 3.051-5.045 2.963-7.743 0 0 6.16-.621 15.388 1.109 9.229 1.73 20.178 4.075 29.439.761 9.261-3.313 9.229-8.637 4.726-10.848-5.045-2.478-15.049-.968-15.049-.968s3.845-2.352 1.753-3.735c-2.092-1.382-9.665.415-9.665.415s-9.228-4.63-26.698-4.075c-17.47.554-25.817 8.223-26.805 16.8-.988 8.577 3.951 17.134 3.951 17.134l11.756-3.32Z" fill="#223A7A"/><path d="M245.2 76.776c-.988 1.53-.967 3.34-1.211 4.943-.191 1.27-.563 2.745 1.285 3.6.882.408 5.045 1.51 2.899 2.405a8.738 8.738 0 0 1-3.111.22c-.648 0-1.296 0-1.933-.066-.637-.067-1.37-.16-2.05-.167a.566.566 0 0 0-.236.055.285.285 0 0 0-.138.132.168.168 0 0 0 .013.158c.031.05.087.093.159.123 1.243.405 2.626.612 4.025.6a9.17 9.17 0 0 0 3.335-.367c.377-.085.714-.228.981-.416.267-.188.456-.414.548-.66.003-.296-.116-.588-.347-.847-.231-.259-.565-.476-.969-.629-.829-.387-1.848-.567-2.687-.948-1.169-.521-1.062-1.403-.988-2.225.191-1.963.913-3.894 1.189-5.851 0-.294-.616-.294-.764-.06Z" fill="#8E9BBB" style="mix-blend-mode:multiply"/><path d="M254.184 81.365c-.329 1.169-1.678 2.004-3.005 1.844-1.328-.16-2.124-1.216-1.827-2.379.298-1.162 1.678-2.004 3.006-1.843 1.327.16 2.156 1.216 1.826 2.378Zm-16.811-.922c-.297 1.256-1.71 2.171-3.186 2.004-1.476-.167-2.368-1.263-2.071-2.518.297-1.256 1.71-2.165 3.186-2.004 1.476.16 2.368 1.262 2.071 2.518Zm12.893-3.874c1.062.106 2.07 0 3.101.04l.743.047h-.085.159l.393.046c.213.034.425.087.648.12.206.031.416.05.627.054l.34-.034h-.213c.142.006.283.006.425 0 .285-.054.525-.175.671-.338.147-.163.188-.355.115-.537a.75.75 0 0 0-.223-.28c0-.04-.096-.074-.138-.107l.127.087-.138-.114a.642.642 0 0 0-.234-.147l-.254-.12a4.105 4.105 0 0 0-.946-.24 12.752 12.752 0 0 0-1.89-.154c-.626.004-1.25.035-1.869.094a5.05 5.05 0 0 0-1.604.374.912.912 0 0 0-.409.286.454.454 0 0 0-.09.382.6.6 0 0 0 .244.342c.132.097.305.168.5.205v-.006Zm-11.714-1.851c-.14-.053-.285-.1-.436-.14-.117-.033-.456-.147-.202-.06l-.286-.094a9.086 9.086 0 0 0-1.328-.3 13.919 13.919 0 0 0-3.08-.134 10.347 10.347 0 0 0-3.048.601 2.28 2.28 0 0 0-.392.174l-.213.18v-.06a.895.895 0 0 0-.34.245.478.478 0 0 0-.117.316c0 .103.045.204.129.293.084.088.205.16.349.208a2.094 2.094 0 0 0 1.062 0h-.552c.273.037.556.037.829 0 0 0 .297-.046.106 0-.191.047.297 0 .35 0 .053 0 .393 0 0 0h.191l.499-.033c.723 0 1.445-.053 2.178-.067.732-.013 1.359 0 2.039 0h.86c.159 0 .095 0 0 0h.18l.361.074c.237.034.485.016.704-.05a.971.971 0 0 0 .497-.318.442.442 0 0 0 .019-.447c-.076-.146-.229-.271-.434-.354l.075-.034Zm5.214 19.212c1.09-1.268 2.841-2.262 4.96-2.812-1.838-.12-10.525-.622-12.744.16-2.454.875.456 4.402 5.533 4.576.497.017.996-.001 1.486-.054.043-.65.304-1.287.765-1.87Z" fill="#223A7A"/><path d="M203.612 86.515s.881 2.138 5.936 4.63c3.839 1.744 8.001 3.189 12.394 4.301l.584-1.61s-7.583-2.07-11.098-4.355c-3.515-2.284-3.95-3.52-3.95-3.52l-3.866.554Z" fill="#DEE1EB"/><path d="M223.386 92.647c1.532-.056 3.045.238 4.26.827 1.216.589 2.052 1.434 2.357 2.38.286 1.336-1.668 2.779-6.234 1.49-5.682-1.604-4.45-4.583-.383-4.697Z" fill="#223A7A"/><path d="M206.798 70.69s1.752-7.942 10.216-13.36c16.153-10.294 29.885-9.672 29.885-9.672s-.117-1.45-5.31-2.559c-4.843-1.035-7.03-.48-7.03-.48s-13.297.667-24.501 8.496c-11.204 7.83-12.383 17.789-12.383 17.789l9.123-.214Z" fill="#DEE1EB"/><path d="M205.587 69.722c-10.62-1.13-16.482 4.074-16.917 9.352-.436 5.277 5.66 9.198 13.731 8.817 18.235-.895 16.153-16.787 3.186-18.17Z" fill="#fff"/><path d="M200.32 82.788c-1.335.013-2.65-.208-3.797-.637-1.148-.43-2.083-1.05-2.703-1.795-.71-.806-1.056-1.718-1.002-2.639.054-.92.507-1.814 1.31-2.585a.376.376 0 0 1 .111-.068.636.636 0 0 1 .299-.036.53.53 0 0 1 .142.038.348.348 0 0 1 .109.07.212.212 0 0 1 .059.09.163.163 0 0 1-.001.097.222.222 0 0 1-.06.09c-.714.691-1.115 1.491-1.162 2.315-.047.824.263 1.64.896 2.361.561.687 1.426 1.258 2.491 1.643 1.064.385 2.283.568 3.509.528a10.347 10.347 0 0 0 3.274-.524c1.006-.341 1.862-.834 2.493-1.433.741-.72 1.206-1.538 1.357-2.39.151-.853-.015-1.715-.486-2.52-.437-.755-1.249-1.402-2.317-1.844-1.068-.441-2.333-.655-3.609-.608a.618.618 0 0 1-.155-.005.512.512 0 0 1-.139-.043.33.33 0 0 1-.103-.073.19.19 0 0 1-.049-.092c-.012-.066.016-.131.08-.184a.482.482 0 0 1 .26-.097c1.458-.07 2.913.162 4.139.663 1.227.502 2.157 1.243 2.647 2.11.505.876.681 1.815.515 2.742-.166.926-.669 1.817-1.471 2.601-.701.661-1.648 1.205-2.758 1.584-1.11.38-2.35.584-3.614.594l-.265.047Z" fill="#818FB3"/><path d="M192.62 104.478s-32.072 4.976-43.276 12.992c-11.204 8.016-16.483 47.542-16.706 54.87-.223 7.328 7.912 10.367 12.744 12.438 4.833 2.071 26.147 5.805 43.288 6.359 17.14.555 33.399 0 33.399 0 .199-2.028 1.079-4.006 2.581-5.805 2.443-3.206 5.544-3.874 5.544-3.874l-14.72-3.34s-2.58-29.058-6.595-43.086c-4.609-16.179-16.259-30.554-16.259-30.554Z" fill="#223A7A"/><path d="M245.794 173.502a.836.836 0 0 1-.212 0 .46.46 0 0 1-.277-.186.221.221 0 0 1 .012-.255c3.005-4.268 6.117-12.638 7.869-18.517l.149-.474c.531-1.73 1.189-3.881-.128-5.344-.679-.755-2.198-2.398-3.653-3.975-1.455-1.576-2.942-3.186-3.345-3.647-.776-.902 1.667-3.34 5.193-6.62.945-.895 1.773-1.663 2.251-2.184 1.264-1.336.425-2.625-.541-4.075l-.372-.541c-.871-1.336-1.869-2.712-2.836-4.008l-1.178-1.617c-.521-.714-1.062-1.436-1.562-2.177-3.038-4.532-6.496-8.949-10.354-13.227-.07-.077-.09-.168-.054-.255.036-.086.124-.16.245-.206a.843.843 0 0 1 .402-.036c.067.012.13.031.185.058.055.027.101.06.135.099 3.902 4.292 7.402 8.724 10.482 13.273l1.561 2.171 1.179 1.61c.967 1.336 1.965 2.672 2.857 4.054l.329.495c.988 1.483 2.007 3.012.489 4.676-.499.541-1.328 1.336-2.294 2.224-1.837 1.724-5.671 5.311-5.14 5.925.393.455 1.816 2.004 3.324 3.634 1.508 1.63 2.995 3.227 3.664 4.008 1.508 1.697.807 3.975.244 5.812l-.149.468c-.637 2.144-4.025 13.099-7.944 18.663a.484.484 0 0 1-.222.139.811.811 0 0 1-.309.035Zm-31.286 1.176a.753.753 0 0 1-.203-.026.566.566 0 0 1-.169-.074c-2.506-1.584-14.538-14.696-15.441-17.161-.489-1.336.743-4.777 1.933-8.09.924-2.565 1.879-5.217 1.614-5.932-.414-1.075-3.494-2.672-6.468-4.188-3.6-1.85-7.317-3.761-8.039-5.484-.818-1.958-.117-14.202.35-22.305.16-2.919.298-5.217.298-6.012 0-.088.056-.173.155-.236a.718.718 0 0 1 .376-.098c.141 0 .276.035.375.098.1.063.156.148.156.236 0 .829-.138 3.14-.298 6.059-.435 7.575-1.157 20.254-.382 22.117.637 1.51 4.376 3.434 7.678 5.137 3.303 1.704 6.372 3.254 6.829 4.543.329.868-.573 3.34-1.604 6.239-1.062 3.093-2.368 6.586-1.932 7.795.881 2.412 12.744 15.284 15.154 16.841.05.03.089.067.116.107.027.04.041.083.041.127a.225.225 0 0 1-.041.126.365.365 0 0 1-.116.107.61.61 0 0 1-.179.062.763.763 0 0 1-.203.012Zm-43.192-5.738h-.074a.783.783 0 0 1-.198-.043.525.525 0 0 1-.157-.087.304.304 0 0 1-.091-.119.222.222 0 0 1-.011-.132c.393-1.737 6.489-36.339 6.765-38.991.01-.089.076-.171.182-.23a.76.76 0 0 1 .387-.081.68.68 0 0 1 .364.114c.093.068.139.155.129.244-.286 2.672-6.372 37.301-6.775 39.037-.018.08-.08.152-.176.205a.745.745 0 0 1-.345.083Z" fill="#8593B6"/><path d="M215.039 178.338a.684.684 0 0 1-.202 0c-1.348-.34-7.317-1.609-14.868-3.213-15.25-3.233-36.108-7.662-40.112-8.958a.435.435 0 0 1-.258-.198.232.232 0 0 1 .035-.256.552.552 0 0 1 .311-.162.822.822 0 0 1 .401.022c3.898 1.276 25.605 5.878 39.952 8.924 7.573 1.604 13.562 2.873 14.943 3.227a.483.483 0 0 1 .285.18.223.223 0 0 1 .002.254.485.485 0 0 1-.204.134.804.804 0 0 1-.285.046Zm-7.338 13.781c-13.413 0-39.432-1.523-59.196-5.918a.71.71 0 0 1-.19-.068.433.433 0 0 1-.134-.108.266.266 0 0 1-.059-.132.234.234 0 0 1 .027-.136.353.353 0 0 1 .107-.12.587.587 0 0 1 .172-.084.864.864 0 0 1 .427-.02c24.968 5.558 59.897 6.506 66.396 5.591a.843.843 0 0 1 .41.046.51.51 0 0 1 .153.092c.041.037.07.079.085.122a.22.22 0 0 1 .005.134.288.288 0 0 1-.078.124.463.463 0 0 1-.147.096.728.728 0 0 1-.194.054c-2.573.261-5.179.37-7.784.327Z" fill="#8593B6"/><path d="M54.146 109.14c4.163 2.305 9.441 3.781 13.094 6.447 1.445 1.048 2.73 2.164 4.068 3.266.977.802 3.568 2.124 3.993 3.133.18.441.138-.16 0-.601v-.054c-.361-2.037-.627-4.081-.743-6.132-.117-2.051.095-4.095-.107-6.139-.297-2.872-1.72-5.664-5.458-7.468-1.827-.875-4.184-1.416-5.862-2.391-1.678-.976-.956-2.004 0-3.027 1.014-.93 1.784-1.956 2.283-3.039.249-1.284-.245-2.58-1.391-3.654-2.177-2.298-7.01-4.863-11.576-4.516-3.813.288-4.248 3.053-4.184 4.977.063 1.924.34 3.74.371 5.618.032 1.877-.488 3.808-.53 5.725-.203 3.259 2.187 5.744 6.042 7.855Z" fill="#6BAEFF"/><path d="M92.813 139.04c1.133-1.725 2.513-3.382 4.121-4.95 2.251-2.171 4.737-4.288 6.245-6.713s1.316-5.144 1.465-7.756c.117-1.917 1.062-3.834.775-5.765-.116-.921-.966-2.411-2.856-2.264-1.487.12-2.358 1.276-2.931 2.004a28.772 28.772 0 0 0-2.411 4.008c-.287.528-.563 1.062-.924 1.57-.213.294-.892 1.015-1.519.922-1.062-.174-.106-2.946 0-3.434.807-2.465 2.029-4.756 2.188-7.295.244-3.68-.202-8.062-5.926-10.073-1.498-.528-3.388-.842-4.811-.053-1.423.788-1.805 2.124-2.007 3.226-.637 3.4.626 6.62 2.368 9.813 1.423 2.672 3.122 5.344 3.25 8.19.117 2.718-2.124 5.123-3.186 7.695-1.076 2.467-1.527 5.026-1.338 7.582 0 1.656.085 3.3.276 4.956.18 1.523.393 3.04.69 4.556 0 .307.106.628.18.949-.934-1.41-1.263-3.02-2.028-4.436-1.37-2.512-2.952-4.976-4.248-7.502a49.481 49.481 0 0 0-3.536-6.199c-1.349-1.877-2.963-3.867-5.47-5.25-1.465-.849-3.38-1.326-5.373-1.336-1.26.064-2.503.23-3.696.494a6.477 6.477 0 0 1-2.082.104 5.544 5.544 0 0 1-1.9-.545c-4.1-2.004-5.31-5.537-8.38-8.016-2.23-1.87-7.604-5.056-11.533-3.019-2.124 1.082-2.676 3.18-2.56 4.783.286 1.988 1.383 3.895 3.187 5.538 1.773 1.79 4.056 3.393 5.692 5.23.865 1.023 1.2 2.191.956 3.34-.28 1.13-.17 2.285.318 3.387 1.88 3.34 7.753 2.879 12.32 2.966 3.278.043 6.529.383 9.653 1.008 1.643.318 3.14.88 4.366 1.638 1.225.758 2.143 1.69 2.675 2.718.903 1.576 1.391 3.34 3.101 4.709.813.62 1.851 1.108 3.027 1.423 1.784.494 7.21.708 7.253.401.29-1.076.764-2.128 1.413-3.14.913-1.843 1.996-3.654 3.196-5.464Zm25.202-.615c-.468-1.917-.383-4.008-1.827-5.778a.348.348 0 0 0-.104-.075.554.554 0 0 0-.299-.05.557.557 0 0 0-.149.032c-1.062.36-1.062 1.409-1.168 2.05-.138 1.069 0 2.138-.245 3.2-.356 1.897-1.069 3.76-2.124 5.551-.538.914-1.421 1.733-2.574 2.384-1.152.652-2.54 1.118-4.042 1.357-2.069.3-4.03.844-5.777 1.603-1.492.797-2.657 1.807-3.399 2.946-2.124 3.013-3.186 6.373-4.13 9.593-.67 2.164-1.211 4.342-2.05 6.486a43.579 43.579 0 0 0-2.21 6.459c-.084.114-.17.221-.244.334-.223.328.595.501.871.234 3.303-3.199 7.328-6.065 12.808-7.822 2.474-.795 5.767-.962 7.837-2.211 1.572-.949 1.785-2.398 1.551-3.694-.308-1.697-1.604-3.093-2.952-4.536-.744-.795-1.615-1.65-1.317-2.612.201-.439.543-.848 1.005-1.2a5.593 5.593 0 0 1 1.682-.85c2.272-.889 4.938-1.29 6.807-2.572 1.708-1.18 2.727-2.69 2.889-4.282a18.963 18.963 0 0 0-.839-6.547Z" fill="#6BAEFF"/><path d="M73.018 149.454c-2.92-2.344-6.423-4.374-10.376-6.012-2.124-.882-7.084-2.618-8.092 0-.584 1.523 1.784 3.019 3.345 3.975 2.347 1.436 5.055 2.672 7.03 4.328-2.442.495-5.002.588-7.136 1.657-2.517 1.263-3.654 3.694-1.147 5.244 1.297.7 2.763 1.266 4.343 1.676a169.02 169.02 0 0 0 6 1.67c4.365 1.149 8.783 2.312 12.5 4.189 3.717 1.877 7.36 5.15 7.657 8.27 0 .3-.148 0 .128-.107.16.087.68-.074.68-.247.007-4.574-1.497-9.099-4.419-13.287-2.773-4.035-6.302-7.847-10.513-11.356Z" fill="#6BAEFF"/><path d="M62.96 106.308a128.869 128.869 0 0 0 5.077 6.186 47.356 47.356 0 0 1 4.715 6.012 218.283 218.283 0 0 0 4.907 7.695 59.522 59.522 0 0 1 4.534 8.15c2.476 5.419 4.192 10.965 5.13 16.573.472 2.846.653 5.709.542 8.57-.096 2.231-.5 4.442-.829 6.68a24.797 24.797 0 0 0-.297 6.974c.265 1.937.754 4.242 3.186 5.625a.763.763 0 0 0 .346.086.8.8 0 0 0 .354-.071.383.383 0 0 0 .202-.197.235.235 0 0 0-.042-.233c-2.846-3.667-2.687-7.668-2.124-11.649.308-2.191.722-4.376.839-6.58a41.34 41.34 0 0 0-.446-8.41c-.888-5.49-2.5-10.924-4.822-16.246a56.543 56.543 0 0 0-4.248-8.016c-1.646-2.632-3.557-5.197-5.16-7.842-2.9-4.79-7.329-9.032-11.237-13.494-.202-.234-.733 0-.563.207l-.063-.02Z" fill="#43588E"/><path d="M87.46 145.48c.458-3.487.946-6.841 2.815-10.167.871-1.55 1.933-3.06 2.772-4.616.69-1.29 1.731-3.053 1.2-4.422a.162.162 0 0 0-.085-.088.346.346 0 0 0-.154-.034.346.346 0 0 0-.154.034.162.162 0 0 0-.085.088c-.36.781-.318 1.636-.584 2.438a15.143 15.143 0 0 1-.966 2.304c-.818 1.61-1.89 3.153-2.825 4.743-1.856 3.101-2.648 6.413-2.326 9.72 0 .031.02.062.056.085a.264.264 0 0 0 .135.035c.05 0 .1-.013.135-.035.036-.023.056-.054.056-.085h.01Zm-32.125-20.034c2.199 3.34 8.815 3.534 13.637 4.282 1.644.282 3.183.768 4.523 1.43 1.341.662 2.457 1.486 3.282 2.424 1.926 2.124 3.42 4.39 4.45 6.747h.064c-1.349-4.008-3.271-8.831-9.845-10.688-5.31-1.496-12.192-.748-15.558-4.322-.17-.173-.68-.06-.553.147v-.02Zm28.643 19.506c.265.22.499.454.775.668.125.109.271.207.435.294.166.106.382.174.616.193a.18.18 0 0 0 .066-.009.108.108 0 0 0 .05-.029.06.06 0 0 0 .018-.041.06.06 0 0 0-.017-.041 2.228 2.228 0 0 0-.467-.267l-.467-.261c-.308-.187-.585-.387-.893-.574 0-.033-.17 0-.116.06v.007ZM70.225 155.56c3.844 1.967 7.236 4.26 10.078 6.813a43.725 43.725 0 0 1 3.664 3.801 36.096 36.096 0 0 1 2.974 4.402c.063.114.392.114.371 0-.53-3.146-3.695-5.838-6.234-8.457-1.348-1.305-2.93-2.509-4.715-3.587a41.667 41.667 0 0 0-5.799-3.22c-.254-.113-.594.147-.34.281v-.033Zm30.214-3.708c-1.827.668-1.88 2.472-1.923 3.627-.063 2.232.807 4.322-.743 6.447-1.402 1.917-3.643 3.52-5.416 5.297-1.646 1.67-3.271 3.801-3.186 5.805 0 .12.286.18.371.067a18.46 18.46 0 0 0 1.381-2.899c.528-1.059 1.285-2.066 2.251-2.993 1.7-1.657 3.781-3.16 5.162-4.943 1.38-1.784 1.232-3.728 1.136-5.758-.064-1.296-.265-3.381 1.391-4.342.266-.154-.063-.408-.371-.308h-.053Z" fill="#43588E"/><path d="M88.215 173.235c-7.36-.06-21.325-.127-21.325-.127l3.462 16.206c.378 1.763 1.761 3.381 3.892 4.552 2.131 1.171 4.865 1.815 7.695 1.814h12.67c2.827 0 5.558-.646 7.687-1.816 2.129-1.171 3.51-2.788 3.888-4.55l3.42-16.206s-14.04.067-21.389.127Z" fill="#fff"/><path d="M444.102 143.455 402.1 195.787l-122.47.554 37.796-53.627 126.676.741Z" fill="#F6F7FA"/><path d="M198.366 196.014v-4.189h79.267l36.48-50.307h126.803l3.186 1.937H320.251l-37.902 52.519s-83.983-.101-83.983.04Z" fill="#D9DEE8"/><path d="M380.509 172.333c-1.38 2.612-8.889 4.623-16.769 4.502-7.88-.12-13.147-2.338-11.767-4.949 1.381-2.612 8.9-4.63 16.78-4.503 7.88.127 13.137 2.338 11.756 4.95Z" fill="#D9DEE8"/><path d="M282.349 196.308a.852.852 0 0 1-.223-.034.465.465 0 0 1-.278-.186.223.223 0 0 1 .012-.255l38.041-52.712h124.254a.72.72 0 0 1 .375.098c.1.063.156.148.156.236-.003.089-.06.172-.159.235a.722.722 0 0 1-.372.099H320.591l-37.765 52.325a.427.427 0 0 1-.193.141.752.752 0 0 1-.284.053Z" fill="#fff"/><path d="M192.843 199.982H47.169v20.314h145.674v-20.314Z" fill="#596B9B"/><path d="M454.116 199.982H192.015v20.314h262.101v-20.314Z" fill="#7A89AF"/><path d="M192.843 199.982H47.169v3.727h406.947v-3.727H192.843Z" fill="#BDC4D7" style="mix-blend-mode:multiply"/><path d="M199.215 195.974H40.138v4.976h159.077v-4.976Z" fill="#6F7FA9"/><path d="M460.488 195.974H198.387v4.976h262.101v-4.976Z" fill="#9CA6C3"/><path d="M156.066 65.98h-51.422c-3.185 0-5.767 1.625-5.767 3.628v16.146c0 2.003 2.582 3.627 5.767 3.627h51.422c3.185 0 5.767-1.624 5.767-3.627V69.608c0-2.003-2.582-3.627-5.767-3.627Z" fill="#fff"/><path d="m176.478 77.677-19.307-5.123v10.254l19.307-5.13Z" fill="#fff"/><path d="M118.153 79.915c1.965 0 3.557-1.002 3.557-2.238 0-1.235-1.592-2.237-3.557-2.237-1.965 0-3.558 1.002-3.558 2.237 0 1.236 1.593 2.238 3.558 2.238Zm12.202 0c1.965 0 3.558-1.002 3.558-2.238 0-1.235-1.593-2.237-3.558-2.237-1.965 0-3.558 1.002-3.558 2.237 0 1.236 1.593 2.238 3.558 2.238Zm12.192 0c1.965 0 3.558-1.002 3.558-2.238 0-1.235-1.593-2.237-3.558-2.237-1.965 0-3.558 1.002-3.558 2.237 0 1.236 1.593 2.238 3.558 2.238Z" fill="#223A7A"/><path d="M417.881 16.302H299.149c-3.661 0-7.173.915-9.762 2.543-2.589 1.629-4.044 3.838-4.044 6.14V60.39c0 2.303 1.455 4.512 4.044 6.14 2.589 1.629 6.101 2.544 9.762 2.544h10.62c.298 3.206-.435 8.016-4.704 14.094 10.581-3.02 19.529-7.918 25.743-14.094h87.084c3.661 0 7.173-.915 9.762-2.544 2.589-1.628 4.044-3.837 4.044-6.14V24.986c0-1.141-.358-2.271-1.052-3.325-.695-1.054-1.713-2.012-2.996-2.818-1.283-.807-2.806-1.446-4.482-1.882a21.086 21.086 0 0 0-5.287-.66Z" fill="#60A8FF"/><path d="M367.234 33.189h-58.888c-.776-.002-1.52-.197-2.069-.542-.549-.346-.859-.813-.862-1.302.003-.488.313-.956.862-1.302.549-.345 1.293-.54 2.069-.542h58.888c.777.002 1.521.197 2.07.542.549.346.859.814.861 1.302-.002.489-.312.956-.861 1.302-.549.345-1.293.54-2.07.542Z" fill="#fff"/><path d="M409.459 43.923H307.21c-.476 0-.933-.119-1.269-.33-.337-.212-.526-.499-.526-.798 0-.3.189-.587.526-.799.336-.211.793-.33 1.269-.33h102.249c.476 0 .933.119 1.269.33.337.212.526.5.526.799a.776.776 0 0 1-.137.432 1.26 1.26 0 0 1-.389.366 2.067 2.067 0 0 1-.582.244 2.738 2.738 0 0 1-.687.086Zm0 6.273H307.21c-.476 0-.933-.119-1.269-.33-.337-.212-.526-.5-.526-.799 0-.3.189-.587.526-.798.336-.212.793-.33 1.269-.33h102.249c.476 0 .933.118 1.269.33.337.212.526.499.526.798a.776.776 0 0 1-.137.432 1.26 1.26 0 0 1-.389.366 2.07 2.07 0 0 1-.582.245 2.742 2.742 0 0 1-.687.086Zm-22.302 6.68H307.21c-.476 0-.933-.119-1.269-.33-.337-.212-.526-.5-.526-.799 0-.3.189-.587.526-.798.336-.212.793-.33 1.269-.33h79.947c.476 0 .933.118 1.269.33.337.212.526.499.526.798 0 .3-.189.587-.526.798-.336.212-.793.331-1.269.331Z" fill="#D2E6FF"/><path d="M408.652 33.189h-28.09c-.776-.002-1.52-.197-2.069-.542-.549-.346-.859-.813-.862-1.302.003-.488.313-.956.862-1.302.549-.345 1.293-.54 2.069-.542h28.09c.777.002 1.521.197 2.07.542.549.346.859.814.861 1.302-.002.489-.312.956-.861 1.302-.549.345-1.293.54-2.07.542Zm-70.803 65.096h-31.892c-1.173 0-2.124.599-2.124 1.336v13.708c0 .738.951 1.336 2.124 1.336h31.892c1.173 0 2.124-.598 2.124-1.336V99.621c0-.737-.951-1.336-2.124-1.336Z" fill="#fff"/><path d="M322.12 108.92a1.163 1.163 0 0 1-.499-.114l-17.363-9.018a.637.637 0 0 1-.196-.157.379.379 0 0 1-.084-.192.34.34 0 0 1 .038-.198.522.522 0 0 1 .157-.174.855.855 0 0 1 .25-.123 1.262 1.262 0 0 1 .62-.029c.102.021.196.055.277.098l16.832 8.751 16.408-8.984a.995.995 0 0 1 .27-.1 1.25 1.25 0 0 1 .612.024c.095.03.18.07.249.12.07.049.124.106.158.169a.34.34 0 0 1 .042.195.359.359 0 0 1-.08.19.612.612 0 0 1-.189.156l-16.917 9.259a.97.97 0 0 1-.271.102c-.101.021-.208.03-.314.025Z" fill="#6F7FA9"/><path d="M304.778 114.284a1.153 1.153 0 0 1-.441-.079.652.652 0 0 1-.296-.221.33.33 0 0 1-.05-.286.48.48 0 0 1 .214-.256l12.138-8.016c.15-.094.352-.146.563-.146.211 0 .414.052.563.146.149.094.233.222.233.354 0 .133-.084.26-.233.354l-12.139 8.016a.867.867 0 0 1-.254.103 1.13 1.13 0 0 1-.298.031Zm34.271-.294a1.227 1.227 0 0 1-.311-.037.933.933 0 0 1-.263-.11l-12.085-7.622c-.149-.094-.233-.221-.233-.354 0-.133.084-.26.233-.354a.882.882 0 0 1 .257-.11 1.188 1.188 0 0 1 .611 0 .882.882 0 0 1 .257.11l12.097 7.622c.149.095.233.223.233.357 0 .134-.084.263-.233.358a.902.902 0 0 1-.259.106c-.097.024-.2.036-.304.034Z" fill="#6F7FA9"/><path d="M341.629 104.478c5.883 0 10.652-3 10.652-6.7s-4.769-6.7-10.652-6.7c-5.882 0-10.651 3-10.651 6.7s4.769 6.7 10.651 6.7Z" fill="#FF5F42"/><path d="m338.774 100.327-.024-.276c.304.136.568.312.792.528.224.216.396.452.516.708.12.256.18.52.18.792 0 .456-.128.876-.384 1.26a2.78 2.78 0 0 1-1.008.912 2.984 2.984 0 0 1-1.416.336c-.52 0-.992-.112-1.416-.336a2.886 2.886 0 0 1-1.02-.912 2.276 2.276 0 0 1-.372-1.26c0-.368.076-.684.228-.948.16-.272.356-.5.588-.684.24-.184.476-.336.708-.456l-.096.336c-.2-.08-.396-.192-.588-.336a1.753 1.753 0 0 1-.636-1.392c0-.448.116-.852.348-1.212.232-.368.544-.66.936-.876.4-.216.84-.324 1.32-.324.488 0 .924.108 1.308.324.392.216.704.508.936.876.232.36.348.764.348 1.212 0 .344-.068.632-.204.864-.136.232-.3.416-.492.552-.192.136-.376.24-.552.312Zm-2.508-1.704c0 .216.048.408.144.576.104.168.244.304.42.408.176.096.376.144.6.144.224 0 .42-.048.588-.144.176-.104.312-.24.408-.408.104-.168.156-.36.156-.576 0-.32-.112-.584-.336-.792a1.106 1.106 0 0 0-.816-.324c-.336 0-.616.108-.84.324a1.052 1.052 0 0 0-.324.792Zm1.164 4.644c.384 0 .708-.116.972-.348.264-.24.396-.528.396-.864 0-.232-.06-.44-.18-.624a1.231 1.231 0 0 0-.492-.432 1.444 1.444 0 0 0-.696-.168c-.256 0-.488.056-.696.168a1.231 1.231 0 0 0-.492.432c-.12.184-.18.392-.18.624 0 .336.132.624.396.864.264.232.588.348.972.348Zm6.179 1.44a3.75 3.75 0 0 1-.948-.132 2.291 2.291 0 0 1-.828-.408.978.978 0 0 1-.252-.336 1.128 1.128 0 0 1-.084-.408c0-.136.056-.264.168-.384.12-.12.288-.18.504-.18.144 0 .324.076.54.228.128.08.268.152.42.216.152.064.308.096.468.096.384 0 .716-.068.996-.204.28-.144.496-.34.648-.588.152-.248.228-.54.228-.876 0-.304-.072-.564-.216-.78a1.399 1.399 0 0 0-.552-.504 1.526 1.526 0 0 0-.732-.18c-.248 0-.464.04-.648.12a4.93 4.93 0 0 0-.504.252.971.971 0 0 1-.456.12c-.264 0-.46-.056-.588-.168a.775.775 0 0 1-.24-.42 1.354 1.354 0 0 1-.024-.432l.372-2.916a.67.67 0 0 1 .24-.408.732.732 0 0 1 .48-.168h3.468c.192 0 .352.064.48.192a.651.651 0 0 1 .192.48c0 .184-.064.34-.192.468a.675.675 0 0 1-.48.18h-3.096l.132-.108-.324 2.436-.156-.456c.048-.08.152-.156.312-.228a2.98 2.98 0 0 1 .552-.18c.208-.056.412-.084.612-.084.536 0 1.016.124 1.44.372.424.24.756.572.996.996.248.416.372.888.372 1.416 0 .6-.136 1.124-.408 1.572a2.753 2.753 0 0 1-1.152 1.044c-.488.24-1.068.36-1.74.36Z" fill="#fff"/><path d="M448.668 83.837h-62.254c-2.346 0-4.248 1.196-4.248 2.671v6.126c0 1.476 1.902 2.672 4.248 2.672h62.254c2.346 0 4.248-1.196 4.248-2.672v-6.126c0-1.475-1.902-2.671-4.248-2.671Z" fill="#223A7A"/><path d="M390.906 92.58a1.243 1.243 0 0 1-.369-.043.886.886 0 0 1-.3-.143.621.621 0 0 1-.192-.22.41.41 0 0 1-.041-.248l.276-1.49v-.073c0-.013-.085 0-.149 0l-1.944.882a1.158 1.158 0 0 1-.35.112 1.42 1.42 0 0 1-.763-.09.786.786 0 0 1-.267-.19.469.469 0 0 1-.152-.256.38.38 0 0 1 .056-.271.726.726 0 0 1 .225-.196c.095-.055.206-.097.328-.125l2.177-.621c.063 0 .095 0 .095-.053 0-.054 0-.047-.095-.06l-2.177-.615a1.048 1.048 0 0 1-.337-.141.587.587 0 0 1-.205-.22.403.403 0 0 1-.036-.25.476.476 0 0 1 .121-.238.825.825 0 0 1 .269-.19c.109-.05.235-.085.368-.103.26-.024.525.014.743.106l1.944.902h.149c.042 0 0-.04 0-.08l-.276-1.483a.388.388 0 0 1 .041-.25.61.61 0 0 1 .203-.217 1.01 1.01 0 0 1 .327-.146 1.39 1.39 0 0 1 .395-.041 1.36 1.36 0 0 1 .386.05.96.96 0 0 1 .313.15.531.531 0 0 1 .181.22c.033.08.037.165.012.248l-.265 1.483v.08a.236.236 0 0 0 .159 0l1.933-.882a1.27 1.27 0 0 1 .361-.114c.131-.022.269-.026.403-.013.132.016.256.051.362.102a.718.718 0 0 1 .254.192.474.474 0 0 1 .156.255.374.374 0 0 1-.05.273c-.115.145-.312.26-.552.32l-2.188.615c-.053 0-.084 0-.084.06s0 .04.084.053l2.188.622c.128.03.244.08.34.142a.624.624 0 0 1 .212.218.366.366 0 0 1 .037.252.465.465 0 0 1-.143.236.68.68 0 0 1-.253.19c-.107.05-.231.084-.363.097a1.573 1.573 0 0 1-.398 0 1.35 1.35 0 0 1-.366-.1l-1.933-.902a.236.236 0 0 0-.159 0 .048.048 0 0 0-.02.037c0 .013.007.026.02.037l.265 1.49a.342.342 0 0 1-.022.25.54.54 0 0 1-.201.217c-.096.06-.211.106-.337.136-.126.03-.261.043-.396.038Zm12.872 0a1.27 1.27 0 0 1-.37-.044.895.895 0 0 1-.299-.142.602.602 0 0 1-.188-.22.406.406 0 0 1-.035-.248l.265-1.49v-.073c0-.013-.085 0-.149 0l-1.943.882a1.157 1.157 0 0 1-.35.113c-.129.02-.263.023-.393.007-.268-.048-.495-.161-.632-.313-.137-.153-.173-.333-.101-.502.116-.146.312-.26.552-.32l2.188-.622c.053 0 .085 0 .085-.053 0-.054 0-.047-.085-.06l-2.188-.615a1.101 1.101 0 0 1-.333-.144.644.644 0 0 1-.209-.217c-.067-.164-.033-.339.096-.488a.82.82 0 0 1 .264-.188c.108-.05.231-.087.363-.105.26-.028.527.01.743.106l1.943.902h.149c.032 0 0-.04 0-.08l-.265-1.483a.403.403 0 0 1 .04-.249.622.622 0 0 1 .193-.218c.092-.063.204-.112.328-.144.125-.033.26-.047.394-.044.13-.002.259.013.379.045a.985.985 0 0 1 .312.143.532.532 0 0 1 .188.218c.035.082.04.167.013.25l-.265 1.482v.08h.149l1.943-.881c.106-.054.229-.093.361-.115a1.52 1.52 0 0 1 .404-.012c.13.016.252.05.357.102.105.05.19.117.248.191a.46.46 0 0 1 .16.256.367.367 0 0 1-.054.272c-.115.146-.312.26-.552.32l-2.177.615c-.064 0-.096.02-.096.06 0 0 0 .04.096.054l2.177.621c.129.03.246.079.341.141a.603.603 0 0 1 .211.22c.045.08.059.167.04.252a.447.447 0 0 1-.146.236.668.668 0 0 1-.247.19c-.106.05-.228.083-.358.097a1.545 1.545 0 0 1-.399 0 1.325 1.325 0 0 1-.366-.1l-1.954-.882h-.149c-.042 0 0 .04 0 .073l.266 1.49a.347.347 0 0 1-.022.25.555.555 0 0 1-.201.218 1.15 1.15 0 0 1-.333.13 1.48 1.48 0 0 1-.389.037Zm12.882 0a1.293 1.293 0 0 1-.374-.044.931.931 0 0 1-.306-.142.622.622 0 0 1-.188-.22.406.406 0 0 1-.035-.248l.276-1.49v-.073a.206.206 0 0 0-.149 0l-1.943.882a1.167 1.167 0 0 1-.35.112 1.421 1.421 0 0 1-.763-.09.78.78 0 0 1-.268-.19.458.458 0 0 1-.154-.256.367.367 0 0 1 .059-.271.71.71 0 0 1 .224-.196 1.18 1.18 0 0 1 .328-.125l2.177-.621c.064 0 .096 0 .096-.053 0-.054 0-.047-.096-.06l-2.177-.615a1.048 1.048 0 0 1-.337-.141.586.586 0 0 1-.205-.22.41.41 0 0 1-.036-.25.492.492 0 0 1 .121-.238.834.834 0 0 1 .269-.19 1.3 1.3 0 0 1 .369-.103c.26-.024.525.014.743.106l1.943.902a.206.206 0 0 0 .149 0v-.08l-.276-1.483a.383.383 0 0 1 .042-.25.615.615 0 0 1 .202-.217c.09-.063.2-.112.323-.144a1.43 1.43 0 0 1 .389-.044c.134-.002.267.014.389.049a.983.983 0 0 1 .318.149c.086.064.149.14.183.221a.363.363 0 0 1 .013.25l-.266 1.483v.08a.199.199 0 0 0 .074.013.2.2 0 0 0 .075-.013l1.943-.882c.107-.053.23-.092.361-.114a1.56 1.56 0 0 1 .404-.013c.131.016.255.051.362.102a.737.737 0 0 1 .254.192.48.48 0 0 1 .156.255.384.384 0 0 1-.05.273c-.116.145-.312.26-.552.32l-2.188.615c-.053 0-.085 0-.085.06s0 .04.085.053l2.188.622c.128.03.244.08.339.142a.627.627 0 0 1 .213.218.365.365 0 0 1 .036.252.463.463 0 0 1-.142.236.688.688 0 0 1-.253.19 1.13 1.13 0 0 1-.363.097 1.581 1.581 0 0 1-.399 0 1.36 1.36 0 0 1-.366-.1l-1.943-.902a.202.202 0 0 0-.149 0 .048.048 0 0 0-.02.037c0 .013.007.026.02.037l.266 1.49a.347.347 0 0 1-.022.25.555.555 0 0 1-.201.217c-.096.06-.211.106-.337.136-.127.03-.262.043-.396.038Zm12.871 0a1.263 1.263 0 0 1-.369-.044.9.9 0 0 1-.3-.142.609.609 0 0 1-.187-.22.399.399 0 0 1-.036-.248l.266-1.49v-.073c0-.013-.085 0-.149 0l-1.944.882a1.139 1.139 0 0 1-.35.113c-.128.02-.263.023-.393.007-.268-.048-.494-.161-.631-.313-.137-.153-.174-.333-.102-.502a1.08 1.08 0 0 1 .51-.274l2.188-.621c.053 0 .085 0 .085-.054 0-.053 0-.046-.085-.06l-2.188-.614a1.1 1.1 0 0 1-.333-.144.644.644 0 0 1-.209-.217c-.067-.164-.033-.339.096-.488a.817.817 0 0 1 .264-.188c.108-.05.231-.087.363-.106.26-.027.527.011.743.107l1.943.902h.149c.032 0 0-.04 0-.08l-.265-1.483a.383.383 0 0 1 .036-.25.614.614 0 0 1 .197-.218c.092-.062.204-.111.328-.144.125-.032.26-.047.394-.043.13-.002.259.013.379.045a.984.984 0 0 1 .312.142.532.532 0 0 1 .188.22c.035.08.04.165.013.248l-.265 1.483v.08h.149l1.943-.882a1.25 1.25 0 0 1 .361-.115 1.52 1.52 0 0 1 .404-.012c.13.017.252.052.357.103a.68.68 0 0 1 .248.191.474.474 0 0 1 .156.256.374.374 0 0 1-.05.272c-.115.146-.312.26-.552.32l-2.177.615c-.064 0-.096.02-.096.06 0 0 0 .04.096.054l2.262.621c.129.03.246.079.341.141a.603.603 0 0 1 .211.22c.045.08.059.167.04.252a.447.447 0 0 1-.146.235.67.67 0 0 1-.247.19c-.106.05-.228.084-.358.098a1.54 1.54 0 0 1-.399 0 1.325 1.325 0 0 1-.366-.1l-1.943-.902h-.149c-.043 0 0 .04 0 .073l.265 1.49a.342.342 0 0 1-.021.25.551.551 0 0 1-.202.217c-.105.058-.229.1-.363.124-.133.025-.274.03-.412.017Z" fill="#fff"/><path d="M442.413 92.58a1.284 1.284 0 0 1-.374-.043.91.91 0 0 1-.305-.143.602.602 0 0 1-.188-.22.406.406 0 0 1-.035-.248l.276-1.49v-.073a.206.206 0 0 0-.149 0l-1.986.902a1.426 1.426 0 0 1-.558.103 1.397 1.397 0 0 1-.552-.115.748.748 0 0 1-.351-.291.404.404 0 0 1-.026-.365c.119-.147.319-.261.563-.321l2.177-.621c.064 0 .085 0 .085-.054 0-.053 0-.046-.085-.06l-2.177-.614a1.05 1.05 0 0 1-.337-.142.586.586 0 0 1-.205-.22.398.398 0 0 1-.04-.249.48.48 0 0 1 .125-.238.828.828 0 0 1 .264-.188c.108-.05.232-.087.363-.106a1.58 1.58 0 0 1 .754.107l1.943.902a.204.204 0 0 0 .149 0v-.08l-.276-1.483a.382.382 0 0 1 .042-.25.615.615 0 0 1 .202-.218c.09-.062.2-.111.323-.143.123-.033.256-.047.389-.044.134-.002.267.014.389.048a.987.987 0 0 1 .318.15c.086.064.149.14.183.221a.363.363 0 0 1 .013.25l-.277 1.482v.08a.206.206 0 0 0 .149 0l1.944-.881c.106-.053.229-.092.361-.114.131-.022.269-.026.403-.013.132.016.255.051.362.102a.716.716 0 0 1 .254.192.474.474 0 0 1 .156.255.374.374 0 0 1-.05.272c-.118.147-.318.261-.562.321l-2.178.615c-.063 0-.085 0-.085.06s0 .04.085.053l2.178.621c.13.03.248.078.346.14a.626.626 0 0 1 .216.221.365.365 0 0 1 .037.252.465.465 0 0 1-.143.236.681.681 0 0 1-.253.19c-.107.05-.231.083-.363.097a1.573 1.573 0 0 1-.398-.001 1.353 1.353 0 0 1-.366-.1l-1.944-.901a.204.204 0 0 0-.149 0v.073l.277 1.49a.347.347 0 0 1-.022.25.556.556 0 0 1-.201.218 1.386 1.386 0 0 1-.691.127Z" fill="#67ACFF"/></svg>