<svg width="49" height="49" viewBox="0 0 49 49" fill="none" xmlns="http://www.w3.org/2000/svg"><path d="M14.598.45a15.723 15.723 0 0 0-7.184 0 8.372 8.372 0 0 0-6.237 6.24 15.723 15.723 0 0 0 0 7.189 8.348 8.348 0 0 0 6.237 6.236c2.364.554 4.824.554 7.188 0a8.372 8.372 0 0 0 6.236-6.236 15.751 15.751 0 0 0 0-7.189A8.37 8.37 0 0 0 14.602.454L14.598.45Z" fill="#FCA311"/><path d="M14.598.45a15.723 15.723 0 0 0-7.184 0 8.372 8.372 0 0 0-6.237 6.24 15.723 15.723 0 0 0 0 7.189 8.348 8.348 0 0 0 6.237 6.236c2.364.554 4.824.554 7.188 0a8.372 8.372 0 0 0 6.236-6.236 15.751 15.751 0 0 0 0-7.189A8.37 8.37 0 0 0 14.602.454L14.598.45Z" fill="url(#a)"/><path d="M14.598 27.954a15.752 15.752 0 0 0-7.184 0 8.372 8.372 0 0 0-6.237 6.236 15.723 15.723 0 0 0 0 7.189 8.347 8.347 0 0 0 6.237 6.24c2.364.555 4.824.555 7.188 0a8.372 8.372 0 0 0 6.236-6.237 15.751 15.751 0 0 0 0-7.188 8.372 8.372 0 0 0-6.236-6.24h-.004Z" fill="#FCA311"/><path d="M14.598 27.954a15.752 15.752 0 0 0-7.184 0 8.372 8.372 0 0 0-6.237 6.236 15.723 15.723 0 0 0 0 7.189 8.347 8.347 0 0 0 6.237 6.24c2.364.555 4.824.555 7.188 0a8.372 8.372 0 0 0 6.236-6.237 15.751 15.751 0 0 0 0-7.188 8.372 8.372 0 0 0-6.236-6.24h-.004Z" fill="url(#b)"/><path d="M42.102.45a15.723 15.723 0 0 0-7.189 0 8.372 8.372 0 0 0-6.236 6.24 15.751 15.751 0 0 0 0 7.189 8.352 8.352 0 0 0 6.236 6.236c2.365.554 4.825.554 7.189 0a8.372 8.372 0 0 0 6.24-6.236 15.721 15.721 0 0 0 0-7.189A8.372 8.372 0 0 0 42.106.454L42.102.45Z" fill="#FCA311"/><path d="M42.102.45a15.723 15.723 0 0 0-7.189 0 8.372 8.372 0 0 0-6.236 6.24 15.751 15.751 0 0 0 0 7.189 8.352 8.352 0 0 0 6.236 6.236c2.365.554 4.825.554 7.189 0a8.372 8.372 0 0 0 6.24-6.236 15.721 15.721 0 0 0 0-7.189A8.372 8.372 0 0 0 42.106.454L42.102.45Z" fill="url(#c)"/><path d="M42.102 27.954a15.751 15.751 0 0 0-7.189 0 8.372 8.372 0 0 0-6.236 6.236 15.752 15.752 0 0 0 0 7.189 8.353 8.353 0 0 0 6.236 6.24c2.364.555 4.825.555 7.189 0a8.373 8.373 0 0 0 6.24-6.237 15.72 15.72 0 0 0 0-7.188 8.372 8.372 0 0 0-6.236-6.24h-.004Z" fill="#FCA311"/><path d="M42.102 27.954a15.751 15.751 0 0 0-7.189 0 8.372 8.372 0 0 0-6.236 6.236 15.752 15.752 0 0 0 0 7.189 8.353 8.353 0 0 0 6.236 6.24c2.364.555 4.825.555 7.189 0a8.373 8.373 0 0 0 6.24-6.237 15.72 15.72 0 0 0 0-7.188 8.372 8.372 0 0 0-6.236-6.24h-.004Z" fill="url(#d)"/><defs><linearGradient id="a" x1=".753" y1="-.2" x2="29.997" y2="57.333" gradientUnits="userSpaceOnUse"><stop stop-color="#09C6F9"/><stop offset="1" stop-color="#045DE9"/></linearGradient><linearGradient id="b" x1=".753" y1="-.2" x2="29.997" y2="57.333" gradientUnits="userSpaceOnUse"><stop stop-color="#09C6F9"/><stop offset="1" stop-color="#045DE9"/></linearGradient><linearGradient id="c" x1=".753" y1="-.2" x2="29.997" y2="57.333" gradientUnits="userSpaceOnUse"><stop stop-color="#09C6F9"/><stop offset="1" stop-color="#045DE9"/></linearGradient><linearGradient id="d" x1=".753" y1="-.2" x2="29.997" y2="57.333" gradientUnits="userSpaceOnUse"><stop stop-color="#09C6F9"/><stop offset="1" stop-color="#045DE9"/></linearGradient></defs></svg>