<svg width="49" height="49" viewBox="0 0 49 49" fill="none" xmlns="http://www.w3.org/2000/svg"><path fill-rule="evenodd" clip-rule="evenodd" d="M16.636 1.853a34.658 34.658 0 0 1 15.84 0 20.345 20.345 0 0 1 15.163 15.163 34.66 34.66 0 0 1 0 15.84A20.346 20.346 0 0 1 32.476 48.02a34.66 34.66 0 0 1-15.84 0A20.346 20.346 0 0 1 1.472 32.856a34.658 34.658 0 0 1 0-15.84A20.345 20.345 0 0 1 16.636 1.853ZM28.53 19.636a1.02 1.02 0 0 1 1.326 1.326l-2.078 5.205a3.574 3.574 0 0 1-1.992 1.988l-5.2 2.078a1.02 1.02 0 0 1-1.331-1.322l2.082-5.205a3.572 3.572 0 0 1 1.992-1.988l5.2-2.082Zm4.172 2.464c1.334-3.334-1.976-6.64-5.31-5.31l-5.2 2.082a6.646 6.646 0 0 0-3.7 3.697l-2.08 5.204c-1.334 3.334 1.974 6.64 5.31 5.31l5.201-2.082a6.639 6.639 0 0 0 3.697-3.697l2.082-5.204Z" fill="#FCA311"/><path fill-rule="evenodd" clip-rule="evenodd" d="M16.636 1.853a34.658 34.658 0 0 1 15.84 0 20.345 20.345 0 0 1 15.163 15.163 34.66 34.66 0 0 1 0 15.84A20.346 20.346 0 0 1 32.476 48.02a34.66 34.66 0 0 1-15.84 0A20.346 20.346 0 0 1 1.472 32.856a34.658 34.658 0 0 1 0-15.84A20.345 20.345 0 0 1 16.636 1.853ZM28.53 19.636a1.02 1.02 0 0 1 1.326 1.326l-2.078 5.205a3.574 3.574 0 0 1-1.992 1.988l-5.2 2.078a1.02 1.02 0 0 1-1.331-1.322l2.082-5.205a3.572 3.572 0 0 1 1.992-1.988l5.2-2.082Zm4.172 2.464c1.334-3.334-1.976-6.64-5.31-5.31l-5.2 2.082a6.646 6.646 0 0 0-3.7 3.697l-2.08 5.204c-1.334 3.334 1.974 6.64 5.31 5.31l5.201-2.082a6.639 6.639 0 0 0 3.697-3.697l2.082-5.204Z" fill="url(#a)"/><defs><linearGradient id="a" x1=".545" y1=".705" x2="29.79" y2="58.237" gradientUnits="userSpaceOnUse"><stop stop-color="#09C6F9"/><stop offset="1" stop-color="#045DE9"/></linearGradient></defs></svg>